<?xml version="1.0" standalone="no"?>
<!DOCTYPE svg PUBLIC "-//W3C//DTD SVG 1.1//EN" "http://www.w3.org/Graphics/SVG/1.1/DTD/svg11.dtd" >
<svg xmlns="http://www.w3.org/2000/svg" xmlns:xlink="http://www.w3.org/1999/xlink" version="1.1">
<metadata>
Created by FontForge 20141024 at Thu Sep 17 12:38:00 2015
 By Jimmy Warting
Copyright (c) 2012 by Mariya Pigoulevskaya. All rights reserved.
</metadata>
<defs>
<font id="Silpo-Black" horiz-adv-x="492" >
  <font-face 
    font-family="Silpo"
    font-weight="900"
    font-stretch="normal"
    units-per-em="1000"
    panose-1="0 0 7 0 0 0 0 0 0 0"
    ascent="750"
    descent="-250"
    x-height="500"
    cap-height="700"
    bbox="-51 -264 921 1019"
    underline-thickness="50"
    underline-position="-50"
    stemh="111"
    stemv="108"
    unicode-range="U+0020-FB02"
  />
<missing-glyph horiz-adv-x="250" 
 />
    <glyph glyph-name=".notdef" horiz-adv-x="250" 
 />
    <glyph glyph-name="A" unicode="A" horiz-adv-x="518" 
d="M372 0l-40 174h-147l-40 -174h-111l154 700h141l154 -700h-111zM198 285h120l-60 287z" />
    <glyph glyph-name="Aacute" unicode="&#xc1;" horiz-adv-x="518" 
d="M242 912h109l-91 -151h-75zM188 700h141l154 -700h-111l-40 174h-147l-40 -174h-111zM319 286l-60 287l-60 -287h120z" />
    <glyph glyph-name="Abreve" unicode="&#x102;" horiz-adv-x="518" 
d="M312 900h79c-6 -68 -63 -121 -132 -121s-126 53 -132 121h80c6 -23 27 -40 52 -40c26 0 47 17 53 40zM187 700h141l154 -700h-111l-40 174h-147l-40 -174h-111zM318 286l-60 287l-60 -287h120z" />
    <glyph glyph-name="Acaron" unicode="&#x1cd;" horiz-adv-x="518" 
d="M326 904h73l-87 -148h-102l-87 148h71l66 -72zM190 700h141l154 -700h-111l-40 174h-147l-40 -174h-111zM321 286l-60 287l-60 -287h120z" />
    <glyph glyph-name="Acircumflex" unicode="&#xc2;" horiz-adv-x="518" 
d="M208 904h100l87 -148h-71l-66 72l-66 -72h-71zM186 700h141l154 -700h-111l-40 174h-147l-40 -174h-111zM317 286l-60 287l-60 -287h120z" />
    <glyph glyph-name="Adieresis" unicode="&#xc4;" horiz-adv-x="518" 
d="M141 900h95v-94h-95v94zM284 900h95v-94h-95v94zM189 700h141l154 -700h-111l-40 174h-147l-40 -174h-111zM320 286l-60 287l-60 -287h120z" />
    <glyph glyph-name="Agrave" unicode="&#xc0;" horiz-adv-x="518" 
d="M176 914h109l57 -151h-75zM188 700h141l154 -700h-111l-40 174h-147l-40 -174h-111zM319 286l-60 287l-60 -287h120z" />
    <glyph glyph-name="Amacron" unicode="&#x100;" horiz-adv-x="518" 
d="M121 900h278v-85h-278v85zM189 700h141l154 -700h-111l-40 174h-147l-40 -174h-111zM320 286l-60 287l-60 -287h120z" />
    <glyph glyph-name="Aogonek" unicode="&#x104;" horiz-adv-x="518" 
d="M188 700h140l154 -700c-21 -22 -46 -47 -44 -75c1 -21 15 -29 37 -30l15 -1v-68h-29c-73 5 -101 35 -100 80c0 46 34 76 51 94h-40l-40 174h-147l-40 -174h-111zM318 286l-60 287l-60 -287h120z" />
    <glyph glyph-name="Aring" unicode="&#xc5;" horiz-adv-x="518" 
d="M259 941c59 0 107 -48 107 -106c0 -59 -48 -107 -107 -107s-106 48 -106 107c0 58 47 106 106 106zM259 874c-22 0 -39 -18 -39 -39c0 -22 17 -40 39 -40s40 18 40 40c0 21 -18 39 -40 39zM188 700h141l154 -700h-111l-40 174h-147l-40 -174h-111zM319 286l-60 287
l-60 -287h120z" />
    <glyph glyph-name="Atilde" unicode="&#xc3;" horiz-adv-x="518" 
d="M337 903l68 2c0 -67 -16 -141 -84 -141c-24 0 -40 7 -72 34c-19 18 -30 20 -42 19c-19 -1 -26 -19 -26 -54h-69c0 67 16 141 84 141c27 0 44 -13 72 -35c21 -20 35 -21 46 -18c18 2 23 19 23 52zM186 702h141l154 -700h-111l-40 174h-147l-40 -174h-111zM317 288l-60 287
l-60 -287h120z" />
    <glyph glyph-name="AE" unicode="&#xc6;" horiz-adv-x="603" 
d="M196 700l370 1v-108h-192v-183h182v-108h-182v-194h192v-108h-303v174h-69l-40 -174h-111zM263 287v270l-56 -270h56z" />
    <glyph glyph-name="B" unicode="B" horiz-adv-x="461" 
d="M46 700l177 1c97 0 200 -45 200 -165v-36c0 -69 -35 -113 -85 -137c63 -26 100 -79 100 -155v-31c0 -115 -82 -177 -210 -177h-182v700zM315 497v11c0 62 -46 86 -94 86h-64v-183h64c50 0 94 25 94 86zM326 204v10c0 63 -39 95 -100 95h-68v-200h68c60 0 100 31 100 95z
" />
    <glyph glyph-name="C" unicode="C" horiz-adv-x="473" 
d="M45 234l-2 233c0 185 105 242 205 242c96 0 197 -54 201 -232v-20h-111v17c-4 92 -40 128 -89 128c-53 0 -91 -38 -91 -142v-218c0 -104 38 -142 91 -142c49 0 85 35 90 126v19h111v-20c-3 -179 -104 -233 -200 -233c-100 0 -205 57 -205 242z" />
    <glyph glyph-name="Cacute" unicode="&#x106;" horiz-adv-x="473" 
d="M211 912h109l-91 -151h-75zM45 234l-2 233c0 185 105 242 205 242c96 0 197 -54 201 -232v-20h-111v17c-4 92 -40 128 -89 128c-53 0 -91 -38 -91 -142v-218c0 -104 38 -142 91 -142c49 0 85 35 90 126v19h111v-20c-3 -179 -104 -233 -200 -233c-100 0 -205 57 -205 242z
" />
    <glyph glyph-name="Ccaron" unicode="&#x10c;" horiz-adv-x="473" 
d="M303 904h73l-87 -148h-102l-87 148h71l66 -72zM46 234l-2 233c0 185 105 242 205 242c96 0 197 -54 201 -232v-20h-111v17c-4 92 -40 128 -89 128c-53 0 -91 -38 -91 -142v-218c0 -104 38 -142 91 -142c49 0 85 35 90 126v19h111v-20c-3 -179 -104 -233 -200 -233
c-100 0 -205 57 -205 242z" />
    <glyph glyph-name="Ccedilla" unicode="&#xc7;" horiz-adv-x="473" 
d="M45 234l-1 233c0 185 105 242 205 242c96 0 197 -54 201 -232v-20h-111v17c-4 92 -40 128 -89 128c-53 0 -91 -38 -91 -142v-218c0 -104 38 -142 91 -142c49 0 85 35 90 126v19h111v-20c-3 -142 -68 -205 -143 -224v-34c-1 -96 -27 -137 -119 -140h-24v69l23 1
c32 3 42 23 43 64v33l-16 2c-87 12 -170 74 -170 238z" />
    <glyph glyph-name="Cdotaccent" unicode="&#x10a;" horiz-adv-x="473" 
d="M189 900h95v-94h-95v94zM44 234l-2 233c0 185 105 242 205 242c96 0 197 -54 201 -232v-20h-111v17c-4 92 -40 128 -89 128c-53 0 -91 -38 -91 -142v-218c0 -104 38 -142 91 -142c49 0 85 35 90 126v19h111v-20c-3 -179 -104 -233 -200 -233c-100 0 -205 57 -205 242z
" />
    <glyph glyph-name="D" unicode="D" horiz-adv-x="480" 
d="M46 700h189c98 0 203 -50 203 -242v-216c0 -192 -105 -242 -203 -242h-189v700zM327 250v201c0 104 -41 142 -92 142h-78v-485h78c51 0 92 38 92 142z" />
    <glyph glyph-name="Eth" unicode="&#xd0;" horiz-adv-x="480" 
d="M46 700h189c98 0 203 -50 203 -242v-216c0 -192 -105 -242 -203 -242h-189v285h-44v108h44v307zM327 250v200c0 104 -41 142 -92 142h-78v-199h93v-108h-93v-177h78c51 0 92 38 92 142z" />
    <glyph glyph-name="Dcaron" unicode="&#x10e;" horiz-adv-x="480" 
d="M291 756h-100l-87 148h71l66 -72l66 72h71zM47 700h189c98 0 203 -50 203 -242v-216c0 -192 -105 -242 -203 -242h-189v700zM328 250v201c0 104 -41 142 -92 142h-78v-485h78c51 0 92 38 92 142z" />
    <glyph glyph-name="Dcroat" unicode="&#x110;" horiz-adv-x="480" 
d="M52 700h189c98 0 203 -50 203 -242v-216c0 -192 -105 -242 -203 -242h-189v301h-47v85h47v314zM333 250v201c0 104 -41 142 -92 142h-78v-207h75v-85h-75v-193h78c51 0 92 38 92 142z" />
    <glyph glyph-name="E" unicode="E" horiz-adv-x="372" 
d="M349 592l-192 1v-183h182v-108h-182v-194h192v-108h-303v700h303v-108z" />
    <glyph glyph-name="Eacute" unicode="&#xc9;" horiz-adv-x="372" 
d="M160 912h109l-91 -151h-75zM46 700l303 1v-108h-192v-183h182v-108h-182v-194h192v-108h-303v700z" />
    <glyph glyph-name="Ecaron" unicode="&#x11a;" horiz-adv-x="372" 
d="M253 904h73l-87 -148h-102l-87 148h71l66 -72zM48 700l303 1v-108h-192v-183h182v-108h-182v-194h192v-108h-303v700z" />
    <glyph glyph-name="Ecircumflex" unicode="&#xca;" horiz-adv-x="372" 
d="M136 904h100l87 -148h-71l-66 72l-66 -72h-71zM45 700l303 1v-108h-192v-183h182v-108h-182v-194h192v-108h-303v700z" />
    <glyph glyph-name="Edieresis" unicode="&#xcb;" horiz-adv-x="372" 
d="M68 900h95v-94h-95v94zM211 900h95v-94h-95v94zM46 700l303 1v-108h-192v-183h182v-108h-182v-194h192v-108h-303v700z" />
    <glyph glyph-name="Edotaccent" unicode="&#x116;" horiz-adv-x="372" 
d="M139 900h95v-94h-95v94zM46 700l303 1v-108h-192v-183h182v-108h-182v-194h192v-108h-303v700z" />
    <glyph glyph-name="Egrave" unicode="&#xc8;" horiz-adv-x="372" 
d="M103 914h109l57 -151h-75zM45 700l303 1v-108h-192v-183h182v-108h-182v-194h192v-108h-303v700z" />
    <glyph glyph-name="Emacron" unicode="&#x112;" horiz-adv-x="372" 
d="M48 900h278v-85h-278v85zM46 700l303 1v-108h-192v-183h182v-108h-182v-194h192v-108h-303v700z" />
    <glyph glyph-name="Eogonek" unicode="&#x118;" horiz-adv-x="372" 
d="M46 700l305 1v-108h-192v-183h182v-108h-182v-194h192v-108h-36c-21 -22 -44 -46 -42 -73c1 -22 16 -30 40 -31h12v-69h-14c-77 1 -112 27 -117 71c-4 46 30 82 48 102h-196v700z" />
    <glyph glyph-name="F" unicode="F" horiz-adv-x="364" 
d="M341 592l-184 1v-193h174v-108h-174v-292h-111v700h295v-108z" />
    <glyph glyph-name="G" unicode="G" horiz-adv-x="491" 
d="M45 234v234c0 185 102 242 202 242c97 0 198 -55 200 -238v-11h-108v7c-3 97 -42 133 -92 133c-53 0 -91 -38 -91 -142v-218c0 -104 38 -142 91 -142c51 0 92 36 92 139v45h-89v108h198v-157c0 -186 -103 -242 -201 -242c-100 0 -202 57 -202 242z" />
    <glyph glyph-name="Gbreve" unicode="&#x11e;" horiz-adv-x="491" 
d="M298 900h79c-6 -68 -63 -121 -132 -121s-126 53 -132 121h80c6 -23 27 -40 52 -40c26 0 47 17 53 40zM44 234v234c0 185 102 242 202 242c97 0 198 -55 200 -238v-11h-108v7c-3 97 -42 133 -92 133c-53 0 -91 -38 -91 -142v-218c0 -104 38 -142 91 -142
c51 0 92 36 92 139v45h-89v108h198v-157c0 -186 -103 -242 -201 -242c-100 0 -202 57 -202 242z" />
    <glyph glyph-name="Gcommaaccent" unicode="&#x122;" horiz-adv-x="491" 
d="M45 234v234c0 185 102 242 202 242c97 0 198 -55 200 -238v-11h-108v7c-3 97 -42 133 -92 133c-53 0 -91 -38 -91 -142v-218c0 -104 38 -142 91 -142c51 0 92 36 92 139v45h-89v108h198v-157c0 -186 -103 -242 -201 -242c-100 0 -202 57 -202 242zM195 -57h103v-102
l-38 -103h-39l18 103h-44v102z" />
    <glyph glyph-name="Gdotaccent" unicode="&#x120;" horiz-adv-x="491" 
d="M199 807v94h95v-94h-95zM45 235v234c0 185 102 242 202 242c97 0 198 -55 200 -238v-11h-108v7c-3 97 -42 133 -92 133c-53 0 -91 -38 -91 -142v-218c0 -104 38 -142 91 -142c51 0 92 36 92 139v45h-89v108h198v-157c0 -186 -103 -242 -201 -242c-100 0 -202 57 -202 242
z" />
    <glyph glyph-name="H" unicode="H" horiz-adv-x="477" 
d="M321 700h111v-700h-111v302h-164v-302h-111v700h111v-290h164v290z" />
    <glyph glyph-name="Hbar" unicode="&#x126;" horiz-adv-x="588" 
d="M562 597v-99h-76v-498h-111v302h-164v-302h-111v498h-76v99h76v103h111v-103h164v103h111v-103h76zM375 409v89h-164v-89h164z" />
    <glyph glyph-name="I" unicode="I" horiz-adv-x="206" 
d="M46 0v700h115v-700h-115z" />
    <glyph glyph-name="IJ" unicode="&#x132;" horiz-adv-x="528" 
d="M46 700h115v-700h-115v700zM372 700l111 1v-466c0 -181 -100 -240 -193 -243h-49v108h28c54 2 103 36 103 142v458z" />
    <glyph glyph-name="Iacute" unicode="&#xcd;" horiz-adv-x="206" 
d="M77 912h109l-91 -151h-75zM46 0v700h115v-700h-115z" />
    <glyph glyph-name="Icaron" unicode="&#x1cf;" horiz-adv-x="206" 
d="M169 904h73l-87 -148h-102l-87 148h71l66 -72zM47 0v700h115v-700h-115z" />
    <glyph glyph-name="Icircumflex" unicode="&#xce;" horiz-adv-x="206" 
d="M52 904h100l87 -148h-71l-66 72l-66 -72h-71zM44 0v700h115v-700h-115z" />
    <glyph glyph-name="Idieresis" unicode="&#xcf;" horiz-adv-x="206" 
d="M-16 806v94h95v-94h-95zM127 806v94h95v-94h-95zM46 0v700h115v-700h-115z" />
    <glyph glyph-name="Idotaccent" unicode="&#x130;" horiz-adv-x="206" 
d="M56 807v94h95v-94h-95zM46 1v700h115v-700h-115z" />
    <glyph glyph-name="Igrave" unicode="&#xcc;" horiz-adv-x="206" 
d="M20 914h109l57 -151h-75zM46 0v700h115v-700h-115z" />
    <glyph glyph-name="Imacron" unicode="&#x12a;" horiz-adv-x="206" 
d="M-36 900h278v-85h-278v85zM46 0v700h115v-700h-115z" />
    <glyph glyph-name="Iogonek" unicode="&#x12e;" horiz-adv-x="206" 
d="M46 700h115v-700c-22 -21 -47 -46 -45 -74c2 -22 16 -30 40 -31h12v-69h-13c-80 1 -114 29 -116 73c-3 48 33 82 51 101h-44v700z" />
    <glyph glyph-name="J" unicode="J" horiz-adv-x="322" 
d="M166 700l111 -1v-466c0 -180 -99 -239 -192 -242h-50v108h29c54 2 102 37 102 143v458z" />
    <glyph glyph-name="K" unicode="K" horiz-adv-x="502" 
d="M468 0l-131 1l-178 302v-302h-115v700h115v-286l163 286h127l-189 -345z" />
    <glyph glyph-name="Kcommaaccent" unicode="&#x136;" horiz-adv-x="502" 
d="M261 356l207 -355h-130l-178 302v-302h-115v700h115v-286l163 286h127zM200 -159v102h103v-102l-38 -103h-39l18 103h-44z" />
    <glyph glyph-name="L" unicode="L" horiz-adv-x="375" 
d="M157 108h184v-108h-295v700h111v-592z" />
    <glyph glyph-name="Lacute" unicode="&#x139;" horiz-adv-x="375" 
d="M162 912h109l-91 -151h-75zM46 700h111v-592h184v-108h-295v700z" />
    <glyph glyph-name="Lcaron" unicode="&#x13d;" horiz-adv-x="452" 
d="M157 108h184v-108h-295v700h111v-592zM307 496l18 103h-44v102h103v-102l-38 -103h-39z" />
    <glyph glyph-name="Lcommaaccent" unicode="&#x13b;" horiz-adv-x="375" 
d="M157 108h184v-108h-295v700h111v-592zM137 -160v102h103v-102l-38 -103h-39l18 103h-44z" />
    <glyph glyph-name="Ldot" unicode="&#x13f;" horiz-adv-x="438" 
d="M157 108h184v-108h-295v700h111v-592zM285 310v78h80v-78h-80z" />
    <glyph glyph-name="Lslash" unicode="&#x141;" horiz-adv-x="447" 
d="M209 108h204v-108h-315v318l-85 -42v110l85 42v272h111v-243l86 43v-110l-86 -43v-239z" />
    <glyph glyph-name="M" unicode="M" horiz-adv-x="627" 
d="M445 700h137v-700h-108v440l-127 -440h-69l-127 440v-440h-108v700h136l133 -467z" />
    <glyph glyph-name="N" unicode="N" horiz-adv-x="502" 
d="M352 700h108v-700h-109l-199 446v-446h-108v700h109l199 -446v446z" />
    <glyph glyph-name="Nacute" unicode="&#x143;" horiz-adv-x="502" 
d="M226 912h109l-91 -151h-75zM352 700h108v-700h-109l-199 446v-446h-108v700h109l199 -446v446z" />
    <glyph glyph-name="Ncaron" unicode="&#x147;" horiz-adv-x="502" 
d="M318 904h73l-87 -148h-102l-87 148h71l66 -72zM353 700h108v-700h-109l-199 446v-446h-108v700h109l199 -446v446z" />
    <glyph glyph-name="Ncommaaccent" unicode="&#x145;" horiz-adv-x="502" 
d="M352 700h108v-700h-109l-199 446v-446h-108v700h109l199 -446v446zM201 -160v102h103v-102l-38 -103h-39l18 103h-44z" />
    <glyph glyph-name="Eng" unicode="&#x14a;" horiz-adv-x="600" 
d="M418 700h110v-673c0 -157 -67 -198 -161 -199h-41v106h22c46 0 66 10 69 76l-192 457v-467h-111v700h109l195 -467v467z" />
    <glyph glyph-name="Ntilde" unicode="&#xd1;" horiz-adv-x="502" 
d="M329 903l68 2c0 -67 -16 -141 -84 -141c-24 0 -40 7 -72 34c-19 18 -30 20 -42 19c-19 -1 -26 -19 -26 -54h-69c0 67 16 141 84 141c27 0 44 -13 72 -35c21 -20 35 -21 46 -18c18 2 23 19 23 52zM350 702h108v-700h-109l-199 446v-446h-108v700h109l199 -446v446z" />
    <glyph glyph-name="O" unicode="O" 
d="M40 234v233c0 185 105 242 205 242c98 0 206 -56 206 -242v-233c0 -186 -108 -242 -206 -242c-100 0 -205 57 -205 242zM337 242v218c0 104 -41 142 -92 142c-53 0 -91 -38 -91 -142v-218c0 -104 38 -142 91 -142c51 0 92 38 92 142z" />
    <glyph glyph-name="Oacute" unicode="&#xd3;" 
d="M220 912h109l-91 -151h-75zM40 234v233c0 185 105 242 205 242c98 0 206 -56 206 -242v-233c0 -186 -108 -242 -206 -242c-100 0 -205 57 -205 242zM337 242v218c0 104 -41 142 -92 142c-53 0 -91 -38 -91 -142v-218c0 -104 38 -142 91 -142c51 0 92 38 92 142z" />
    <glyph glyph-name="Ocaron" unicode="&#x1d1;" 
d="M313 904h73l-87 -148h-102l-87 148h71l66 -72zM43 234v233c0 185 105 242 205 242c98 0 206 -56 206 -242v-233c0 -186 -108 -242 -206 -242c-100 0 -205 57 -205 242zM340 242v218c0 104 -41 142 -92 142c-53 0 -91 -38 -91 -142v-218c0 -104 38 -142 91 -142
c51 0 92 38 92 142z" />
    <glyph glyph-name="Ocircumflex" unicode="&#xd4;" 
d="M195 904h100l87 -148h-71l-66 72l-66 -72h-71zM38 234v233c0 185 105 242 205 242c98 0 206 -56 206 -242v-233c0 -186 -108 -242 -206 -242c-100 0 -205 57 -205 242zM335 242v218c0 104 -41 142 -92 142c-53 0 -91 -38 -91 -142v-218c0 -104 38 -142 91 -142
c51 0 92 38 92 142z" />
    <glyph glyph-name="Odieresis" unicode="&#xd6;" 
d="M128 806v94h95v-94h-95zM271 806v94h95v-94h-95zM41 234v233c0 185 105 242 205 242c98 0 206 -56 206 -242v-233c0 -186 -108 -242 -206 -242c-100 0 -205 57 -205 242zM338 242v218c0 104 -41 142 -92 142c-53 0 -91 -38 -91 -142v-218c0 -104 38 -142 91 -142
c51 0 92 38 92 142z" />
    <glyph glyph-name="Ograve" unicode="&#xd2;" 
d="M163 914h109l57 -151h-75zM40 234v233c0 185 105 242 205 242c98 0 206 -56 206 -242v-233c0 -186 -108 -242 -206 -242c-100 0 -205 57 -205 242zM337 242v218c0 104 -41 142 -92 142c-53 0 -91 -38 -91 -142v-218c0 -104 38 -142 91 -142c51 0 92 38 92 142z" />
    <glyph glyph-name="Ohungarumlaut" unicode="&#x150;" 
d="M155 912h101l-91 -151h-67zM293 912h101l-91 -151h-67zM40 234v233c0 185 105 242 205 242c98 0 206 -56 206 -242v-233c0 -186 -108 -242 -206 -242c-100 0 -205 57 -205 242zM337 242v218c0 104 -41 142 -92 142c-53 0 -91 -38 -91 -142v-218c0 -104 38 -142 91 -142
c51 0 92 38 92 142z" />
    <glyph glyph-name="Omacron" unicode="&#x14c;" 
d="M108 900h278v-85h-278v85zM41 234v233c0 185 105 242 205 242c98 0 206 -56 206 -242v-233c0 -186 -108 -242 -206 -242c-100 0 -205 57 -205 242zM338 242v218c0 104 -41 142 -92 142c-53 0 -91 -38 -91 -142v-218c0 -104 38 -142 91 -142c51 0 92 38 92 142z" />
    <glyph glyph-name="Oslash" unicode="&#xd8;" 
d="M428 750l-38 -99c36 -38 60 -97 60 -185v-233c0 -186 -108 -242 -206 -242c-31 0 -62 5 -90 18l-22 -60h-70l37 99c-36 38 -60 97 -60 185v233c0 185 105 242 205 242c31 0 63 -5 92 -18l22 60h70zM153 460l1 -217c0 -14 1 -27 2 -39l140 381c-15 12 -33 17 -52 17
c-53 0 -91 -38 -91 -142zM337 243l1 219c0 14 -1 27 -2 39l-141 -383c14 -12 31 -17 50 -17c51 0 92 38 92 142z" />
    <glyph glyph-name="Otilde" unicode="&#xd5;" 
d="M325 903l69 2c0 -67 -15 -141 -83 -141c-24 0 -40 7 -72 34c-20 18 -31 20 -43 19c-19 -1 -26 -19 -26 -54h-69c0 67 15 141 83 141c28 0 45 -13 72 -35c21 -20 35 -21 46 -18c18 2 23 19 23 52zM40 236v233c0 185 105 242 205 242c98 0 206 -56 206 -242v-233
c0 -186 -108 -242 -206 -242c-100 0 -205 57 -205 242zM337 244v218c0 104 -41 142 -92 142c-53 0 -91 -38 -91 -142v-218c0 -104 38 -142 91 -142c51 0 92 38 92 142z" />
    <glyph glyph-name="OE" unicode="&#x152;" horiz-adv-x="714" 
d="M32 234v235c0 185 105 242 205 242c47 0 96 -16 126 -61v51h303v-108h-192v-183h182v-108h-182v-194h192v-108h-303v52c-30 -45 -79 -60 -126 -60c-100 0 -205 57 -205 242zM329 244v218c0 104 -41 142 -92 142c-53 0 -91 -38 -91 -142v-218c0 -104 38 -142 91 -142
c51 0 92 38 92 142z" />
    <glyph glyph-name="P" unicode="P" horiz-adv-x="467" 
d="M46 700h159c105 0 221 -44 221 -190v-43c0 -135 -106 -184 -206 -189h-63v-278h-111v700zM317 483l-1 12c0 75 -48 97 -95 97h-65v-207h65c47 0 96 23 96 98z" />
    <glyph glyph-name="Thorn" unicode="&#xde;" horiz-adv-x="454" 
d="M46 704l111 -2v-98h49c101 -3 207 -49 207 -188v-38c0 -136 -106 -185 -207 -189h-49v-189h-111v704zM304 392l-1 8c0 76 -48 98 -95 98h-52v-203h52c47 0 96 22 96 97z" />
    <glyph glyph-name="Q" unicode="Q" horiz-adv-x="526" 
d="M481 100l1 -108h-217h-18c-100 0 -202 57 -202 242v233c0 185 102 242 202 242c98 0 203 -56 203 -242v-233c0 -56 -9 -100 -25 -134h56zM157 459v-218c0 -104 38 -142 91 -142h3v0h4c48 4 85 43 85 142v218c0 104 -41 142 -92 142c-53 0 -91 -38 -91 -142z" />
    <glyph glyph-name="R" unicode="R" horiz-adv-x="475" 
d="M46 700l162 -1c105 0 221 -43 221 -189v-38c0 -83 -45 -131 -99 -155l111 -317h-117l-93 283h-74v-283h-111v700zM320 486l-1 8c0 76 -48 98 -95 98h-69v-203h69c47 0 96 22 96 97z" />
    <glyph glyph-name="Racute" unicode="&#x154;" horiz-adv-x="475" 
d="M212 912h109l-91 -151h-75zM46 699l162 -1c105 0 221 -43 221 -189v-38c0 -81 -43 -128 -95 -151l107 -321h-117l-95 266l-72 6v-272h-111v700zM320 485l-1 8c0 76 -48 98 -95 98h-69v-203h69c47 0 96 22 96 97z" />
    <glyph glyph-name="Rcaron" unicode="&#x158;" horiz-adv-x="475" 
d="M305 904h73l-87 -148h-102l-87 148h71l66 -72zM48 700l162 -1c105 0 221 -43 221 -189v-38c0 -81 -43 -128 -95 -151l107 -321h-117l-95 266l-72 6v-272h-111v700zM322 486l-1 8c0 76 -48 98 -95 98h-69v-203h69c47 0 96 22 96 97z" />
    <glyph glyph-name="Rcommaaccent" unicode="&#x156;" horiz-adv-x="475" 
d="M46 700l162 -1c105 0 221 -43 221 -189v-38c0 -81 -43 -128 -95 -151l107 -321h-117l-95 266l-72 6v-272h-111v700zM320 486l-1 8c0 76 -48 98 -95 98h-69v-203h69c47 0 96 22 96 97zM184 -59h103v-102l-38 -103h-39l18 103h-44v102z" />
    <glyph glyph-name="S" unicode="S" horiz-adv-x="475" 
d="M32 217h105c0 -84 47 -118 97 -118c63 0 97 36 97 99c0 71 -41 92 -119 110c-64 15 -167 51 -167 192c0 158 99 209 195 209c94 0 193 -54 193 -226h-107c0 81 -40 118 -86 118c-48 0 -83 -34 -83 -94c1 -74 65 -84 109 -94c131 -28 178 -107 178 -203
c0 -165 -98 -218 -208 -218c-99 0 -203 55 -204 225z" />
    <glyph glyph-name="Sacute" unicode="&#x15a;" horiz-adv-x="475" 
d="M211 912h109l-91 -151h-75zM31 216h105c0 -84 47 -118 97 -118c63 0 97 36 97 99c0 71 -41 92 -119 110c-64 15 -167 51 -167 192c0 158 99 209 195 209c94 0 193 -54 193 -226h-107c0 81 -40 118 -86 118c-48 0 -83 -34 -83 -94c1 -74 65 -84 109 -94
c131 -28 178 -107 178 -203c0 -165 -98 -218 -208 -218c-99 0 -203 55 -204 225z" />
    <glyph glyph-name="Scaron" unicode="&#x160;" horiz-adv-x="475" 
d="M304 904h73l-87 -148h-102l-87 148h71l66 -72zM33 217h105c0 -84 47 -118 97 -118c63 0 97 36 97 99c0 71 -41 92 -119 110c-64 15 -167 51 -167 192c0 158 99 209 195 209c94 0 193 -54 193 -226h-107c0 81 -40 118 -86 118c-48 0 -83 -34 -83 -94c1 -74 65 -84 109 -94
c131 -28 178 -107 178 -203c0 -165 -98 -218 -208 -218c-99 0 -203 55 -204 225z" />
    <glyph glyph-name="Scedilla" unicode="&#x15e;" horiz-adv-x="475" 
d="M32 217l106 -1c0 -84 47 -118 97 -118c63 0 97 36 97 99c0 71 -41 92 -119 110c-64 15 -167 51 -167 192c0 158 99 209 195 209c94 0 193 -54 193 -226h-107c0 81 -40 118 -86 118c-48 0 -83 -34 -83 -94c1 -74 65 -84 109 -94c131 -28 178 -107 178 -203
c0 -127 -58 -187 -135 -208v-41c-2 -93 -30 -133 -123 -135h-20v69l19 1c35 2 45 22 46 65v33c-9 0 -18 0 -26 1c-86 10 -173 70 -174 223z" />
    <glyph glyph-name="Scommaaccent" unicode="&#x218;" horiz-adv-x="475" 
d="M435 483h-110c0 81 -40 118 -86 118c-48 0 -83 -34 -83 -94c1 -74 65 -84 109 -94c131 -28 178 -107 178 -203c0 -165 -98 -218 -208 -218c-99 0 -203 55 -204 225h108c0 -84 47 -118 97 -118c63 0 97 36 97 99c0 71 -41 92 -119 110c-64 15 -167 51 -167 192
c0 158 99 209 195 209c94 0 193 -54 193 -226zM183 -160v102h103v-102l-38 -103h-39l18 103h-44z" />
    <glyph glyph-name="T" unicode="T" horiz-adv-x="432" 
d="M398 700v-108h-126v-592h-111v592h-126v108h363z" />
    <glyph glyph-name="Tbar" unicode="&#x166;" horiz-adv-x="432" 
d="M34 700h363v-108h-126v-173h79v-84h-79v-335h-111v335h-76v84h76v173h-126v108z" />
    <glyph glyph-name="Tcaron" unicode="&#x164;" horiz-adv-x="432" 
d="M282 904h73l-87 -148h-102l-87 148h71l66 -72zM399 700v-108h-126v-592h-111v592h-126v108h363z" />
    <glyph glyph-name="Tcedilla" unicode="&#x162;" horiz-adv-x="432" 
d="M34 700h363v-108h-126v-622c0 -100 -27 -142 -124 -143h-18v69h17c39 1 48 23 49 69v35h-35v592h-126v108z" />
    <glyph glyph-name="uni021A" unicode="&#x21a;" horiz-adv-x="432" 
d="M34 700h363v-108h-126v-592h-111v592h-126v108zM164 -58h103v-102l-38 -103h-39l18 103h-44v102z" />
    <glyph glyph-name="U" unicode="U" 
d="M156 700l1 -464c0 -102 37 -137 90 -137c51 0 90 35 90 137v464h111v-472c0 -185 -104 -237 -202 -237c-100 0 -201 53 -201 237v472h111z" />
    <glyph glyph-name="Uacute" unicode="&#xda;" 
d="M220 912h109l-91 -151h-75zM157 236l-1 464h-111v-472c0 -184 101 -237 201 -237c98 0 202 52 202 237v472h-111v-464c0 -102 -39 -137 -90 -137c-53 0 -90 35 -90 137z" />
    <glyph glyph-name="Ucaron" unicode="&#x1d3;" 
d="M312 904h73l-87 -148h-102l-87 148h71l66 -72zM158 236l-1 464h-111v-472c0 -184 101 -237 201 -237c98 0 202 52 202 237v472h-111v-464c0 -102 -39 -137 -90 -137c-53 0 -90 35 -90 137z" />
    <glyph glyph-name="Ucircumflex" unicode="&#xdb;" 
d="M195 904h100l87 -148h-71l-66 72l-66 -72h-71zM155 236l-1 464h-111v-472c0 -184 101 -237 201 -237c98 0 202 52 202 237v472h-111v-464c0 -102 -39 -137 -90 -137c-53 0 -90 35 -90 137z" />
    <glyph glyph-name="Udieresis" unicode="&#xdc;" 
d="M127 806v94h95v-94h-95zM270 806v94h95v-94h-95zM156 236l-1 464h-111v-472c0 -184 101 -237 201 -237c98 0 202 52 202 237v472h-111v-464c0 -102 -39 -137 -90 -137c-53 0 -90 35 -90 137z" />
    <glyph glyph-name="Udieresisacute" unicode="&#x1d7;" 
d="M223 1019h109l-91 -151h-75zM127 835h95v-94h-95v94zM270 835h95v-94h-95v94zM337 700h112v-472c0 -185 -104 -237 -202 -237c-100 0 -201 53 -201 237v472h111v-464c0 -102 37 -137 90 -137c51 0 90 35 90 137v464z" />
    <glyph glyph-name="Udieresiscaron" unicode="&#x1d9;" 
d="M312 1009h73l-87 -148h-102l-87 148h71l66 -72zM129 742v94h95v-94h-95zM272 742v94h95v-94h-95zM158 237l-1 464h-111v-472c0 -184 101 -237 201 -237c98 0 202 52 202 237v472h-111v-464c0 -102 -39 -137 -90 -137c-53 0 -90 35 -90 137z" />
    <glyph glyph-name="Udieresisgrave" unicode="&#x1db;" 
d="M163 1018h109l57 -151h-75zM127 741v94h95v-94h-95zM270 741v94h95v-94h-95zM156 236l-1 464h-111v-472c0 -184 101 -237 201 -237c98 0 202 52 202 237v472h-111v-464c0 -102 -39 -137 -90 -137c-53 0 -90 35 -90 137z" />
    <glyph glyph-name="Udieresismacron" unicode="&#x1d5;" 
d="M107 991h278v-85h-278v85zM127 742v94h95v-94h-95zM270 742v94h95v-94h-95zM156 237l-1 464h-111v-472c0 -184 101 -237 201 -237c98 0 202 52 202 237v472h-111v-464c0 -102 -39 -137 -90 -137c-53 0 -90 35 -90 137z" />
    <glyph glyph-name="Ugrave" unicode="&#xd9;" 
d="M163 914h109l57 -151h-75zM157 236l-1 464h-111v-472c0 -184 101 -237 201 -237c98 0 202 52 202 237v472h-111v-464c0 -102 -39 -137 -90 -137c-53 0 -90 35 -90 137z" />
    <glyph glyph-name="Uhungarumlaut" unicode="&#x170;" 
d="M155 912h101l-91 -151h-67zM293 912h101l-91 -151h-67zM156 236l-1 464h-111v-472c0 -184 101 -237 201 -237c98 0 202 52 202 237v472h-111v-464c0 -102 -39 -137 -90 -137c-53 0 -90 35 -90 137z" />
    <glyph glyph-name="Umacron" unicode="&#x16a;" 
d="M107 900h278v-85h-278v85zM156 236l-1 464h-111v-472c0 -184 101 -237 201 -237c98 0 202 52 202 237v472h-111v-464c0 -102 -39 -137 -90 -137c-53 0 -90 35 -90 137z" />
    <glyph glyph-name="Uogonek" unicode="&#x172;" 
d="M337 700l112 -1v-472c0 -102 -35 -161 -81 -192l-25 -37c-18 -16 -46 -43 -43 -73c1 -21 16 -29 40 -30h12v-69h-13c-83 1 -116 30 -117 76c-1 41 26 71 44 90l-19 -1c-100 0 -201 53 -201 237v472h111v-464c0 -102 37 -137 90 -137c51 0 90 35 90 137v464z" />
    <glyph glyph-name="Uring" unicode="&#x16e;" 
d="M246 941c59 0 107 -48 107 -106c0 -59 -48 -107 -107 -107s-106 48 -106 107c0 58 47 106 106 106zM246 874c-22 0 -39 -18 -39 -39c0 -22 17 -40 39 -40s40 18 40 40c0 21 -18 39 -40 39zM157 236l-1 464h-111v-472c0 -184 101 -237 201 -237c98 0 202 52 202 237v472
h-111v-464c0 -102 -39 -137 -90 -137c-53 0 -90 35 -90 137z" />
    <glyph glyph-name="V" unicode="V" horiz-adv-x="519" 
d="M372 700h112l-154 -700h-143l-153 700h112l113 -524z" />
    <glyph glyph-name="W" unicode="W" horiz-adv-x="780" 
d="M634 700h111l-137 -700h-130l-89 430l-89 -430h-130l-136 700h112l97 -515l95 515h104l95 -515z" />
    <glyph glyph-name="Wacute" unicode="&#x1e82;" horiz-adv-x="780" 
d="M365 912h109l-91 -151h-75zM634 700h111l-137 -700h-130l-89 430l-89 -430h-130l-136 700h112l97 -515l95 515h104l95 -515z" />
    <glyph glyph-name="Wcircumflex" unicode="&#x174;" horiz-adv-x="780" 
d="M340 904h100l87 -148h-71l-66 72l-66 -72h-71zM632 700h111l-137 -700h-130l-89 430l-89 -430h-130l-136 700h112l97 -515l95 515h104l95 -515z" />
    <glyph glyph-name="Wdieresis" unicode="&#x1e84;" horiz-adv-x="780" 
d="M272 900h95v-94h-95v94zM415 900h95v-94h-95v94zM634 700h111l-137 -700h-130l-89 430l-89 -430h-130l-136 700h112l97 -515l95 515h104l95 -515z" />
    <glyph glyph-name="Wgrave" unicode="&#x1e80;" horiz-adv-x="780" 
d="M308 914h109l57 -151h-75zM634 700h111l-137 -700h-130l-89 430l-89 -430h-130l-136 700h112l97 -515l95 515h104l95 -515z" />
    <glyph glyph-name="X" unicode="X" horiz-adv-x="511" 
d="M471 700l-145 -343l148 -357h-115l-105 249l-106 -249h-115l147 357l-141 343h116l100 -242l100 242h116z" />
    <glyph glyph-name="Y" unicode="Y" horiz-adv-x="518" 
d="M368 700h115l-168 -423v-277h-115v276l-166 424h116l108 -297z" />
    <glyph glyph-name="Yacute" unicode="&#xdd;" horiz-adv-x="518" 
d="M233 912h109l-91 -151h-75zM367 700h115l-168 -423v-277h-115v276l-166 424h116l108 -297z" />
    <glyph glyph-name="Ycircumflex" unicode="&#x176;" horiz-adv-x="518" 
d="M208 904h100l87 -148h-71l-66 72l-66 -72h-71zM366 700h115l-168 -423v-277h-115v276l-166 424h116l108 -297z" />
    <glyph glyph-name="Ydieresis" unicode="&#x178;" horiz-adv-x="518" 
d="M140 806v94h95v-94h-95zM283 806v94h95v-94h-95zM367 700h115l-168 -423v-277h-115v276l-166 424h116l108 -297z" />
    <glyph glyph-name="Ygrave" unicode="&#x1ef2;" horiz-adv-x="518" 
d="M176 914h109l57 -151h-75zM367 700h115l-168 -423v-277h-115v276l-166 424h116l108 -297z" />
    <glyph glyph-name="Z" unicode="Z" horiz-adv-x="473" 
d="M152 108h289v-108h-410v90l285 502h-277v108h397v-93z" />
    <glyph glyph-name="Zacute" unicode="&#x179;" horiz-adv-x="473" 
d="M210 912h109l-91 -151h-75zM39 700h397v-93l-284 -499h289v-108h-410v90l285 502h-277v108z" />
    <glyph glyph-name="Zcaron" unicode="&#x17d;" horiz-adv-x="473" 
d="M303 904h73l-87 -148h-102l-87 148h71l66 -72zM41 700h397v-93l-284 -499h289v-108h-410v90l285 502h-277v108z" />
    <glyph glyph-name="Zdotaccent" unicode="&#x17b;" horiz-adv-x="473" 
d="M189 900h95v-94h-95v94zM39 700h397v-93l-284 -499h289v-108h-410v90l285 502h-277v108z" />
    <glyph glyph-name="a" unicode="a" horiz-adv-x="388" 
d="M285 500l66 1v-500h-66l-11 51c-24 -41 -63 -59 -109 -59c-63 0 -134 42 -134 176v165c0 134 71 176 134 176c45 0 84 -18 108 -58zM125 287v-72c1 -109 25 -138 67 -138s66 29 65 138v72c0 110 -26 138 -66 138s-66 -28 -66 -138z" />
    <glyph glyph-name="aacute" unicode="&#xe1;" horiz-adv-x="388" 
d="M168 712h109l-91 -151h-75zM285 500l66 1v-500h-66l-11 51c-24 -41 -63 -59 -109 -59c-63 0 -134 42 -134 176v165c0 134 71 176 134 176c45 0 84 -18 108 -58zM125 287v-72c1 -109 25 -138 67 -138s66 29 65 138v72c0 110 -26 138 -66 138s-66 -28 -66 -138z" />
    <glyph glyph-name="abreve" unicode="&#x103;" horiz-adv-x="388" 
d="M246 700h79c-6 -68 -63 -121 -132 -121s-126 53 -132 121h80c6 -23 27 -40 52 -40c26 0 47 17 53 40zM30 168v166c0 134 71 176 134 176c45 0 84 -18 108 -58l12 48h66v-500h-66l-11 51c-24 -41 -63 -59 -109 -59c-63 0 -134 42 -134 176zM256 216v72
c0 110 -26 138 -66 138s-66 -28 -66 -138v-72c1 -109 25 -138 67 -138s66 29 65 138z" />
    <glyph glyph-name="acaron" unicode="&#x1ce;" horiz-adv-x="388" 
d="M261 704h73l-87 -148h-102l-87 148h71l66 -72zM287 500l66 1v-500h-66l-11 51c-24 -41 -63 -59 -109 -59c-63 0 -134 42 -134 176v165c0 134 71 176 134 176c45 0 84 -18 108 -58zM127 287v-72c1 -109 25 -138 67 -138s66 29 65 138v72c0 110 -26 138 -66 138
s-66 -28 -66 -138z" />
    <glyph glyph-name="acircumflex" unicode="&#xe2;" horiz-adv-x="388" 
d="M143 704h100l87 -148h-71l-66 72l-66 -72h-71zM283 500l66 1v-500h-66l-11 51c-24 -41 -63 -59 -109 -59c-63 0 -134 42 -134 176v165c0 134 71 176 134 176c45 0 84 -18 108 -58zM123 287v-72c1 -109 25 -138 67 -138s66 29 65 138v72c0 110 -26 138 -66 138
s-66 -28 -66 -138z" />
    <glyph glyph-name="adieresis" unicode="&#xe4;" horiz-adv-x="388" 
d="M76 606v94h95v-94h-95zM219 606v94h95v-94h-95zM286 500l66 1v-500h-66l-11 51c-24 -41 -63 -59 -109 -59c-63 0 -134 42 -134 176v165c0 134 71 176 134 176c45 0 84 -18 108 -58zM126 287v-72c1 -109 25 -138 67 -138s66 29 65 138v72c0 110 -26 138 -66 138
s-66 -28 -66 -138z" />
    <glyph glyph-name="agrave" unicode="&#xe0;" horiz-adv-x="388" 
d="M111 714h109l57 -151h-75zM31 168v166c0 134 71 176 134 176c45 0 84 -18 108 -58l12 48h66v-500h-66l-11 51c-24 -41 -63 -59 -109 -59c-63 0 -134 42 -134 176zM257 216v72c0 110 -26 138 -66 138s-66 -28 -66 -138v-72c1 -109 25 -138 67 -138s66 29 65 138z" />
    <glyph glyph-name="amacron" unicode="&#x101;" horiz-adv-x="388" 
d="M56 700h278v-85h-278v85zM286 500l66 1v-500h-66l-11 51c-24 -41 -63 -59 -109 -59c-63 0 -134 42 -134 176v165c0 134 71 176 134 176c45 0 84 -18 108 -58zM126 287v-72c1 -109 25 -138 67 -138s66 29 65 138v72c0 110 -26 138 -66 138s-66 -28 -66 -138z" />
    <glyph glyph-name="aogonek" unicode="&#x105;" horiz-adv-x="388" 
d="M32 168l1 165c0 134 71 176 134 176c45 0 84 -18 108 -58l12 48h66v-500c-22 -22 -46 -48 -43 -76c2 -21 17 -28 41 -29h9v-69h-9c-82 1 -117 28 -120 73c-2 48 35 83 55 102l-11 51c-24 -41 -63 -59 -109 -59c-63 0 -134 42 -134 176zM259 215v72c0 110 -26 138 -66 138
s-66 -28 -66 -138v-72c1 -109 25 -138 67 -138s66 29 65 138z" />
    <glyph glyph-name="aring" unicode="&#xe5;" horiz-adv-x="388" 
d="M194 741c59 0 107 -48 107 -106c0 -59 -48 -107 -107 -107s-106 48 -106 107c0 58 47 106 106 106zM194 674c-22 0 -39 -18 -39 -39c0 -22 17 -40 39 -40s40 18 40 40c0 21 -18 39 -40 39zM285 500l66 1v-500h-66l-11 51c-24 -41 -63 -59 -109 -59
c-63 0 -134 42 -134 176v165c0 134 71 176 134 176c45 0 84 -18 108 -58zM125 287v-72c1 -109 25 -138 67 -138s66 29 65 138v72c0 110 -26 138 -66 138s-66 -28 -66 -138z" />
    <glyph glyph-name="atilde" unicode="&#xe3;" horiz-adv-x="388" 
d="M272 704l69 2c0 -67 -15 -141 -83 -141c-24 0 -40 7 -72 34c-20 18 -31 20 -43 19c-19 -1 -26 -19 -26 -54h-69c0 67 15 141 83 141c28 0 45 -13 72 -35c21 -20 35 -21 46 -18c18 2 23 19 23 52zM284 502l66 1v-500h-66l-11 51c-24 -41 -63 -59 -109 -59
c-63 0 -134 42 -134 176v165c0 134 71 176 134 176c45 0 84 -18 108 -58zM124 289v-72c1 -109 25 -138 67 -138s66 29 65 138v72c0 110 -26 138 -66 138s-66 -28 -66 -138z" />
    <glyph glyph-name="ae" unicode="&#xe6;" horiz-adv-x="643" 
d="M32 168v165c0 134 71 176 134 176c45 0 84 -18 108 -58l12 48h66v-34c26 31 64 43 101 43c74 0 159 -41 159 -176v-118h-225v-30c0 -85 26 -108 66 -108c34 0 63 19 66 88h93c-1 -132 -85 -172 -159 -172c-37 0 -75 12 -101 43v-35h-66l-11 51c-24 -41 -63 -59 -109 -59
c-63 0 -134 42 -134 176zM258 215v72c0 110 -26 138 -66 138s-66 -28 -66 -138v-72c1 -109 25 -138 67 -138s66 29 65 138zM518 285v37c-1 80 -31 102 -66 102c-37 0 -65 -21 -65 -102v-37h131z" />
    <glyph glyph-name="b" unicode="b" horiz-adv-x="388" 
d="M131 700l-1 -238c22 33 57 47 95 47c63 0 131 -42 131 -176v-165c0 -134 -68 -176 -131 -176c-46 0 -86 18 -110 60l-12 -52h-66v700h94zM263 214v72c0 110 -26 138 -66 138s-66 -28 -66 -138v-72c-1 -109 23 -138 65 -138s66 29 67 138z" />
    <glyph glyph-name="c" unicode="c" horiz-adv-x="379" 
d="M32 168v166c0 134 84 176 159 176c74 0 156 -40 158 -171v-23h-91c-2 85 -31 108 -67 108c-41 0 -66 -28 -66 -138v-72c1 -109 24 -138 67 -138c38 0 65 24 66 109h91v-22c-2 -131 -84 -171 -158 -171c-75 0 -159 42 -159 176z" />
    <glyph glyph-name="cacute" unicode="&#x107;" horiz-adv-x="379" 
d="M164 712h109l-91 -151h-75zM32 168v166c0 134 84 176 159 176c74 0 156 -40 158 -171v-23h-91c-2 85 -31 108 -67 108c-41 0 -66 -28 -66 -138v-72c1 -109 24 -138 67 -138c38 0 65 24 66 109h91v-22c-2 -131 -84 -171 -158 -171c-75 0 -159 42 -159 176z" />
    <glyph glyph-name="ccaron" unicode="&#x10d;" horiz-adv-x="379" 
d="M256 704h73l-87 -148h-102l-87 148h71l66 -72zM33 168v166c0 134 84 176 159 176c74 0 156 -40 158 -171v-23h-91c-2 85 -31 108 -67 108c-41 0 -66 -28 -66 -138v-72c1 -109 24 -138 67 -138c38 0 65 24 66 109h91v-22c-2 -131 -84 -171 -158 -171
c-75 0 -159 42 -159 176z" />
    <glyph glyph-name="ccedilla" unicode="&#xe7;" horiz-adv-x="379" 
d="M32 168l-2 166c0 134 84 176 159 176c74 0 156 -40 158 -170v-23h-91c-2 85 -31 108 -67 108c-41 0 -66 -28 -66 -138v-72c1 -109 24 -138 67 -138c38 0 65 24 66 109h91v-22c-1 -90 -39 -137 -87 -158v-40c-1 -97 -28 -138 -124 -139h-18v69h18c37 2 47 23 48 67v33
c-9 -1 -18 0 -27 1c-64 10 -125 56 -125 171z" />
    <glyph glyph-name="cdotaccent" unicode="&#x10b;" horiz-adv-x="379" 
d="M143 700h95v-94h-95v94zM32 168v166c0 134 84 176 159 176c74 0 156 -40 158 -171v-23h-91c-2 85 -31 108 -67 108c-41 0 -66 -28 -66 -138v-72c1 -109 24 -138 67 -138c38 0 65 24 66 109h91v-22c-2 -131 -84 -171 -158 -171c-75 0 -159 42 -159 176z" />
    <glyph glyph-name="d" unicode="d" horiz-adv-x="388" 
d="M258 700h93v-700h-66l-12 52c-24 -42 -64 -60 -110 -60c-63 0 -131 42 -131 176v165c0 134 68 176 131 176c38 0 73 -14 95 -47v238zM125 286v-72c1 -109 25 -138 67 -138s66 29 65 138v72c0 110 -26 138 -66 138s-66 -28 -66 -138z" />
    <glyph glyph-name="eth" unicode="&#xf0;" horiz-adv-x="463" 
d="M414 628l-70 -44c6 -13 10 -30 10 -51v-367c-2 -132 -84 -176 -159 -176s-160 41 -160 176v165c0 135 85 176 160 176c26 0 51 -12 66 -37v52c-1 79 -29 101 -67 101c-29 0 -52 -15 -62 -65h-93l1 10c10 107 85 141 152 141c41 0 84 -13 115 -46l63 37zM260 213v73
c0 105 -25 137 -66 137c-39 0 -67 -28 -67 -138v-72c-1 -109 25 -138 66 -138c43 0 66 29 67 138z" />
    <glyph glyph-name="dcaron" unicode="&#x10f;" horiz-adv-x="531" 
d="M258 462l-1 238h94v-700h-66l-12 52c-24 -42 -64 -60 -110 -60c-63 0 -131 42 -131 176v165c0 134 68 176 131 176c38 0 73 -14 95 -47zM391 700h103v-102l-38 -103h-39l18 103h-44v102zM124 286v-72c1 -109 25 -138 67 -138s66 29 65 138v72c0 110 -26 138 -66 138
s-66 -28 -66 -138z" />
    <glyph glyph-name="dcroat" unicode="&#x111;" horiz-adv-x="414" 
d="M418 650l-1 -84h-66v-566h-66l-12 52c-24 -42 -64 -60 -110 -60c-63 0 -131 42 -131 176v165c0 134 68 176 131 176c38 0 73 -14 95 -47v104h-75v84h75v50h94v-50h66zM125 286v-72c1 -109 25 -138 67 -138s66 29 65 138v72c0 110 -26 138 -66 138s-66 -28 -66 -138z" />
    <glyph glyph-name="e" unicode="e" horiz-adv-x="381" 
d="M32 168v164c0 134 84 176 159 176c74 0 159 -41 159 -176v-118h-225v-30c0 -85 26 -108 66 -108c34 0 63 19 66 88h93c-1 -132 -85 -172 -159 -172c-75 0 -159 42 -159 176zM257 284v36c-1 80 -31 102 -66 102c-37 0 -65 -21 -65 -102v-36h131z" />
    <glyph glyph-name="eacute" unicode="&#xe9;" horiz-adv-x="381" 
d="M164 712h109l-91 -151h-75zM31 168v164c0 134 84 176 159 176c74 0 159 -41 159 -176v-118h-225v-30c0 -85 26 -108 66 -108c34 0 63 19 66 88h93c-1 -132 -85 -172 -159 -172c-75 0 -159 42 -159 176zM256 284v36c-1 80 -31 102 -66 102c-37 0 -65 -21 -65 -102v-36h131
z" />
    <glyph glyph-name="ecaron" unicode="&#x11b;" horiz-adv-x="381" 
d="M257 704h73l-87 -148h-102l-87 148h71l66 -72zM34 168v164c0 134 84 176 159 176c74 0 159 -41 159 -176v-118h-225v-30c0 -85 26 -108 66 -108c34 0 63 19 66 88h93c-1 -132 -85 -172 -159 -172c-75 0 -159 42 -159 176zM259 284v36c-1 80 -31 102 -66 102
c-37 0 -65 -21 -65 -102v-36h131z" />
    <glyph glyph-name="ecircumflex" unicode="&#xea;" horiz-adv-x="381" 
d="M140 704h100l87 -148h-71l-66 72l-66 -72h-71zM30 168v164c0 134 84 176 159 176c74 0 159 -41 159 -176v-118h-225v-30c0 -85 26 -108 66 -108c34 0 63 19 66 88h93c-1 -132 -85 -172 -159 -172c-75 0 -159 42 -159 176zM255 284v36c-1 80 -31 102 -66 102
c-37 0 -65 -21 -65 -102v-36h131z" />
    <glyph glyph-name="edieresis" unicode="&#xeb;" horiz-adv-x="381" 
d="M72 606v94h95v-94h-95zM215 606v94h95v-94h-95zM32 168v164c0 134 84 176 159 176c74 0 159 -41 159 -176v-118h-225v-30c0 -85 26 -108 66 -108c34 0 63 19 66 88h93c-1 -132 -85 -172 -159 -172c-75 0 -159 42 -159 176zM257 284v36c-1 80 -31 102 -66 102
c-37 0 -65 -21 -65 -102v-36h131z" />
    <glyph glyph-name="edotaccent" unicode="&#x117;" horiz-adv-x="381" 
d="M143 607v94h95v-94h-95zM31 169v164c0 134 84 176 159 176c74 0 159 -41 159 -176v-118h-225v-30c0 -85 26 -108 66 -108c34 0 63 19 66 88h93c-1 -132 -85 -172 -159 -172c-75 0 -159 42 -159 176zM256 285v36c-1 80 -31 102 -66 102c-37 0 -65 -21 -65 -102v-36h131z
" />
    <glyph glyph-name="egrave" unicode="&#xe8;" horiz-adv-x="381" 
d="M108 714h109l57 -151h-75zM32 168v164c0 134 84 176 159 176c74 0 159 -41 159 -176v-118h-225v-30c0 -85 26 -108 66 -108c34 0 63 19 66 88h93c-1 -132 -85 -172 -159 -172c-75 0 -159 42 -159 176zM257 284v36c-1 80 -31 102 -66 102c-37 0 -65 -21 -65 -102v-36h131z
" />
    <glyph glyph-name="emacron" unicode="&#x113;" horiz-adv-x="381" 
d="M52 700h278v-85h-278v85zM32 168v164c0 134 84 176 159 176c74 0 159 -41 159 -176v-118h-225v-30c0 -85 26 -108 66 -108c34 0 63 19 66 88h93c-1 -132 -85 -172 -159 -172c-75 0 -159 42 -159 176zM257 284v36c-1 80 -31 102 -66 102c-37 0 -65 -21 -65 -102v-36h131z
" />
    <glyph glyph-name="eogonek" unicode="&#x119;" horiz-adv-x="381" 
d="M32 168l3 163c0 134 84 176 159 176c74 0 159 -41 159 -176v-118h-225v-30c0 -85 26 -108 65 -108c34 0 63 19 66 87h93c-1 -79 -31 -124 -71 -147l-6 -3c-20 -18 -42 -39 -40 -66c1 -22 16 -30 40 -31h12v-69h-14c-77 1 -112 27 -117 71c-2 34 18 57 34 75
c-7 0 -14 1 -21 2c-69 7 -137 52 -137 174zM260 283v36c-1 80 -31 102 -66 102c-37 0 -65 -21 -66 -102v-36h132z" />
    <glyph glyph-name="f" unicode="f" horiz-adv-x="300" 
d="M232 709h41v-85h-14c-53 0 -71 -19 -72 -108v-16h85v-85h-85v-415h-94v415h-62v85h62v33c0 142 60 175 139 176z" />
    <glyph glyph-name="g" unicode="g" horiz-adv-x="388" 
d="M32 176v158c0 134 68 176 131 176c46 0 86 -18 110 -59l12 51h67v-498c-1 -133 -85 -175 -160 -175c-64 0 -138 31 -155 126h96c11 -32 34 -41 59 -41c38 0 66 21 66 98v37c-22 -34 -57 -48 -95 -48c-63 0 -131 41 -131 175zM258 219l1 68c1 109 -24 138 -65 138
s-66 -29 -67 -138v-68c0 -109 25 -138 66 -138c40 0 65 29 65 138z" />
    <glyph glyph-name="gbreve" unicode="&#x11f;" horiz-adv-x="388" 
d="M246 700h79c-6 -68 -63 -121 -132 -121s-126 53 -132 121h80c6 -23 27 -40 52 -40c26 0 47 17 53 40zM30 176v158c0 134 68 176 131 176c46 0 86 -18 110 -59l12 51h67v-498c-1 -133 -85 -175 -160 -175c-64 0 -138 31 -155 126h96c11 -32 34 -41 59 -41
c38 0 66 21 66 97v38c-22 -34 -57 -48 -95 -48c-63 0 -131 41 -131 175zM256 219l1 68c1 109 -24 138 -65 138s-66 -29 -67 -138v-68c0 -109 25 -138 66 -138c40 0 65 29 65 138z" />
    <glyph glyph-name="gcommaaccent" unicode="&#x123;" horiz-adv-x="387" 
d="M180 791h36l-16 -94h40v-93h-95v93zM32 176v158c0 134 68 176 131 176c46 0 86 -18 110 -59l12 51h67v-498c-1 -133 -85 -175 -160 -175c-64 0 -138 31 -155 126h96c11 -32 34 -41 59 -41c38 0 66 21 66 96v39c-22 -34 -57 -48 -95 -48c-63 0 -131 41 -131 175zM258 219
l1 68c1 109 -24 138 -65 138s-66 -29 -67 -138v-68c0 -109 25 -138 66 -138c40 0 65 29 65 138z" />
    <glyph glyph-name="gdotaccent" unicode="&#x121;" horiz-adv-x="388" 
d="M147 700h95v-94h-95v94zM32 176l-1 158c0 134 68 176 131 176c46 0 86 -18 110 -59l12 51h67v-498c-1 -133 -85 -175 -160 -175c-64 0 -138 31 -155 126h96c11 -32 34 -41 59 -41c38 0 66 20 67 95v40c-22 -34 -57 -48 -95 -48c-63 0 -131 41 -131 175zM257 219l1 68
c1 109 -24 138 -65 138s-66 -29 -67 -138v-68c0 -109 25 -138 66 -138c40 0 65 29 65 138z" />
    <glyph glyph-name="h" unicode="h" horiz-adv-x="393" 
d="M133 700l-1 -239c22 34 57 49 96 49c63 0 131 -42 131 -176v-333h-94v286c0 110 -26 138 -66 138c-38 0 -66 -24 -66 -114v-311h-94v700h94z" />
    <glyph glyph-name="hbar" unicode="&#x127;" horiz-adv-x="434" 
d="M174 560v-98c22 34 57 49 95 49c63 0 131 -42 131 -176v-333h-94v286c0 110 -26 138 -66 138c-38 0 -66 -24 -66 -114v-311h-94v559h-86v85h86v56h94v-56h86v-85h-86z" />
    <glyph glyph-name="i" unicode="i" horiz-adv-x="180" 
d="M39 573v95h103v-95h-103zM44 0v500h94v-500h-94z" />
    <glyph glyph-name="dotlessi" unicode="&#x131;" horiz-adv-x="203" 
d="M55 0v500h94v-500h-94z" />
    <glyph glyph-name="iacute" unicode="&#xed;" horiz-adv-x="248" 
d="M93 712h109l-91 -151h-75zM55 0v500h94v-500h-94z" />
    <glyph glyph-name="icaron" unicode="&#x1d0;" horiz-adv-x="282" 
d="M208 704h73l-87 -148h-102l-87 148h71l66 -72zM97 0v500h94v-500h-94z" />
    <glyph glyph-name="icircumflex" unicode="&#xee;" horiz-adv-x="282" 
d="M90 704h100l87 -148h-71l-66 72l-66 -72h-71zM94 0v500h94v-500h-94z" />
    <glyph glyph-name="idieresis" unicode="&#xef;" horiz-adv-x="304" 
d="M33 606v94h95v-94h-95zM176 606v94h95v-94h-95zM108 0v500h94v-500h-94z" />
    <glyph glyph-name="igrave" unicode="&#xec;" horiz-adv-x="253" 
d="M48 714h109l57 -151h-75zM104 0v500h94v-500h-94z" />
    <glyph glyph-name="ij" unicode="&#x133;" horiz-adv-x="437" 
d="M39 668h103v-95h-103v95zM297 668h102v-94h-102v94zM43 501h94v-500h-94v500zM301 501h94v-497c0 -141 -60 -175 -138 -176h-41v85h13c55 1 72 22 72 117v471z" />
    <glyph glyph-name="imacron" unicode="&#x12b;" horiz-adv-x="270" 
d="M-4 700h278v-85h-278v85zM90 0v500h94v-500h-94z" />
    <glyph glyph-name="iogonek" unicode="&#x12f;" horiz-adv-x="209" 
d="M54 607v94h95v-94h-95zM148 501l1 -499c-21 -21 -46 -44 -45 -72c1 -23 16 -32 42 -33h11v-69h-14c-82 1 -115 30 -117 76c-1 47 35 79 52 97h-23v500h93z" />
    <glyph glyph-name="j" unicode="j" horiz-adv-x="257" 
d="M118 667h102v-94h-102v94zM122 500h94v-497c0 -143 -61 -176 -141 -176h-38v85h13c55 1 72 22 72 117v471z" />
    <glyph glyph-name="k" unicode="k" horiz-adv-x="376" 
d="M348 0h-97l-120 207v-207h-94v700h94v-393l112 193h98l-127 -243z" />
    <glyph glyph-name="kcommaaccent" unicode="&#x137;" horiz-adv-x="376" 
d="M214 257l135 -257h-98l-120 207v-207h-94v700h94v-393l112 193h98zM138 -160v102h103v-102l-38 -103h-39l18 103h-44z" />
    <glyph glyph-name="l" unicode="l" horiz-adv-x="167" 
d="M39 0v700h94v-700h-94z" />
    <glyph glyph-name="lacute" unicode="&#x13a;" horiz-adv-x="211" 
d="M84 901h109l-91 -151h-75zM39 0v700h94v-700h-94z" />
    <glyph glyph-name="lcaron" unicode="&#x13e;" horiz-adv-x="292" 
d="M39 0v700h94v-700h-94zM178 700h103v-102l-38 -103h-39l18 103h-44v102z" />
    <glyph glyph-name="lcommaaccent" unicode="&#x13c;" horiz-adv-x="167" 
d="M133 700v-700h-94v700h94zM32 -58h103v-102l-38 -103h-39l18 103h-44v102z" />
    <glyph glyph-name="ldot" unicode="&#x140;" horiz-adv-x="318" 
d="M39 0v700h94v-700h-94zM192 298v102h103v-102h-103z" />
    <glyph glyph-name="lslash" unicode="&#x142;" horiz-adv-x="318" 
d="M301 500v-109l-94 -45v-346h-94v320l-93 -44v110l93 44v270h94v-245z" />
    <glyph glyph-name="m" unicode="m" horiz-adv-x="615" 
d="M104 500l15 -51c24 41 63 60 108 60c43 0 87 -19 109 -73c23 50 66 73 116 73c63 0 131 -42 131 -176v-333h-94v286c0 110 -26 138 -66 138c-34 0 -61 -18 -65 -83v-341h-94v286c0 110 -26 138 -66 138c-37 0 -66 -22 -66 -105v-319h-94v500h66z" />
    <glyph glyph-name="n" unicode="n" horiz-adv-x="391" 
d="M104 500l14 -50c24 41 63 60 109 60c63 0 131 -42 131 -176v-333h-94v286c0 110 -26 138 -66 138c-38 0 -66 -24 -66 -114v-311h-94v500h66z" />
    <glyph glyph-name="nacute" unicode="&#x144;" horiz-adv-x="391" 
d="M169 712h109l-91 -151h-75zM103 500l14 -50c24 41 63 60 109 60c63 0 131 -42 131 -176v-333h-94v286c0 110 -26 138 -66 138c-38 0 -66 -24 -66 -114v-311h-94v500h66z" />
    <glyph glyph-name="ncaron" unicode="&#x148;" horiz-adv-x="391" 
d="M262 704h73l-87 -148h-102l-87 148h71l66 -72zM105 500l14 -50c24 41 63 60 109 60c63 0 131 -42 131 -176v-333h-94v286c0 110 -26 138 -66 138c-38 0 -66 -24 -66 -114v-311h-94v500h66z" />
    <glyph glyph-name="ncommaaccent" unicode="&#x146;" horiz-adv-x="391" 
d="M104 500l14 -50c24 41 63 60 109 60c63 0 131 -42 131 -176v-333h-94v286c0 110 -26 138 -66 138c-38 0 -66 -24 -66 -114v-311h-94v500h66zM145 -159v102h103v-102l-38 -103h-39l18 103h-44z" />
    <glyph glyph-name="eng" unicode="&#x14b;" horiz-adv-x="398" 
d="M106 500l15 -50c24 41 63 60 109 60c63 0 131 -42 131 -176v-330c0 -143 -61 -176 -141 -177h-38v85h11c53 1 72 16 73 104v287c0 97 -28 122 -66 122s-66 -24 -66 -114v-311h-94v500h66z" />
    <glyph glyph-name="ntilde" unicode="&#xf1;" horiz-adv-x="391" 
d="M273 704l69 2c0 -67 -15 -141 -83 -141c-24 0 -40 7 -72 34c-20 18 -31 20 -43 19c-19 -1 -26 -19 -26 -54h-69c0 67 15 141 83 141c28 0 45 -13 72 -35c21 -20 35 -21 46 -18c18 2 23 19 23 52zM103 502l14 -50c24 41 63 60 109 60c63 0 131 -42 131 -176v-333h-94v286
c0 110 -26 138 -66 138c-38 0 -66 -24 -66 -114v-311h-94v500h66z" />
    <glyph glyph-name="o" unicode="o" horiz-adv-x="383" 
d="M32 168v165c0 134 84 176 159 176s160 -41 160 -176v-165c0 -135 -85 -176 -160 -176s-159 42 -159 176zM258 215v72c0 110 -28 138 -67 138c-41 0 -66 -28 -66 -138v-72c1 -109 24 -138 67 -138c41 0 67 29 66 138z" />
    <glyph glyph-name="oacute" unicode="&#xf3;" horiz-adv-x="383" 
d="M166 712h109l-91 -151h-75zM32 168v165c0 134 84 176 159 176s160 -41 160 -176v-165c0 -135 -85 -176 -160 -176s-159 42 -159 176zM258 215v72c0 110 -28 138 -67 138c-41 0 -66 -28 -66 -138v-72c1 -109 24 -138 67 -138c41 0 67 29 66 138z" />
    <glyph glyph-name="ocaron" unicode="&#x1d2;" horiz-adv-x="383" 
d="M258 704h73l-87 -148h-102l-87 148h71l66 -72zM33 168v165c0 134 84 176 159 176s160 -41 160 -176v-165c0 -135 -85 -176 -160 -176s-159 42 -159 176zM259 215v72c0 110 -28 138 -67 138c-41 0 -66 -28 -66 -138v-72c1 -109 24 -138 67 -138c41 0 67 29 66 138z" />
    <glyph glyph-name="ocircumflex" unicode="&#xf4;" horiz-adv-x="383" 
d="M141 704h100l87 -148h-71l-66 72l-66 -72h-71zM30 168v165c0 134 84 176 159 176s160 -41 160 -176v-165c0 -135 -85 -176 -160 -176s-159 42 -159 176zM256 215v72c0 110 -28 138 -67 138c-41 0 -66 -28 -66 -138v-72c1 -109 24 -138 67 -138c41 0 67 29 66 138z" />
    <glyph glyph-name="odieresis" unicode="&#xf6;" horiz-adv-x="383" 
d="M73 606v94h95v-94h-95zM216 606v94h95v-94h-95zM31 168v165c0 134 84 176 159 176s160 -41 160 -176v-165c0 -135 -85 -176 -160 -176s-159 42 -159 176zM257 215v72c0 110 -28 138 -67 138c-41 0 -66 -28 -66 -138v-72c1 -109 24 -138 67 -138c41 0 67 29 66 138z" />
    <glyph glyph-name="ograve" unicode="&#xf2;" horiz-adv-x="383" 
d="M109 714h109l57 -151h-75zM32 168v165c0 134 84 176 159 176s160 -41 160 -176v-165c0 -135 -85 -176 -160 -176s-159 42 -159 176zM258 215v72c0 110 -28 138 -67 138c-41 0 -66 -28 -66 -138v-72c1 -109 24 -138 67 -138c41 0 67 29 66 138z" />
    <glyph glyph-name="ohungarumlaut" unicode="&#x151;" horiz-adv-x="413" 
d="M122 712h101l-91 -151h-67zM260 712h101l-91 -151h-67zM31 168v165c0 134 84 176 159 176s160 -41 160 -176v-165c0 -135 -85 -176 -160 -176s-159 42 -159 176zM257 215v72c0 110 -28 138 -67 138c-41 0 -66 -28 -66 -138v-72c1 -109 24 -138 67 -138c41 0 67 29 66 138
z" />
    <glyph glyph-name="omacron" unicode="&#x14d;" horiz-adv-x="383" 
d="M53 700h278v-85h-278v85zM32 168v165c0 134 84 176 159 176s160 -41 160 -176v-165c0 -135 -85 -176 -160 -176s-159 42 -159 176zM258 215v72c0 110 -28 138 -67 138c-41 0 -66 -28 -66 -138v-72c1 -109 24 -138 67 -138c41 0 67 29 66 138z" />
    <glyph glyph-name="oslash" unicode="&#xf8;" horiz-adv-x="414" 
d="M350 550l-29 -78c30 -27 50 -71 50 -137v-165c0 -135 -85 -176 -160 -176c-21 0 -42 3 -62 10l-19 -53h-55l29 79c-31 27 -52 71 -52 138v165c0 134 84 176 159 176c22 0 44 -3 65 -11l19 52h55zM145 288l2 -71c0 -25 1 -46 3 -63l96 261c-10 8 -22 11 -35 11
c-41 0 -66 -28 -66 -138zM276 346l-95 -259c9 -6 20 -8 32 -8c41 0 67 29 66 138v72c0 22 -1 41 -3 57z" />
    <glyph glyph-name="otilde" unicode="&#xf5;" horiz-adv-x="383" 
d="M270 704l69 2c0 -67 -15 -141 -83 -141c-24 0 -40 7 -72 34c-20 18 -31 20 -43 19c-19 -1 -26 -19 -26 -54h-69c0 67 15 141 83 141c28 0 45 -13 72 -35c21 -20 35 -21 46 -18c18 2 23 19 23 52zM32 170v165c0 134 84 176 159 176s160 -41 160 -176v-165
c0 -135 -85 -176 -160 -176s-159 42 -159 176zM258 217v72c0 110 -28 138 -67 138c-41 0 -66 -28 -66 -138v-72c1 -109 24 -138 67 -138c41 0 67 29 66 138z" />
    <glyph glyph-name="oe" unicode="&#x153;" horiz-adv-x="670" 
d="M57 168l-1 165c0 134 70 176 133 176c52 0 97 -21 120 -74c29 55 82 74 132 74c74 0 159 -41 159 -176v-118h-225v-32c0 -84 27 -107 66 -107c34 0 63 19 66 88h93c-1 -132 -85 -172 -159 -172c-50 0 -103 19 -132 74c-23 -53 -68 -74 -119 -74c-63 0 -133 42 -133 176z
M282 215v72c0 110 -28 138 -67 138c-41 0 -66 -28 -66 -138v-72c1 -109 24 -138 67 -138c41 0 67 29 66 138zM507 301l1 38c-1 69 -32 87 -65 87c-34 0 -64 -18 -66 -87v-38h130z" />
    <glyph glyph-name="p" unicode="p" horiz-adv-x="388" 
d="M103 500l13 -53c24 42 64 60 110 60c63 0 131 -42 131 -176v-165c0 -134 -68 -175 -131 -175c-38 0 -73 14 -95 47v-201h-94v663h66zM264 213v72c-1 109 -25 138 -67 138s-66 -29 -65 -138v-72c0 -110 26 -138 66 -138s66 28 66 138z" />
    <glyph glyph-name="thorn" unicode="&#xfe;" horiz-adv-x="388" 
d="M131 700v-241c22 34 57 48 95 48c63 0 131 -42 131 -176v-165c0 -134 -68 -175 -131 -175c-38 0 -73 14 -95 47v-201h-94v863h94zM264 212v72c-1 109 -25 138 -67 138s-66 -29 -65 -138v-72c0 -110 26 -138 66 -138s66 28 66 138z" />
    <glyph glyph-name="q" unicode="q" horiz-adv-x="388" 
d="M285 500l67 1v-663h-94v201c-22 -33 -57 -47 -95 -47c-63 0 -131 41 -131 175v165c0 134 68 176 131 176c46 0 86 -18 110 -60zM126 286v-72c0 -110 26 -138 66 -138s66 28 66 138v72c1 109 -23 138 -65 138s-66 -29 -67 -138z" />
    <glyph glyph-name="r" unicode="r" horiz-adv-x="274" 
d="M104 500l17 -64c29 48 76 73 127 73v-84c-70 0 -115 -38 -116 -140v-285h-94v500h66z" />
    <glyph glyph-name="racute" unicode="&#x155;" horiz-adv-x="274" 
d="M111 712h109l-91 -151h-75zM104 500l17 -64c29 48 76 73 127 73v-84c-70 0 -115 -38 -116 -140v-285h-94v500h66z" />
    <glyph glyph-name="rcaron" unicode="&#x159;" horiz-adv-x="274" 
d="M203 704h73l-87 -148h-102l-87 148h71l66 -72zM105 500l17 -64c29 48 76 73 127 73v-84c-70 0 -115 -38 -116 -140v-285h-94v500h66z" />
    <glyph glyph-name="rcommaaccent" unicode="&#x157;" horiz-adv-x="274" 
d="M104 500l17 -64c29 48 76 73 127 73v-84c-70 0 -115 -38 -116 -140v-285h-94v500h66zM89 -159v102h103v-102l-38 -103h-39l18 103h-44z" />
    <glyph glyph-name="s" unicode="s" horiz-adv-x="369" 
d="M119 155l-2 -11c2 -49 34 -66 66 -66c38 0 66 17 66 63c0 55 -32 74 -86 86c-62 11 -130 49 -130 138c0 102 69 144 152 144c79 0 151 -49 153 -147v-9h-94v8c-2 48 -30 64 -58 64c-33 0 -59 -14 -59 -54c1 -42 38 -57 67 -65c118 -25 150 -88 150 -161
c0 -108 -70 -153 -159 -153c-77 0 -158 48 -160 149v14h94z" />
    <glyph glyph-name="sacute" unicode="&#x15b;" horiz-adv-x="369" 
d="M158 712h109l-91 -151h-75zM118 154l-2 -11c2 -49 34 -66 66 -66c38 0 66 17 66 63c0 55 -32 74 -86 86c-62 11 -130 49 -130 138c0 102 69 144 152 144c79 0 151 -49 153 -147v-9h-94v8c-2 48 -30 64 -58 64c-33 0 -59 -14 -59 -54c1 -42 38 -57 67 -65
c118 -25 150 -88 150 -161c0 -108 -70 -153 -159 -153c-77 0 -158 48 -160 149v14h94z" />
    <glyph glyph-name="scaron" unicode="&#x161;" horiz-adv-x="369" 
d="M251 704h73l-87 -148h-102l-87 148h71l66 -72zM121 155l-2 -11c2 -49 34 -66 66 -66c38 0 66 17 66 63c0 55 -32 74 -86 86c-62 11 -130 49 -130 138c0 102 69 144 152 144c79 0 151 -49 153 -147v-9h-94v8c-2 48 -30 64 -58 64c-33 0 -59 -14 -59 -54
c1 -42 38 -57 67 -65c118 -25 150 -88 150 -161c0 -108 -70 -153 -159 -153c-77 0 -158 48 -160 149v14h94z" />
    <glyph glyph-name="scedilla" unicode="&#x15f;" horiz-adv-x="369" 
d="M119 155v-11c2 -49 34 -65 65 -65c38 0 66 17 66 63c0 55 -32 74 -86 86c-62 11 -130 49 -130 138c0 102 69 144 152 144c79 0 150 -49 153 -146v-11h-94v9c-2 47 -31 63 -59 63c-33 0 -59 -14 -59 -54c1 -42 38 -57 67 -65c118 -25 150 -88 150 -161
c0 -77 -36 -122 -89 -141v-40c-1 -96 -28 -136 -123 -138h-19v69h17c37 2 47 23 48 66v35c-9 0 -18 1 -27 2c-62 11 -124 55 -126 143v14h94z" />
    <glyph glyph-name="scommaaccent" unicode="&#x219;" horiz-adv-x="369" 
d="M119 155l-2 -11c2 -49 34 -66 66 -66c38 0 66 17 66 63c0 55 -32 74 -86 86c-62 11 -130 49 -130 138c0 102 69 144 152 144c79 0 151 -49 153 -147v-9h-94v8c-2 48 -30 64 -58 64c-33 0 -59 -14 -59 -54c1 -42 38 -57 67 -65c118 -25 150 -88 150 -161
c0 -108 -70 -153 -159 -153c-77 0 -158 48 -160 149v14h94zM131 -57h103v-102l-38 -103h-39l18 103h-44v102z" />
    <glyph glyph-name="germandbls" unicode="&#xdf;" horiz-adv-x="544" 
d="M262 705l23 1c118 0 226 -54 229 -195v-15c0 -67 -36 -117 -79 -135c50 -17 86 -71 86 -145v-12c-2 -150 -104 -203 -223 -203h-100v108h100c72 0 108 34 109 90v12c0 55 -35 94 -110 94h-45v109h40c65 0 105 28 106 83v10c0 57 -42 90 -115 90h-19
c-65 -1 -113 -30 -115 -93v-504h-114v496c0 155 108 207 227 209z" />
    <glyph glyph-name="t" unicode="t" horiz-adv-x="300" 
d="M185 416v-218c0 -102 17 -121 72 -122h13v-85h-38c-80 0 -141 31 -141 180v245h-62v84h62v153h94v-153h85v-84h-85z" />
    <glyph glyph-name="tbar" unicode="&#x167;" horiz-adv-x="300" 
d="M270 416h-86v-82h86v-84h-86v-69c1 -90 20 -105 71 -105h14v-85h-39c-79 0 -139 32 -139 180v79h-62v84h62v82h-62v84h62v153h94v-153h85v-84z" />
    <glyph glyph-name="tcaron" unicode="&#x165;" horiz-adv-x="393" 
d="M246 709h95v-93l-35 -94h-36l16 94h-40v93zM92 653l93 1v-153h85v-84h-85v-219c0 -101 16 -121 71 -122h14v-85h-39c-79 0 -139 32 -139 180v245h-62v84h62v153z" />
    <glyph glyph-name="tcedilla" unicode="&#x163;" horiz-adv-x="300" 
d="M92 653l93 1v-153h85v-84h-85v-219c0 -102 17 -121 72 -122h13v-84h-8c-12 0 -22 0 -37 1v-32c-4 -81 -34 -116 -122 -118h-19v69h18c37 2 47 23 48 68v32c-36 22 -58 67 -58 159v245h-62v84h62v153z" />
    <glyph glyph-name="uni021B" unicode="&#x21b;" horiz-adv-x="300" 
d="M185 416l-2 -218c0 -101 17 -120 72 -121h14v-85h-38c-79 0 -140 31 -140 179v245h-62v84h62v153h94v-153h85v-84h-85zM120 -57h103v-102l-38 -103h-39l18 103h-44v102z" />
    <glyph glyph-name="u" unicode="u" horiz-adv-x="387" 
d="M260 500l93 -1v-500h-66l-13 51c-24 -41 -63 -60 -109 -60c-63 0 -131 42 -131 176v333h94v-286c0 -110 26 -138 66 -138c38 0 66 24 66 114v311z" />
    <glyph glyph-name="uacute" unicode="&#xfa;" horiz-adv-x="387" 
d="M168 712h109l-91 -151h-75zM260 500l93 -1v-500h-66l-13 51c-24 -41 -63 -60 -109 -60c-63 0 -131 42 -131 176v333h94v-286c0 -110 26 -138 66 -138c38 0 66 24 66 114v311z" />
    <glyph glyph-name="ucaron" unicode="&#x1d4;" horiz-adv-x="387" 
d="M261 704h73l-87 -148h-102l-87 148h71l66 -72zM262 500l93 -1v-500h-66l-13 51c-24 -41 -63 -60 -109 -60c-63 0 -131 42 -131 176v333h94v-286c0 -110 26 -138 66 -138c38 0 66 24 66 114v311z" />
    <glyph glyph-name="ucircumflex" unicode="&#xfb;" horiz-adv-x="387" 
d="M143 704h100l87 -148h-71l-66 72l-66 -72h-71zM258 500l93 -1v-500h-66l-13 51c-24 -41 -63 -60 -109 -60c-63 0 -131 42 -131 176v333h94v-286c0 -110 26 -138 66 -138c38 0 66 24 66 114v311z" />
    <glyph glyph-name="udieresis" unicode="&#xfc;" horiz-adv-x="387" 
d="M75 606v94h95v-94h-95zM218 606v94h95v-94h-95zM260 500l93 -1v-500h-66l-13 51c-24 -41 -63 -60 -109 -60c-63 0 -131 42 -131 176v333h94v-286c0 -110 26 -138 66 -138c38 0 66 24 66 114v311z" />
    <glyph glyph-name="udieresisacute" unicode="&#x1d8;" horiz-adv-x="387" 
d="M168 817h109l-91 -151h-75zM75 549v94h95v-94h-95zM218 549v94h95v-94h-95zM260 501l93 -1v-500h-66l-13 51c-24 -41 -63 -60 -109 -60c-63 0 -131 42 -131 176v333h94v-286c0 -110 26 -138 66 -138c38 0 66 24 66 114v311z" />
    <glyph glyph-name="udieresiscaron" unicode="&#x1da;" horiz-adv-x="387" 
d="M261 807h73l-87 -148h-102l-87 148h71l66 -72zM78 548v94h95v-94h-95zM221 548v94h95v-94h-95zM263 500l93 -1v-500h-66l-13 51c-24 -41 -63 -60 -109 -60c-63 0 -131 42 -131 176v333h94v-286c0 -110 26 -138 66 -138c38 0 66 24 66 114v311z" />
    <glyph glyph-name="udieresisgrave" unicode="&#x1dc;" horiz-adv-x="387" 
d="M111 817h109l57 -151h-75zM75 549v94h95v-94h-95zM218 549v94h95v-94h-95zM260 501l93 -1v-500h-66l-13 51c-24 -41 -63 -60 -109 -60c-63 0 -131 42 -131 176v333h94v-286c0 -110 26 -138 66 -138c38 0 66 24 66 114v311z" />
    <glyph glyph-name="udieresismacron" unicode="&#x1d6;" horiz-adv-x="387" 
d="M55 790h278v-85h-278v85zM75 549v94h95v-94h-95zM218 549v94h95v-94h-95zM260 501l93 -1v-500h-66l-13 51c-24 -41 -63 -60 -109 -60c-63 0 -131 42 -131 176v333h94v-286c0 -110 26 -138 66 -138c38 0 66 24 66 114v311z" />
    <glyph glyph-name="ugrave" unicode="&#xf9;" horiz-adv-x="387" 
d="M111 714h109l57 -151h-75zM260 500l93 -1v-500h-66l-13 51c-24 -41 -63 -60 -109 -60c-63 0 -131 42 -131 176v333h94v-286c0 -110 26 -138 66 -138c38 0 66 24 66 114v311z" />
    <glyph glyph-name="uhungarumlaut" unicode="&#x171;" horiz-adv-x="387" 
d="M111 712h101l-91 -151h-67zM249 712h101l-91 -151h-67zM260 500l93 -1v-500h-66l-13 51c-24 -41 -63 -60 -109 -60c-63 0 -131 42 -131 176v333h94v-286c0 -110 26 -138 66 -138c38 0 66 24 66 114v311z" />
    <glyph glyph-name="umacron" unicode="&#x16b;" horiz-adv-x="387" 
d="M55 700h278v-85h-278v85zM260 500l93 -1v-500h-66l-13 51c-24 -41 -63 -60 -109 -60c-63 0 -131 42 -131 176v333h94v-286c0 -110 26 -138 66 -138c38 0 66 24 66 114v311z" />
    <glyph glyph-name="uogonek" unicode="&#x173;" horiz-adv-x="387" 
d="M260 500l93 -2v-500c-21 -21 -45 -44 -44 -72c0 -23 15 -32 40 -33h12v-69h-16c-77 2 -110 28 -113 72c-3 48 35 83 55 103l-13 51c-24 -41 -64 -60 -109 -60c-63 0 -131 42 -131 176v333h94v-286c0 -110 26 -138 66 -138c38 0 66 24 66 114v311z" />
    <glyph glyph-name="uring" unicode="&#x16f;" horiz-adv-x="387" 
d="M194 741c59 0 107 -48 107 -106c0 -59 -48 -107 -107 -107s-106 48 -106 107c0 58 47 106 106 106zM194 674c-22 0 -39 -18 -39 -39c0 -22 17 -40 39 -40s40 18 40 40c0 21 -18 39 -40 39zM260 500l93 -1v-500h-66l-13 51c-24 -41 -63 -60 -109 -60
c-63 0 -131 42 -131 176v333h94v-286c0 -110 26 -138 66 -138c38 0 66 24 66 114v311z" />
    <glyph glyph-name="v" unicode="v" horiz-adv-x="436" 
d="M314 500h94l-136 -499h-108l-136 499h94l96 -355z" />
    <glyph glyph-name="w" unicode="w" horiz-adv-x="637" 
d="M515 500h97l-106 -500h-114l-72 317l-71 -317h-114l-106 500h94l75 -374l81 374h80l81 -374z" />
    <glyph glyph-name="wacute" unicode="&#x1e83;" horiz-adv-x="637" 
d="M292 712h109l-91 -151h-75zM515 500h97l-106 -500h-114l-72 317l-71 -317h-114l-106 500h94l75 -374l81 374h80l81 -374z" />
    <glyph glyph-name="wcircumflex" unicode="&#x175;" horiz-adv-x="637" 
d="M268 704h100l87 -148h-71l-66 72l-66 -72h-71zM514 500h97l-106 -500h-114l-72 317l-71 -317h-114l-106 500h94l75 -374l81 374h80l81 -374z" />
    <glyph glyph-name="wdieresis" unicode="&#x1e85;" horiz-adv-x="637" 
d="M200 700h95v-94h-95v94zM343 700h95v-94h-95v94zM516 500h97l-106 -500h-114l-72 317l-71 -317h-114l-106 500h94l75 -374l81 374h80l81 -374z" />
    <glyph glyph-name="wgrave" unicode="&#x1e81;" horiz-adv-x="637" 
d="M235 714h109l57 -151h-75zM515 500h97l-106 -500h-114l-72 317l-71 -317h-114l-106 500h94l75 -374l81 374h80l81 -374z" />
    <glyph glyph-name="x" unicode="x" horiz-adv-x="409" 
d="M378 500l-100 -245l104 -255h-97l-80 177l-80 -177h-97l104 254l-100 246h97l76 -194l76 194h97z" />
    <glyph glyph-name="y" unicode="y" horiz-adv-x="376" 
d="M254 500h93v-504c-2 -128 -85 -168 -159 -168c-64 0 -138 31 -155 126h96c11 -32 34 -41 59 -41c38 0 66 21 66 97v38c-22 -33 -57 -48 -96 -48c-63 0 -131 41 -131 175v324h94v-277c0 -110 26 -138 66 -138s66 28 67 138v278z" />
    <glyph glyph-name="yacute" unicode="&#xfd;" horiz-adv-x="376" 
d="M162 712h109l-91 -151h-75zM254 500h93v-504c-2 -128 -85 -168 -159 -168c-64 0 -138 31 -155 126h96c11 -32 34 -41 59 -41c38 0 66 21 66 97v38c-22 -33 -57 -48 -96 -48c-63 0 -131 41 -131 175v324h94v-277c0 -110 26 -138 66 -138s66 28 67 138v278z" />
    <glyph glyph-name="ycircumflex" unicode="&#x177;" horiz-adv-x="376" 
d="M137 704h100l87 -148h-71l-66 72l-66 -72h-71zM252 500h93v-504c-2 -128 -85 -168 -159 -168c-64 0 -138 31 -155 126h96c11 -32 34 -41 59 -41c38 0 66 21 66 97v38c-22 -33 -57 -48 -96 -48c-63 0 -131 41 -131 175v324h94v-277c0 -110 26 -138 66 -138s66 28 67 138
v278z" />
    <glyph glyph-name="ydieresis" unicode="&#xff;" horiz-adv-x="376" 
d="M69 606v94h95v-94h-95zM212 606v94h95v-94h-95zM254 500h93v-504c-2 -128 -85 -168 -159 -168c-64 0 -138 31 -155 126h96c11 -32 34 -41 59 -41c38 0 66 21 66 97v38c-22 -33 -57 -48 -96 -48c-63 0 -131 41 -131 175v324h94v-277c0 -110 26 -138 66 -138s66 28 67 138
v278z" />
    <glyph glyph-name="ygrave" unicode="&#x1ef3;" horiz-adv-x="376" 
d="M105 714h109l57 -151h-75zM254 501h93v-504c-2 -128 -85 -168 -159 -168c-64 0 -138 31 -155 126h96c11 -32 34 -41 59 -41c38 0 66 21 66 97v38c-22 -33 -57 -48 -96 -48c-63 0 -131 41 -131 175v324h94v-277c0 -110 26 -138 66 -138s66 28 67 138v278z" />
    <glyph glyph-name="z" unicode="z" horiz-adv-x="358" 
d="M131 85h198v-85h-302v70l197 345h-185v85h287v-70z" />
    <glyph glyph-name="zacute" unicode="&#x17a;" horiz-adv-x="358" 
d="M153 712h109l-91 -151h-75zM40 500h286v-70l-195 -345h199v-85h-302v70l197 345h-185v85z" />
    <glyph glyph-name="zcaron" unicode="&#x17e;" horiz-adv-x="358" 
d="M245 704h73l-87 -148h-102l-87 148h71l66 -72zM41 500h286v-70l-195 -345h199v-85h-302v70l197 345h-185v85z" />
    <glyph glyph-name="zdotaccent" unicode="&#x17c;" horiz-adv-x="358" 
d="M132 700h95v-94h-95v94zM40 500h286v-70l-195 -345h199v-85h-302v70l197 345h-185v85z" />
    <glyph glyph-name="fi" unicode="&#xfb01;" horiz-adv-x="479" 
d="M232 709l38 -1v-84h-13c-52 0 -71 -18 -72 -105v-19h85v-85h-85v-415h-94v415h-62v85h62v33c0 142 61 175 141 176zM339 667h103v-95h-103v95zM343 499h94v-500h-94v500z" />
    <glyph glyph-name="fl" unicode="&#xfb02;" horiz-adv-x="466" 
d="M232 709l39 -1v-84h-14c-53 0 -71 -19 -72 -107v-17h85v-85h-85v-415h-94v415h-62v85h62v33c0 142 61 175 141 176zM340 699h94v-700h-94v700z" />
    <glyph glyph-name="K.ss01" horiz-adv-x="444" 
d="M284 700l115 -1l-134 -313c70 -12 90 -22 112 -55c19 -33 31 -82 31 -156v-176h-112v187c0 53 -10 84 -26 102c-18 19 -43 23 -70 23h-50v-311h-110v700h111v-290z" />
    <glyph glyph-name="R.ss01" horiz-adv-x="464" 
d="M46 0v704h156c143 0 224 -66 224 -200v-11c-1 -73 -31 -123 -76 -153c17 -9 33 -22 46 -41c21 -31 34 -76 34 -140v-159h-112v173c0 45 -9 74 -24 93c-18 23 -45 29 -73 29h-65v-295h-110zM220 590l-64 1v-181h63c47 0 97 22 98 86v6c0 66 -46 87 -97 88z" />
    <glyph glyph-name="f.ss01" horiz-adv-x="246" 
d="M181 709l35 1v-85h-11c-55 0 -74 -18 -74 -110v-15h85v-85h-85v-415h-94v533c0 144 62 176 144 176z" />
    <glyph glyph-name="k.ss01" horiz-adv-x="375" 
d="M235 500h100l-103 -221c40 -7 61 -16 79 -35c23 -27 38 -71 38 -145v-99h-94v109c0 57 -12 87 -31 103c-17 14 -40 17 -66 17h-27v-229h-94v700h94v-423z" />
    <glyph glyph-name="t.ss01" horiz-adv-x="246" 
d="M131 416l-1 -220c0 -97 17 -117 75 -117h10v-85h-34c-82 0 -144 32 -144 177v482h94v-153h85v-84h-85z" />
    <glyph glyph-name="ordfeminine" unicode="&#xaa;" horiz-adv-x="388" 
d="M285 500l66 1v-500h-66l-11 51c-24 -41 -63 -59 -109 -59c-63 0 -134 42 -134 176v165c0 134 71 176 134 176c45 0 84 -18 108 -58zM125 287v-72c1 -109 25 -138 67 -138s66 29 65 138v72c0 110 -26 138 -66 138s-66 -28 -66 -138z" />
    <glyph glyph-name="ordmasculine" unicode="&#xba;" horiz-adv-x="383" 
d="M32 168v165c0 134 84 176 159 176s160 -41 160 -176v-165c0 -135 -85 -176 -160 -176s-159 42 -159 176zM258 215v72c0 110 -28 138 -67 138c-41 0 -66 -28 -66 -138v-72c1 -109 24 -138 67 -138c41 0 67 29 66 138z" />
    <glyph glyph-name="florin" unicode="&#x192;" horiz-adv-x="347" 
d="M297 704l24 1v-85h-14c-53 -1 -69 -16 -84 -102l-3 -17h92v-85h-107l-70 -415h-94l70 415h-86v85h101l8 45c24 141 78 158 163 158z" />
    <glyph glyph-name="afii10017" unicode="&#x410;" horiz-adv-x="518" 
d="M372 0l-40 174h-147l-40 -174h-111l154 700h141l154 -700h-111zM198 285h120l-60 287z" />
    <glyph glyph-name="afii10018" unicode="&#x411;" horiz-adv-x="461" 
d="M46 704h344v-108h-233v-185h66c148 -4 216 -80 216 -203v-12c-1 -122 -67 -197 -221 -199h-172v707zM229 298l-73 -1v-187h72c62 0 101 29 102 88l1 8c0 61 -40 92 -102 92z" />
    <glyph glyph-name="afii10019" unicode="&#x412;" horiz-adv-x="461" 
d="M46 704h181c97 0 200 -45 200 -166v-36c0 -71 -36 -116 -87 -140c62 -26 99 -79 99 -155v-31c0 -116 -82 -179 -210 -179h-183v707zM319 500v7c0 69 -48 90 -94 90h-68v-187h68c46 0 94 22 94 90zM326 204v6c0 69 -42 99 -100 99h-69v-203h69c59 0 100 29 100 98z" />
    <glyph glyph-name="afii10020" unicode="&#x413;" horiz-adv-x="424" 
d="M390 700v-108h-233v-592h-111v700h344z" />
    <glyph glyph-name="afii10021" unicode="&#x414;" horiz-adv-x="589" 
d="M514 108h52v-228h-111v120h-321v-120h-111v228h30c46 10 82 48 82 138v454h379v-592zM202 108h201v484h-157v-353c0 -64 -19 -105 -44 -131z" />
    <glyph glyph-name="afii10022" unicode="&#x415;" horiz-adv-x="372" 
d="M349 592l-192 1v-183h182v-108h-182v-194h192v-108h-303v700h303v-108z" />
    <glyph glyph-name="afii10024" unicode="&#x416;" horiz-adv-x="781" 
d="M554 421l239 -421h-129l-183 326l-34 -45v-281h-113v281l-34 45l-183 -326h-129l239 421l-212 279h142l177 -235v235h113v-235l177 235h142z" />
    <glyph glyph-name="afii10025" unicode="&#x417;" horiz-adv-x="461" 
d="M226 709l20 1c82 -3 185 -50 188 -196v-17c0 -73 -37 -124 -80 -141c49 -18 84 -73 84 -147v-13c-2 -147 -98 -202 -195 -204h-17c-92 1 -194 53 -203 214v6h111c8 -79 50 -113 96 -113h8c48 2 86 40 86 99v5c0 64 -37 101 -106 101h-58v105h58c59 0 102 30 102 95v5
c0 61 -46 91 -82 93h-8c-45 0 -85 -33 -95 -108h-111l1 6c11 156 111 208 201 209z" />
    <glyph glyph-name="afii10026" unicode="&#x418;" horiz-adv-x="505" 
d="M351 700h109v-700h-111v467l-195 -467h-109v700h111v-467z" />
    <glyph glyph-name="afii10027" unicode="&#x419;" horiz-adv-x="505" 
d="M307 873h79c-6 -68 -63 -121 -132 -121s-126 53 -132 121h80c6 -23 27 -40 53 -40c25 0 46 17 52 40zM350 700h109v-700h-111v467l-195 -467h-109v700h111v-467z" />
    <glyph glyph-name="afii10028" unicode="&#x41a;" horiz-adv-x="507" 
d="M40 0v700h114v-235l177 235h142l-211 -279l238 -421h-129l-183 325l-34 -44v-281h-114z" />
    <glyph glyph-name="afii10029" unicode="&#x41b;" horiz-adv-x="556" 
d="M130 700h379v-700h-111v592h-157v-358c0 -183 -101 -241 -195 -243h-23v108c56 0 107 34 107 143v458z" />
    <glyph glyph-name="afii10030" unicode="&#x41c;" horiz-adv-x="620" 
d="M438 700h135v-700h-111v439l-119 -439h-69l-119 439v-439h-111v700h136l129 -514z" />
    <glyph glyph-name="afii10031" unicode="&#x41d;" horiz-adv-x="477" 
d="M321 700h111v-700h-111v302h-164v-302h-111v700h111v-290h164v290z" />
    <glyph glyph-name="afii10032" unicode="&#x41e;" horiz-adv-x="496" 
d="M43 234v233c0 185 105 242 205 242c98 0 206 -56 206 -242v-233c0 -186 -108 -242 -206 -242c-100 0 -205 57 -205 242zM340 242v218c0 104 -41 142 -92 142c-53 0 -91 -38 -91 -142v-218c0 -104 38 -142 91 -142c51 0 92 38 92 142z" />
    <glyph glyph-name="afii10033" unicode="&#x41f;" horiz-adv-x="477" 
d="M46 700h386v-700h-111v592h-164v-592h-111v700z" />
    <glyph glyph-name="afii10034" unicode="&#x420;" horiz-adv-x="467" 
d="M46 700l159 1c105 0 221 -44 221 -190v-43c0 -137 -107 -186 -208 -190h-61v-278h-111v700zM317 484l-1 12c0 75 -48 97 -95 97h-65v-207h65c47 0 96 23 96 98z" />
    <glyph glyph-name="afii10035" unicode="&#x421;" horiz-adv-x="473" 
d="M45 234l-1 232c0 185 105 242 205 242c96 0 198 -54 201 -234v-18h-111v16c-4 93 -40 129 -89 129c-53 0 -91 -38 -91 -142v-218c0 -104 38 -142 91 -142c50 0 86 36 90 130v15h111v-18c-3 -180 -105 -234 -201 -234c-100 0 -205 57 -205 242z" />
    <glyph glyph-name="afii10036" unicode="&#x422;" horiz-adv-x="432" 
d="M398 700v-108h-126v-592h-111v592h-126v108h363z" />
    <glyph glyph-name="afii10037" unicode="&#x423;" horiz-adv-x="532" 
d="M341 700h111v-468c0 -150 -73 -231 -198 -231l-24 -1h-130v99h130c62 0 112 50 112 112v73h-1v-2c-23 -36 -61 -50 -109 -50c-92 0 -165 41 -165 175v293h110v-217c0 -110 31 -135 82 -135c49 0 82 22 82 117v235z" />
    <glyph glyph-name="afii10038" unicode="&#x424;" horiz-adv-x="706" 
d="M409 704v-76h46c132 -5 209 -72 209 -203v-10c0 -128 -75 -197 -209 -201h-46v-215h-111v215h-46c-135 5 -209 74 -209 202v10c0 131 77 198 209 203h46v75h111zM556 418l-1 6c0 69 -46 90 -97 90h-49v-186h49c51 0 97 22 98 90zM297 328l-1 187h-50
c-51 0 -97 -22 -97 -91v-6c1 -67 47 -90 98 -90h50z" />
    <glyph glyph-name="afii10039" unicode="&#x425;" horiz-adv-x="511" 
d="M471 700l-145 -342l148 -358h-115l-105 249l-106 -249h-115l147 357l-141 343h116l100 -242l100 242h116z" />
    <glyph glyph-name="afii10041" unicode="&#x427;" horiz-adv-x="450" 
d="M302 700l111 1v-700h-111v281c-23 -35 -62 -50 -110 -50c-91 0 -165 42 -165 176v293h111v-217c0 -110 31 -136 82 -136c49 0 82 22 82 118v234z" />
    <glyph glyph-name="afii10040" unicode="&#x426;" horiz-adv-x="511" 
d="M431 109h56v-220h-111v111h-331v700h111v-592h164v592h111v-591z" />
    <glyph glyph-name="afii10042" unicode="&#x428;" horiz-adv-x="752" 
d="M595 700h110v-700h-660v700h111v-592h164v592h111v-592h164v592z" />
    <glyph glyph-name="afii10043" unicode="&#x429;" horiz-adv-x="786" 
d="M706 109h55v-220h-111v111h-605v700h111v-592h164v592h111v-592h164v592h111v-591z" />
    <glyph glyph-name="afii10049" unicode="&#x42f;" horiz-adv-x="476" 
d="M266 704l163 1v-704h-111v287h-72l-94 -287h-118l112 321c-55 23 -101 71 -101 155v38c0 146 116 189 221 189zM318 395l-1 203h-69c-47 0 -95 -22 -95 -98v-8c0 -75 49 -97 96 -97h69z" />
    <glyph glyph-name="afii10046" unicode="&#x42c;" horiz-adv-x="477" 
d="M157 704l1 -292h64c148 -5 212 -80 213 -202v-9c0 -125 -71 -204 -229 -204h-160v707h111zM158 111l67 -1c63 0 102 31 102 92v4c0 61 -40 92 -102 92h-67v-187z" />
    <glyph glyph-name="afii10044" unicode="&#x42a;" horiz-adv-x="532" 
d="M213 411l65 1c148 -5 212 -80 213 -202v-9c0 -125 -71 -204 -229 -204h-160v598h-70v109h181v-293zM383 203v3c0 61 -40 92 -102 92h-67v-187h67c63 0 102 31 102 92z" />
    <glyph glyph-name="afii10045" unicode="&#x42b;" horiz-adv-x="663" 
d="M157 704l1 -292h64c148 -5 212 -80 213 -202v-9c0 -125 -71 -204 -229 -204h-160v707h111zM504 701h115v-700h-115v700zM159 112l67 -1c63 0 102 31 102 92v4c0 61 -40 92 -102 92h-67v-187z" />
    <glyph glyph-name="afii10047" unicode="&#x42d;" horiz-adv-x="473" 
d="M23 468v3c3 180 105 235 202 235c100 0 205 -57 205 -242v-233c0 -185 -105 -242 -205 -242c-97 0 -199 55 -202 236v6h111c3 -97 40 -133 90 -133c53 0 91 38 91 142v56h-161v109h161v54c0 104 -38 142 -91 142c-50 0 -87 -36 -90 -133h-111z" />
    <glyph glyph-name="afii10048" unicode="&#x42e;" horiz-adv-x="692" 
d="M239 406v61c0 185 105 242 205 242c98 0 206 -56 206 -242v-233c0 -186 -108 -242 -206 -242c-100 0 -205 57 -205 242v63h-82v-297h-111v700h111v-294h82zM536 242v218c0 104 -41 142 -92 142c-53 0 -91 -38 -91 -142v-218c0 -104 38 -142 91 -142c51 0 92 38 92 142z
" />
    <glyph glyph-name="afii10065" unicode="&#x430;" horiz-adv-x="388" 
d="M349 0h-61v25c-28 -21 -64 -33 -101 -33c-98 0 -155 55 -155 153c0 85 50 132 160 153c22 4 44 9 70 14v35c0 48 -19 77 -64 77c-36 0 -71 -18 -71 -67h-78c5 114 84 154 149 154c95 0 151 -51 151 -136v-375zM189 80c26 0 70 9 73 71v78l-73 -14
c-50 -12 -67 -29 -67 -67c0 -47 21 -68 67 -68z" />
    <glyph glyph-name="afii10066" unicode="&#x431;" horiz-adv-x="388" 
d="M196 505c53 6 160 -11 160 -177v-153c0 -165 -113 -183 -161 -183s-159 18 -159 183v253c0 59 2 135 11 164c22 83 80 133 189 160l109 27v-90l-96 -23c-84 -21 -120 -70 -120 -166v-30c18 20 40 33 67 35zM262 198v105c0 80 -22 121 -65 121c-44 0 -65 -40 -65 -121
v-105c0 -82 21 -121 65 -121c19 0 34 7 45 23c13 20 20 53 20 98z" />
    <glyph glyph-name="afii10067" unicode="&#x432;" horiz-adv-x="377" 
d="M37 504l130 1c133 0 173 -70 173 -148c0 -41 -12 -74 -47 -96c42 -25 59 -64 59 -113c0 -84 -44 -151 -179 -151h-136v507zM132 299h33c62 1 82 18 82 58c0 41 -16 60 -82 61h-33v-119zM132 83h32c71 1 95 17 95 65c0 47 -23 64 -94 65h-33v-130z" />
    <glyph glyph-name="afii10068" unicode="&#x433;" horiz-adv-x="338" 
d="M311 500l1 -85h-180v-415h-94v500h273z" />
    <glyph glyph-name="afii10069" unicode="&#x434;" horiz-adv-x="484" 
d="M106 500h311v-415h42v-189h-94v104h-246v-104h-94v189h26c38 8 55 40 55 110v305zM323 85l-1 330h-122v-244c0 -41 -11 -68 -26 -86h149z" />
    <glyph glyph-name="afii10070" unicode="&#x435;" horiz-adv-x="381" 
d="M32 168v164c0 134 84 176 159 176c74 0 159 -41 159 -176v-118h-225v-30c0 -85 26 -108 66 -108c34 0 63 19 66 88h93c-1 -132 -85 -172 -159 -172c-75 0 -159 42 -159 176zM257 284v37c-1 80 -31 102 -66 102c-37 0 -65 -21 -65 -101v-38h131z" />
    <glyph glyph-name="afii10072" unicode="&#x436;" horiz-adv-x="597" 
d="M423 300l163 -300h-109l-113 223l-19 -25v-198h-94v198l-19 25l-113 -223h-109l163 300l-154 200h113l119 -155v155h94v-155l119 155h113z" />
    <glyph glyph-name="afii10073" unicode="&#x437;" horiz-adv-x="382" 
d="M184 509l15 -1c100 -1 148 -57 148 -145c0 -47 -20 -94 -81 -108c63 -12 91 -60 91 -127c0 -93 -77 -136 -158 -137h-15c-68 2 -155 38 -155 154h92c1 -55 39 -69 68 -69h3c47 0 73 24 73 70c0 45 -33 64 -82 64h-46v85h43c53 1 79 17 79 60s-22 70 -68 70h-3
c-28 0 -66 -15 -67 -70h-92c0 116 87 152 155 154z" />
    <glyph glyph-name="afii10074" unicode="&#x438;" horiz-adv-x="398" 
d="M268 500h95v-500h-94v304l-137 -304h-94v500h94v-303z" />
    <glyph glyph-name="afii10075" unicode="&#x439;" horiz-adv-x="398" 
d="M251 700h79c-6 -68 -63 -121 -132 -121s-126 53 -132 121h80c6 -23 27 -40 52 -40c26 0 47 17 53 40zM267 500h94v-500h-94v304l-137 -304h-94v500h94v-304z" />
    <glyph glyph-name="afii10076" unicode="&#x43a;" horiz-adv-x="383" 
d="M38 0v501h94v-155l119 155h113l-154 -200l163 -301h-109l-113 224l-19 -25v-199h-94z" />
    <glyph glyph-name="afii10077" unicode="&#x43b;" horiz-adv-x="448" 
d="M101 500l310 1v-500h-94v415h-122v-249c0 -132 -73 -173 -141 -175h-29v84c44 1 75 28 76 114v310z" />
    <glyph glyph-name="afii10078" unicode="&#x43c;" horiz-adv-x="460" 
d="M324 500l99 1v-500h-85v293l-86 -293h-44l-85 293v-293h-85v500h100l93 -345z" />
    <glyph glyph-name="afii10079" unicode="&#x43d;" horiz-adv-x="393" 
d="M262 500h94v-500h-94v215h-131v-215h-94v500h94v-200h131v200z" />
    <glyph glyph-name="afii10080" unicode="&#x43e;" horiz-adv-x="383" 
d="M32 168v165c0 134 84 176 159 176s160 -41 160 -176v-165c0 -135 -85 -176 -160 -176s-159 42 -159 176zM258 215v72c0 110 -28 138 -67 138c-41 0 -66 -28 -66 -138v-72c1 -109 24 -138 67 -138c41 0 67 29 66 138z" />
    <glyph glyph-name="afii10081" unicode="&#x43f;" horiz-adv-x="393" 
d="M37 500h319v-500h-94v415h-131v-415h-94v500z" />
    <glyph glyph-name="afii10082" unicode="&#x440;" horiz-adv-x="388" 
d="M103 500l13 -53c24 42 64 60 110 60c63 0 131 -42 131 -176v-165c0 -134 -68 -175 -131 -175c-38 0 -73 14 -95 47v-201h-94v663h66zM264 213v72c-1 109 -25 138 -67 138s-66 -29 -65 -138v-72c0 -110 26 -138 66 -138s66 28 66 138z" />
    <glyph glyph-name="afii10083" unicode="&#x441;" horiz-adv-x="379" 
d="M32 168v167c0 134 84 176 159 176c74 0 156 -40 158 -172v-22h-91c-2 85 -31 108 -67 108c-41 0 -66 -28 -66 -138v-72c1 -109 24 -138 67 -138c38 0 65 24 66 109h91v-22c-2 -132 -84 -172 -158 -172c-75 0 -159 42 -159 176z" />
    <glyph glyph-name="afii10084" unicode="&#x442;" horiz-adv-x="380" 
d="M28 500h324v-85h-115v-415h-94v415h-115v85z" />
    <glyph glyph-name="afii10085" unicode="&#x443;" horiz-adv-x="376" 
d="M254 500h93v-504c-2 -128 -85 -168 -159 -168c-64 0 -138 31 -155 126h96c11 -32 34 -41 59 -41c38 0 66 21 66 97v38c-22 -33 -57 -48 -96 -48c-63 0 -131 41 -131 175v324h94v-277c0 -110 26 -138 66 -138s66 28 67 138v278z" />
    <glyph glyph-name="afii10086" unicode="&#x444;" horiz-adv-x="609" 
d="M258 700l94 -1v-239c22 34 57 48 95 48c63 0 131 -42 131 -176v-165c0 -134 -68 -175 -131 -175c-38 0 -73 14 -95 47v-201h-94v201c-22 -32 -57 -46 -95 -46c-63 0 -131 41 -131 175v165c0 134 68 176 131 176c38 0 73 -14 95 -48v239zM258 213v73
c0 109 -24 138 -65 138c-42 0 -66 -30 -67 -139v-72c0 -110 26 -138 66 -138s66 28 66 138zM484 214v72c-1 109 -25 138 -67 138s-66 -29 -65 -138v-72c0 -110 26 -138 66 -138s66 28 66 138z" />
    <glyph glyph-name="afii10087" unicode="&#x445;" horiz-adv-x="409" 
d="M378 500l-100 -245l104 -255h-97l-80 177l-80 -177h-97l104 254l-100 246h97l76 -194l76 194h97z" />
    <glyph glyph-name="afii10089" unicode="&#x447;" horiz-adv-x="391" 
d="M260 500l95 -1v-500h-94v192c-22 -34 -57 -49 -96 -49c-63 0 -131 42 -131 176v181h94v-134c0 -110 26 -138 66 -138c38 0 66 24 66 114v159z" />
    <glyph glyph-name="afii10088" unicode="&#x446;" horiz-adv-x="425" 
d="M356 85h44v-180h-94v95h-269v500h94v-415h131v415h94v-415z" />
    <glyph glyph-name="afii10090" unicode="&#x448;" horiz-adv-x="617" 
d="M487 500h93v-500h-543v500h94v-415h131v415h94v-415h131v415z" />
    <glyph glyph-name="afii10091" unicode="&#x449;" horiz-adv-x="650" 
d="M581 85h44v-180h-94v95h-494v500h94v-415h131v415h94v-415h131v415h94v-415z" />
    <glyph glyph-name="afii10094" unicode="&#x44c;" horiz-adv-x="373" 
d="M37 500l95 1v-199h38c133 0 178 -60 178 -142v-22c-1 -84 -50 -141 -179 -141h-132v503zM256 145l1 2c0 48 -23 66 -94 67h-30v-132h30c69 1 92 17 93 63z" />
    <glyph glyph-name="afii10092" unicode="&#x44a;" horiz-adv-x="413" 
d="M171 301l39 -1c133 0 178 -60 178 -142v-22c-1 -84 -51 -140 -179 -140h-132v419h-52v85h146v-199zM295 143l1 2c0 48 -23 66 -94 67h-30v-132h30c69 1 92 17 93 63z" />
    <glyph glyph-name="afii10093" unicode="&#x44b;" horiz-adv-x="543" 
d="M37 500l95 1v-199h38c133 0 178 -60 178 -142v-22c-1 -84 -50 -141 -179 -141h-132v503zM412 1v500h94v-500h-94zM255 145l1 2c0 48 -23 66 -94 67h-30v-132h30c69 1 92 17 93 63z" />
    <glyph glyph-name="afii10095" unicode="&#x44d;" horiz-adv-x="379" 
d="M122 333l-92 -1c0 135 83 176 158 176s159 -42 159 -176v-165c0 -134 -84 -176 -159 -176s-158 41 -158 176h91c2 -71 31 -91 66 -91c38 0 66 21 66 98v35h-106v85h106v35c-1 76 -29 96 -65 96c-34 0 -64 -20 -66 -92z" />
    <glyph glyph-name="afii10096" unicode="&#x44e;" horiz-adv-x="555" 
d="M204 296v37c0 134 84 176 159 176s160 -41 160 -176v-165c0 -135 -85 -176 -160 -176s-159 42 -159 176v44h-73v-212h-94v500h94v-204h73zM430 215v72c0 110 -28 138 -67 138c-41 0 -66 -28 -66 -138v-72c1 -109 24 -138 67 -138c41 0 67 29 66 138z" />
    <glyph glyph-name="afii10097" unicode="&#x44f;" horiz-adv-x="374" 
d="M201 504h136v-504h-94v204l-55 -8l-69 -196h-94l76 228c-54 21 -73 61 -73 113v22c0 82 45 141 173 141zM206 292h36v127h-36c-68 -1 -85 -20 -85 -65c0 -43 17 -61 85 -62z" />
    <glyph glyph-name="afii10049.ss01" horiz-adv-x="464" 
d="M262 704h156v-704h-110v295h-65c-28 0 -54 -6 -72 -28c-15 -18 -24 -47 -24 -93v-173h-112v160c0 61 12 103 31 133c13 21 30 36 49 46c-46 30 -76 80 -77 153v11c0 134 81 200 224 200zM307 409l-1 180h-63c-51 0 -97 -22 -97 -88v-6c1 -64 51 -86 98 -86h63z" />
    <glyph glyph-name="afii10024.ss01" horiz-adv-x="696" 
d="M652 700l-131 -314c65 -11 83 -19 104 -44c24 -33 39 -84 39 -167v-176h-112v187c0 59 -13 91 -33 108c-17 14 -40 17 -64 17h-50v-311h-111v311h-50c-27 0 -52 -4 -70 -22c-17 -17 -28 -48 -28 -102v-187h-112v176c0 78 13 129 34 163c22 29 43 37 109 48l-135 313h117
l133 -290v290h111v-290l133 290h116z" />
    <glyph glyph-name="afii10097.ss01" horiz-adv-x="372" 
d="M336 504l-1 -502h-94v204h-26c-32 0 -58 -4 -75 -25c-14 -17 -22 -46 -22 -93v-87h-93v77c0 57 9 96 24 123c9 17 20 30 33 40c-41 21 -55 55 -55 100v22c0 82 45 141 173 141h136zM241 421l-38 -1c-68 -1 -85 -20 -85 -65c0 -41 16 -59 77 -61h46v127z" />
    <glyph glyph-name="afii10076.ss01" horiz-adv-x="375" 
d="M235 500l98 -2l-103 -221c42 -7 65 -16 84 -39c21 -28 34 -71 34 -140v-99h-94v109c0 54 -10 85 -28 102c-17 16 -41 19 -68 19h-27v-229h-94v500h94v-223z" />
    <glyph glyph-name="afii10072.ss01" horiz-adv-x="583" 
d="M540 500l-103 -223c44 -8 66 -16 85 -41c20 -28 32 -71 32 -139v-98h-93v109c0 52 -10 83 -27 100c-17 18 -41 21 -69 21h-27v-229h-94v229h-27c-28 0 -52 -3 -69 -19c-18 -17 -28 -47 -28 -101v-109h-93v99c0 72 14 115 36 142c20 23 42 30 82 38l-103 221h98l104 -223
v223h94v-223l104 223h98z" />
    <glyph glyph-name="Delta" unicode="&#x394;" horiz-adv-x="469" 
d="M439 115v-115h-409v114l134 586h141zM134 109h202l-101 464z" />
    <glyph glyph-name="Omega" unicode="&#x3a9;" horiz-adv-x="503" 
d="M47 277l-1 190c0 185 105 242 205 242c98 0 206 -56 206 -242v-190c0 -85 -25 -138 -61 -170h75v-108h-187v108c37 27 60 78 60 174v178c1 104 -40 142 -91 142c-53 0 -91 -38 -91 -142v-178c0 -95 21 -146 58 -173v-109h-187v108h76c-36 32 -62 85 -62 170z" />
    <glyph glyph-name="mu" unicode="&#x3bc;" horiz-adv-x="458" 
d="M263 500l96 1v-310c1 -86 32 -113 77 -114v-84h-11c-38 1 -77 17 -100 57c-21 -43 -60 -58 -98 -58c-39 0 -74 15 -96 49v-203h-94v663h94v-311c0 -90 28 -114 66 -114c40 0 66 28 66 138v286z" />
    <glyph glyph-name="pi" unicode="&#x3c0;" horiz-adv-x="513" 
d="M25 500l462 -1v-86h-77v-224c1 -86 32 -113 77 -114v-84h-29c-68 2 -141 43 -141 175v248h-122v-414h-94v414h-76v86z" />
    <glyph glyph-name="zero" unicode="0" horiz-adv-x="483" 
d="M36 234v193c0 185 105 242 205 242c98 0 206 -56 206 -242v-193c0 -186 -108 -242 -206 -242c-100 0 -205 57 -205 242zM333 242v178c0 104 -41 142 -92 142c-53 0 -91 -38 -91 -142v-178c0 -104 38 -142 91 -142c51 0 92 38 92 142z" />
    <glyph glyph-name="one" unicode="1" horiz-adv-x="235" 
d="M25 660h173v-660h-114v552h-59v108z" />
    <glyph glyph-name="two" unicode="2" horiz-adv-x="458" 
d="M227 668h12c90 -1 195 -55 195 -208v-3c-1 -190 -240 -211 -275 -350h269v-108h-402v57c0 245 293 254 293 400c0 70 -42 104 -84 104h-6c-42 -1 -80 -34 -90 -107h-114l1 7c11 155 112 207 201 208z" />
    <glyph glyph-name="three" unicode="3" horiz-adv-x="461" 
d="M226 669l10 1c84 -1 193 -46 194 -187v-10c0 -68 -37 -119 -80 -136c49 -18 84 -73 84 -143v-9c-1 -138 -101 -192 -198 -193h-12c-89 0 -192 54 -201 204v5h111c8 -76 52 -102 94 -102h7c46 1 85 33 85 84v5c0 59 -38 95 -103 95h-56v105h56c55 0 99 30 99 90v5
c0 51 -46 79 -81 79h-7c-40 -1 -81 -29 -91 -97h-111v6c11 145 112 197 200 198z" />
    <glyph glyph-name="four" unicode="4" horiz-adv-x="487" 
d="M462 231v-108h-49v-124h-114v124h-268v130l150 412h112l-149 -434h155v269h114v-269h49z" />
    <glyph glyph-name="five" unicode="5" horiz-adv-x="463" 
d="M52 666l344 -2v-108h-230v-153l59 2c18 0 54 1 81 -5c96 -19 132 -103 132 -188v-33c-3 -133 -101 -188 -197 -189h-13c-89 0 -191 54 -200 204v5h111c8 -76 52 -102 94 -102h8c45 1 84 32 84 98v28c0 66 -40 88 -114 88h-159v355z" />
    <glyph glyph-name="six" unicode="6" horiz-adv-x="468" 
d="M27 212l2 214c0 185 108 242 208 242c91 0 197 -48 200 -205h-114c0 71 -43 98 -86 98c-55 0 -99 -36 -99 -140v-75c20 30 53 53 104 54h25c138 3 174 -113 174 -205c0 -97 -42 -204 -192 -204h-29c-116 2 -192 68 -193 221zM224 98h24c58 0 81 42 81 96
c0 53 -23 97 -82 97h-23c-58 0 -81 -44 -81 -97c0 -54 23 -96 81 -96z" />
    <glyph glyph-name="seven" unicode="7" horiz-adv-x="450" 
d="M28 666h393v-87l-239 -578h-115l231 557h-270v108z" />
    <glyph glyph-name="eight" unicode="8" horiz-adv-x="470" 
d="M223 669h22c111 0 193 -82 194 -186v-9c0 -63 -31 -111 -80 -139c55 -25 85 -75 85 -139v-9c0 -109 -73 -193 -198 -193h-23c-125 0 -198 84 -198 193v9c1 64 31 113 85 138c-50 28 -81 77 -81 140v9c1 104 83 186 194 186zM325 477l1 5c-1 65 -53 80 -84 80h-17
c-30 0 -82 -15 -83 -80v-5c0 -65 47 -80 87 -80h8c41 0 88 15 88 80zM331 191l-1 6c0 70 -41 93 -92 93h-8c-50 0 -91 -23 -91 -93v-6c1 -68 45 -89 87 -89h17c43 0 87 21 88 89z" />
    <glyph glyph-name="nine" unicode="9" horiz-adv-x="464" 
d="M439 449l-2 -214c0 -185 -108 -242 -208 -242c-91 0 -197 48 -200 205h114c1 -71 44 -98 87 -98c55 0 98 36 98 140v75c-20 -31 -53 -53 -104 -54h-25c-138 -3 -174 113 -174 205c0 97 42 204 192 204h29c116 -2 192 -68 193 -221zM242 563h-24c-58 0 -81 -42 -81 -96
c0 -53 23 -97 82 -97h23c58 0 81 44 81 97c0 54 -23 96 -81 96z" />
    <glyph glyph-name="onequarter" unicode="&#xbc;" horiz-adv-x="635" 
d="M39 700h103v-338h-71v272h-32v66zM383 700h86l-297 -700h-86zM433 338h72l-78 -214h74v131h72v-131h24v-65h-24v-59h-71v59h-148v72z" />
    <glyph glyph-name="onehalf" unicode="&#xbd;" horiz-adv-x="634" 
d="M39 700h104v-338h-72v272h-32v66zM384 700h86l-297 -700h-85zM482 340l9 -1c52 -1 105 -29 106 -104v-3c0 -91 -109 -106 -128 -168h125v-65h-219v33c0 126 151 126 151 200c0 31 -20 43 -37 44h-3c-21 0 -38 -14 -43 -45h-71v3c6 79 63 105 110 106z" />
    <glyph glyph-name="threequarters" unicode="&#xbe;" horiz-adv-x="712" 
d="M142 705l8 3c49 -1 103 -24 104 -94v-6c0 -33 -19 -60 -40 -67c24 -10 41 -38 42 -74v-6c-1 -69 -51 -96 -106 -97h-9c-49 0 -103 28 -108 101v2h67c4 -26 23 -37 41 -38h6c18 0 37 11 38 32v3c0 25 -18 42 -47 42h-30v66h30c22 0 44 10 45 33v3c0 21 -18 32 -35 32h-5
c-18 0 -36 -10 -41 -35h-67v2c6 68 58 98 107 98zM462 703h86l-297 -700h-86zM507 341h71l-78 -214h74v130h72v-130h24v-65h-24v-59h-71v59h-147v72z" />
    <glyph glyph-name="fraction" unicode="&#x2044;" horiz-adv-x="437" 
d="M27 0l297 700h86l-297 -700h-86z" />
    <glyph glyph-name="two.dnom" horiz-adv-x="246" 
d="M121 340l9 -1c52 -1 105 -29 106 -104v-3c0 -91 -109 -106 -128 -168h125v-65h-219v33c0 126 151 126 151 200c0 31 -20 43 -37 44h-3c-21 0 -38 -14 -43 -45h-71v3c6 79 63 105 110 106z" />
    <glyph glyph-name="four.dnom" horiz-adv-x="263" 
d="M89 338h72l-78 -214h74v130h72v-130h24v-65h-24v-59h-71v59h-148v72z" />
    <glyph glyph-name="one.numr" horiz-adv-x="146" 
d="M21 700h103v-338h-71v272h-32v66z" />
    <glyph glyph-name="three.numr" horiz-adv-x="266" 
d="M129 705l8 3c49 -1 103 -24 104 -94v-6c0 -33 -19 -60 -40 -67c24 -10 41 -38 42 -74v-6c-1 -69 -51 -96 -106 -97h-9c-49 0 -103 28 -108 101v2h67c4 -26 23 -37 41 -38h6c18 0 37 11 38 32v3c0 25 -18 42 -47 42h-30v66h30c22 0 44 10 45 33v3c0 21 -18 32 -35 32h-5
c-18 0 -36 -10 -41 -35h-67v2c6 68 58 98 107 98z" />
    <glyph glyph-name="asterisk" unicode="*" horiz-adv-x="469" 
d="M186 716h98l-5 -127l119 44l31 -95l-122 -34l79 -100l-81 -59l-70 106l-70 -106l-81 59l79 100l-122 34l31 95l119 -44z" />
    <glyph glyph-name="backslash" unicode="\" horiz-adv-x="428" 
d="M27 700h116l257 -700h-116z" />
    <glyph glyph-name="bullet" unicode="&#x2022;" horiz-adv-x="374" 
d="M187 452c86 0 155 -69 155 -155s-69 -155 -155 -155s-155 69 -155 155s69 155 155 155z" />
    <glyph glyph-name="colon" unicode=":" horiz-adv-x="203" 
d="M50 338v102h103v-102h-103zM50 0v102h103v-102h-103z" />
    <glyph glyph-name="comma" unicode="," horiz-adv-x="203" 
d="M50 102h103v-102l-38 -103h-39l18 103h-44v102z" />
    <glyph glyph-name="ellipsis" unicode="&#x2026;" horiz-adv-x="514" 
d="M50 0v102h103v-102h-103zM206 0v102h103v-102h-103zM362 0v102h103v-102h-103z" />
    <glyph glyph-name="exclam" unicode="!" horiz-adv-x="203" 
d="M52 700h98v-240l-13 -273h-72l-13 272v241zM50 0v102h103v-102h-103z" />
    <glyph glyph-name="exclamdown" unicode="&#xa1;" horiz-adv-x="203" 
d="M50 537h103v-102h-103v102zM65 350h72l13 -273v-240h-98v241z" />
    <glyph glyph-name="numbersign" unicode="#" horiz-adv-x="672" 
d="M613 386h-102l-21 -92h103l-30 -108h-105l-47 -186h-116l47 186h-96l-47 -186h-116l47 186h-101l32 108h101l21 92h-100l32 108h101l52 206h116l-53 -206h95l53 206h116l-53 -206h103zM374 294l21 92h-96l-21 -92h96z" />
    <glyph glyph-name="period" unicode="." horiz-adv-x="203" 
d="M50 0v102h103v-102h-103z" />
    <glyph glyph-name="periodcentered" unicode="&#xb7;" horiz-adv-x="203" 
d="M50 298v102h103v-102h-103z" />
    <glyph glyph-name="question" unicode="?" horiz-adv-x="508" 
d="M249 704l11 -1c91 0 198 -54 198 -208v-2c-1 -193 -180 -142 -180 -285h-94c0 198 160 150 160 284c0 70 -42 104 -84 104h-5c-42 -1 -80 -34 -90 -107h-114v5c11 155 110 208 198 210zM180 101h103v-102h-103v102z" />
    <glyph glyph-name="questiondown" unicode="&#xbf;" horiz-adv-x="508" 
d="M327 440h-103v102h103v-102zM259 -163l-12 1c-91 0 -198 54 -198 208v2c1 193 180 142 180 285h94c0 -198 -159 -150 -159 -284c0 -70 42 -104 84 -104h5c42 1 80 34 90 107h114v-5c-11 -155 -110 -208 -198 -210z" />
    <glyph glyph-name="quotedbl" unicode="&#x22;" horiz-adv-x="311" 
d="M33 700h99l-15 -242h-69zM177 700h99l-15 -242h-69z" />
    <glyph glyph-name="quotesingle" unicode="'" horiz-adv-x="200" 
d="M50 700h99l-15 -242h-69z" />
    <glyph glyph-name="semicolon" unicode=";" horiz-adv-x="203" 
d="M50 440h103v-102h-103v102zM50 0v102h103v-102l-38 -103h-39l18 103h-44z" />
    <glyph glyph-name="slash" unicode="/" horiz-adv-x="428" 
d="M27 0l257 700h116l-257 -700h-116z" />
    <glyph glyph-name="underscore" unicode="_" horiz-adv-x="514" 
d="M50 -28h414v-108h-414v108z" />
    <glyph glyph-name="braceleft" unicode="{" horiz-adv-x="393" 
d="M289 750l54 -2v-108h-34c-27 0 -51 -23 -51 -56v-137c0 -67 -25 -125 -89 -138c64 -14 89 -65 89 -125v-161c0 -33 24 -56 51 -56h34v-108h-54c-85 0 -143 54 -145 147v145c-2 81 -32 101 -89 104h-5v108h5c57 2 87 22 89 102v138c2 93 60 147 145 147z" />
    <glyph glyph-name="braceright" unicode="}" horiz-adv-x="393" 
d="M50 750l53 3c85 0 143 -54 145 -147v-139c2 -79 32 -99 90 -101h5v-108h-5c-57 -2 -87 -22 -90 -106v-144c-1 -93 -59 -147 -144 -147h-54v108h34c27 0 51 23 51 56v161c0 60 25 111 89 124c-64 14 -89 72 -89 139v137c0 33 -24 56 -51 56h-34v108z" />
    <glyph glyph-name="bracketleft" unicode="[" horiz-adv-x="279" 
d="M229 642h-65v-673h65v-109h-179v890h179v-108z" />
    <glyph glyph-name="bracketright" unicode="]" horiz-adv-x="279" 
d="M50 750h179v-890h-179v109h65v673h-65v108z" />
    <glyph glyph-name="parenleft" unicode="(" horiz-adv-x="299" 
d="M194 750l54 -1v-108h-34c-27 0 -51 -23 -51 -56v-562c0 -33 24 -56 51 -56h34v-108h-54c-85 0 -145 54 -145 147v597c0 93 60 147 145 147z" />
    <glyph glyph-name="parenright" unicode=")" horiz-adv-x="299" 
d="M50 750h54c85 0 145 -54 145 -147v-596c0 -93 -60 -147 -145 -147h-54v108h34c27 0 51 23 51 56v562c0 33 -24 56 -51 56h-34v108z" />
    <glyph glyph-name="emdash" unicode="&#x2014;" horiz-adv-x="640" 
d="M50 322h540v-108h-540v108z" />
    <glyph glyph-name="endash" unicode="&#x2013;" horiz-adv-x="472" 
d="M50 322h372v-108h-372v108z" />
    <glyph glyph-name="hyphen" unicode="-" horiz-adv-x="348" 
d="M50 322h248v-108h-248v108z" />
    <glyph glyph-name="guillemotleft" unicode="&#xab;" horiz-adv-x="414" 
d="M218 321l146 128v-111l-85 -73l85 -72v-111l-146 128v111zM50 321l146 128v-111l-85 -73l85 -72v-111l-146 128v111z" />
    <glyph glyph-name="guillemotright" unicode="&#xbb;" horiz-adv-x="414" 
d="M50 339v110l146 -128v-110l-146 -128v111l85 72zM218 338v110l146 -128v-110l-146 -128v111l85 72z" />
    <glyph glyph-name="guilsinglleft" unicode="&#x2039;" horiz-adv-x="246" 
d="M50 321l146 128v-111l-85 -73l85 -72v-111l-146 128v111z" />
    <glyph glyph-name="guilsinglright" unicode="&#x203a;" horiz-adv-x="246" 
d="M50 339v110l146 -128v-110l-146 -128v111l85 72z" />
    <glyph glyph-name="quotedblbase" unicode="&#x201e;" horiz-adv-x="203" 
d="M50 102h103v-102l-38 -103h-39l18 103h-44v102z" />
    <glyph glyph-name="quotedblleft" unicode="&#x201c;" horiz-adv-x="377" 
d="M127 700l-18 -103h44v-102h-103v102l38 103h39zM283 597h44v-102h-103v102l38 103h39z" />
    <glyph glyph-name="quotedblright" unicode="&#x201d;" horiz-adv-x="377" 
d="M50 598v102h103v-102l-38 -103h-39l18 103h-44zM224 700h103v-102l-38 -103h-39l18 103h-44v102z" />
    <glyph glyph-name="quoteleft" unicode="&#x2018;" horiz-adv-x="203" 
d="M110 597h44v-102h-103v102l38 103h39z" />
    <glyph glyph-name="quoteright" unicode="&#x2019;" horiz-adv-x="203" 
d="M50 700h103v-102l-38 -103h-39l18 103h-44v102z" />
    <glyph glyph-name="quotesinglbase" unicode="&#x201a;" horiz-adv-x="203" 
d="M50 102h103v-102l-38 -103h-39l18 103h-44v102z" />
    <glyph glyph-name="space" unicode=" " horiz-adv-x="300" 
 />
    <glyph glyph-name="cent" unicode="&#xa2;" horiz-adv-x="380" 
d="M144 601l94 -1v-101c57 -14 108 -59 110 -162v-22h-91c-2 85 -31 108 -67 108c-41 0 -66 -28 -66 -138v-72c1 -109 24 -138 67 -138c38 0 65 24 66 109h91v-22c-2 -103 -53 -148 -110 -162v-98h-94v98c-59 14 -112 61 -112 168v165c0 107 53 154 112 168v100z" />
    <glyph glyph-name="currency" unicode="&#xa4;" horiz-adv-x="600" 
 />
    <glyph glyph-name="dollar" unicode="$" horiz-adv-x="475" 
d="M435 483l-109 1c0 81 -40 118 -86 118c-48 0 -83 -34 -83 -94c1 -73 65 -85 109 -95c131 -28 178 -108 178 -201c0 -130 -64 -191 -146 -210v-52h-115v51c-76 16 -151 77 -152 216h108c0 -84 47 -118 97 -118c63 0 97 38 97 101c0 68 -41 90 -119 108
c-64 15 -167 52 -167 192c0 122 64 179 136 197v53h115v-52c71 -18 137 -80 137 -215z" />
    <glyph glyph-name="Euro" unicode="&#x20ac;" horiz-adv-x="513" 
d="M80 418l1 49c0 185 105 242 205 242c96 0 197 -54 200 -233v-19h-111v16c-4 93 -40 129 -89 129c-53 0 -91 -38 -91 -142v-42h227l-48 -48h-180v-40h140l-48 -48h-92v-41c0 -104 38 -142 91 -142c50 0 86 36 90 130v15h111v-19c-3 -180 -105 -234 -201 -234
c-100 0 -205 57 -205 242v49h-50v48h50v40h-50v48h50z" />
    <glyph glyph-name="sterling" unicode="&#xa3;" horiz-adv-x="520" 
d="M489 467h-113v5c-4 93 -40 129 -90 129c-53 0 -91 -38 -91 -142v-66h136v-108h-136v-177h268v-108h-432v108h50v177h-50v108h50v76c1 183 105 239 205 239c96 0 200 -54 203 -233v-8z" />
    <glyph glyph-name="yen" unicode="&#xa5;" horiz-adv-x="548" 
d="M403 700h116l-117 -240h99v-108h-139l-19 -34l-2 -16h162v-108h-171v-194h-115v194h-170v108h161l-3 16l-19 34h-139v108h99l-117 240h116l129 -288z" />
    <glyph glyph-name="approxequal" unicode="&#x2248;" horiz-adv-x="548" 
d="M416 423l82 -1c0 -91 -36 -169 -117 -169c-49 0 -76 22 -122 48c-25 15 -49 25 -73 23c-35 -2 -54 -31 -54 -69h-82c0 94 38 174 123 174c36 0 60 -12 99 -32c33 -20 61 -40 97 -37c32 2 47 28 47 63zM416 223l81 -1c0 -91 -36 -169 -117 -169c-49 0 -76 23 -122 49
c-25 15 -49 24 -73 22c-35 -2 -53 -31 -53 -69h-82c0 94 38 174 123 174c36 0 60 -12 99 -32c33 -20 62 -40 98 -37c31 2 46 28 46 63z" />
    <glyph glyph-name="asciitilde" unicode="~" horiz-adv-x="548" 
d="M133 206l-82 2c0 94 38 174 123 174c37 0 61 -13 100 -34c32 -20 60 -40 95 -38c31 2 47 29 47 64h82c0 -91 -36 -169 -117 -169c-49 0 -76 22 -122 48c-25 15 -48 25 -72 23c-35 -2 -54 -31 -54 -70z" />
    <glyph glyph-name="divide" unicode="&#xf7;" horiz-adv-x="556" 
d="M224 392v102h103v-102h-103zM50 318h456v-108h-456v108zM224 32v102h103v-102h-103z" />
    <glyph glyph-name="emptyset" unicode="&#x2205;" horiz-adv-x="614" 
d="M566 431l-44 -42c27 -38 43 -85 43 -136c0 -143 -116 -259 -258 -259c-49 0 -96 16 -135 43l-44 -44l-77 77l43 43c-28 39 -45 87 -45 139c0 142 115 258 258 258c52 0 100 -17 139 -45l43 43zM306 85c96 0 167 76 167 168s-71 168 -167 168s-166 -76 -166 -168
s70 -168 166 -168z" />
    <glyph glyph-name="equal" unicode="=" horiz-adv-x="556" 
d="M50 432h456v-108h-456v108zM50 254h456v-108h-456v108z" />
    <glyph glyph-name="greater" unicode="&#x3e;" horiz-adv-x="503" 
d="M50 412v110l403 -204v-36l-403 -203v110l212 111z" />
    <glyph glyph-name="greaterequal" unicode="&#x2265;" horiz-adv-x="503" 
d="M50 449v111l403 -198v-36l-403 -198v110l212 105zM50 75h403v-108h-403v108z" />
    <glyph glyph-name="infinity" unicode="&#x221e;" horiz-adv-x="600" 
 />
    <glyph glyph-name="integral" unicode="&#x222b;" horiz-adv-x="370" 
d="M242 722l79 1v-108h-34c-32 0 -44 -25 -44 -70v-550c0 -96 -56 -133 -114 -133h-79v108h34c32 0 44 25 44 70v549c0 96 56 133 114 133z" />
    <glyph glyph-name="less" unicode="&#x3c;" horiz-adv-x="503" 
d="M50 318l403 204v-110l-212 -112l212 -111v-110l-403 203v36z" />
    <glyph glyph-name="lessequal" unicode="&#x2264;" horiz-adv-x="503" 
d="M50 362l403 197v-110l-212 -106l212 -105v-110l-403 198v36zM50 74h403v-108h-403v108z" />
    <glyph glyph-name="logicalnot" unicode="&#xac;" horiz-adv-x="556" 
d="M506 166h-114v108h-342v108h456v-216z" />
    <glyph glyph-name="minus" unicode="&#x2212;" horiz-adv-x="556" 
d="M50 382h456v-108h-456v108z" />
    <glyph glyph-name="multiply" unicode="&#xd7;" horiz-adv-x="498" 
d="M252 359l120 120l77 -77l-120 -120l120 -120l-81 -81l-120 120l-121 -121l-77 77l121 121l-121 121l81 81z" />
    <glyph glyph-name="notequal" unicode="&#x2260;" horiz-adv-x="522" 
d="M489 324h-155l-25 -67h181v-108h-221l-78 -212h-116l78 212h-119v108h159l25 67h-184v108h223l75 204h116l-75 -204h116v-108z" />
    <glyph glyph-name="partialdiff" unicode="&#x2202;" horiz-adv-x="600" 
 />
    <glyph glyph-name="percent" unicode="%" horiz-adv-x="703" 
d="M50 451v142c0 90 77 114 117 114c44 0 116 -28 116 -114v-143c0 -86 -72 -112 -116 -113c-40 0 -117 24 -117 114zM482 699h78l-339 -700h-78zM212 448v148c0 33 -27 45 -46 45c-17 0 -46 -10 -46 -45v-148c0 -35 29 -45 46 -45c19 1 46 12 46 45zM420 106v143
c0 90 77 114 117 114c44 0 116 -28 116 -114v-143c0 -86 -72 -113 -116 -114c-40 0 -117 24 -117 114zM582 104v148c0 33 -27 45 -46 45c-17 0 -46 -10 -46 -45v-148c0 -35 29 -45 46 -45c19 0 46 12 46 45z" />
    <glyph glyph-name="perthousand" unicode="&#x2030;" horiz-adv-x="970" 
d="M50 451v142c0 90 77 114 117 114c44 0 116 -28 116 -114v-143c0 -86 -72 -112 -116 -113c-40 0 -117 24 -117 114zM482 699h78l-339 -700h-78zM212 448v148c0 33 -27 45 -46 45c-17 0 -46 -10 -46 -45v-148c0 -35 29 -45 46 -45c19 1 46 12 46 45zM688 106v143
c0 90 77 114 117 114c44 0 116 -28 116 -114v-143c0 -86 -72 -113 -116 -114c-40 0 -117 24 -117 114zM420 106v143c0 90 77 114 117 114c44 0 116 -28 116 -114v-143c0 -86 -72 -113 -116 -114c-40 0 -117 24 -117 114zM851 104v148c0 33 -27 45 -46 45
c-17 0 -46 -10 -46 -45v-148c0 -35 29 -45 46 -45c19 0 46 12 46 45zM583 104v148c0 33 -27 45 -46 45c-17 0 -46 -10 -46 -45v-148c0 -35 29 -45 46 -45c19 0 46 12 46 45z" />
    <glyph glyph-name="plus" unicode="+" horiz-adv-x="555" 
d="M221 505h114v-171h171v-108h-170v-170h-115v170h-171v108h171v171z" />
    <glyph glyph-name="plusminus" unicode="&#xb1;" horiz-adv-x="556" 
d="M221 526h115v-96h171v-108h-171v-96h-115v96h-171v108h171v96zM507 26h-456v108h456v-108z" />
    <glyph glyph-name="product" unicode="&#x220f;" horiz-adv-x="600" 
 />
    <glyph glyph-name="radical" unicode="&#x221a;" horiz-adv-x="600" 
 />
    <glyph glyph-name="summation" unicode="&#x2211;" horiz-adv-x="600" 
 />
    <glyph glyph-name="ampersand" unicode="&#x26;" horiz-adv-x="546" 
d="M515 408v-107h-36v-94c0 -176 -99 -216 -215 -217h-12c-118 1 -221 55 -222 208v10c0 74 35 129 84 147c-43 17 -80 68 -80 141v10c1 157 104 202 211 202h63v-107h-63c-56 0 -97 -28 -97 -95v-5c0 -62 43 -93 101 -93h119v135h111v-135h36zM368 211l1 91h-119
c-67 0 -105 -35 -106 -98v-7c0 -58 43 -99 110 -99h8c67 1 106 27 106 113z" />
    <glyph glyph-name="at" unicode="@" horiz-adv-x="821" 
d="M539 -150l-140 2c-233 0 -346 130 -346 419c-1 288 117 407 362 406c308 -1 358 -151 358 -359v-164c0 -81 -50 -146 -149 -146c-62 -1 -102 22 -124 56c-23 -45 -64 -65 -112 -65c-63 0 -134 42 -134 176v165c0 134 71 176 134 176c45 0 84 -18 108 -58l12 48h66v-355
c0 -36 9 -60 49 -60c36 0 55 21 55 63v169c-1 157 -26 265 -263 266c-196 0 -274 -74 -273 -321c0 -227 69 -333 254 -333h143v-85zM350 295v-72c1 -109 25 -138 67 -138s66 29 65 138v72c0 110 -26 138 -66 138s-66 -28 -66 -138z" />
    <glyph glyph-name="bar" unicode="|" horiz-adv-x="214" 
d="M50 700h114v-760h-114v760z" />
    <glyph glyph-name="brokenbar" unicode="&#xa6;" horiz-adv-x="214" 
d="M50 700h115v-320h-115v320zM50 260h115v-320h-115v320z" />
    <glyph glyph-name="copyright" unicode="&#xa9;" horiz-adv-x="617" 
d="M309 700c149 0 267 -123 267 -270s-118 -269 -267 -269s-267 122 -267 269s118 270 267 270zM309 638c-120 0 -202 -95 -202 -207c0 -113 82 -207 202 -207s202 94 202 207c0 112 -82 207 -202 207zM204 402l1 60c0 98 53 129 104 129c49 0 98 -26 104 -108v-10h-53
c-6 54 -25 69 -52 69c-31 0 -50 -22 -50 -107v-7c0 -84 18 -107 50 -107c28 0 46 15 52 68h52v-10c-6 -81 -55 -107 -104 -107c-51 0 -104 31 -104 130z" />
    <glyph glyph-name="dagger" unicode="&#x2020;" horiz-adv-x="408" 
d="M146 700h116v-200h97v-108h-97v-451h-115v451h-97v108h96v200z" />
    <glyph glyph-name="daggerdbl" unicode="&#x2021;" horiz-adv-x="408" 
d="M146 700h116v-200h97v-108h-97v-185h97v-108h-97v-158h-115v158h-97v108h97v185h-97v108h96v200z" />
    <glyph glyph-name="degree" unicode="&#xb0;" horiz-adv-x="367" 
d="M183 755c74 0 134 -60 134 -134s-60 -134 -134 -134s-134 60 -134 134s60 134 134 134zM183 678c-31 0 -56 -25 -56 -56s25 -57 56 -57c32 0 57 26 57 57s-25 56 -57 56z" />
    <glyph glyph-name="lozenge" unicode="&#x25ca;" horiz-adv-x="600" 
 />
    <glyph glyph-name="paragraph" unicode="&#xb6;" horiz-adv-x="645" 
d="M178 700h437v-108h-38v-755h-114v755h-77v-755h-114v471h-94c-83 0 -148 64 -148 148v96c0 77 65 148 148 148z" />
    <glyph glyph-name="registered" unicode="&#xae;" horiz-adv-x="617" 
d="M309 694c149 0 267 -122 267 -269s-118 -269 -267 -269s-267 122 -267 269s118 269 267 269zM309 632c-120 0 -202 -95 -202 -208s82 -208 202 -208s202 95 202 208s-82 208 -202 208zM219 580h91c64 0 101 -37 101 -86v-12c-1 -34 -22 -61 -53 -73l62 -138h-58l-55 121
h-34v-121h-54v309zM273 448h35c30 0 48 14 48 41s-19 41 -48 41h-35v-82z" />
    <glyph glyph-name="section" unicode="&#xa7;" horiz-adv-x="411" 
d="M132 93l-1 -10c1 -56 40 -76 73 -76c42 0 73 20 73 69c0 65 -40 83 -98 96c-68 12 -142 54 -142 153c0 52 18 88 45 112c-26 23 -45 56 -45 104c0 114 77 161 167 161c89 0 169 -55 170 -165v-9h-105v6c-1 53 -33 73 -64 73c-33 0 -63 -16 -63 -59c0 -45 35 -62 74 -72
c118 -24 167 -89 167 -179c0 -47 -13 -83 -35 -109c23 -29 35 -65 35 -108c0 -117 -78 -169 -178 -169c-84 0 -177 53 -178 168v14h105zM176 390l1 3c-23 -8 -41 -26 -41 -59c0 -51 46 -61 78 -72c16 -6 33 -13 47 -23c15 12 24 31 24 59c0 50 -35 68 -75 81
c-10 3 -22 6 -34 11z" />
    <glyph glyph-name="trademark" unicode="&#x2122;" horiz-adv-x="636" 
d="M15 625v75h229v-75h-73v-330h-82v330h-74zM516 700h103v-405h-82v249l-70 -178h-53l-71 178v-249h-82v405h105l75 -196z" />
    <glyph glyph-name="asciicircum" unicode="^" horiz-adv-x="463" 
d="M50 446l182 247l182 -247h-82l-100 138l-100 -138h-82z" />
    <glyph glyph-name="commaaccentcomb" unicode="&#x326;" horiz-adv-x="0" 
d="M55 -63h95v-93l-35 -94h-36l16 94h-40v93z" />
    <glyph glyph-name="acute" unicode="&#xb4;" horiz-adv-x="278" 
d="M113 712h109l-91 -151h-75z" />
    <glyph glyph-name="breve" unicode="&#x2d8;" horiz-adv-x="381" 
d="M60 700h79c6 -23 27 -40 53 -40c25 0 46 17 52 40h80c-6 -68 -63 -121 -132 -121s-126 53 -132 121z" />
    <glyph glyph-name="caron" unicode="&#x2c7;" horiz-adv-x="409" 
d="M271 704h73l-87 -148h-102l-87 148h71l66 -72z" />
    <glyph glyph-name="cedilla" unicode="&#xb8;" horiz-adv-x="242" 
d="M115 0l76 1v-38c-1 -94 -29 -134 -123 -136h-19v69h18c37 2 47 23 48 68v36z" />
    <glyph glyph-name="circumflex" unicode="&#x2c6;" horiz-adv-x="409" 
d="M154 704h100l87 -148h-71l-66 72l-66 -72h-71z" />
    <glyph glyph-name="dieresis" unicode="&#xa8;" horiz-adv-x="343" 
d="M54 606v94h95v-94h-95zM197 606v94h95v-94h-95z" />
    <glyph glyph-name="dotaccent" unicode="&#x2d9;" horiz-adv-x="203" 
d="M54 607v94h95v-94h-95z" />
    <glyph glyph-name="grave" unicode="`" horiz-adv-x="278" 
d="M56 714h109l57 -151h-75z" />
    <glyph glyph-name="hungarumlaut" unicode="&#x2dd;" horiz-adv-x="432" 
d="M117 712h101l-91 -151h-67zM255 712h101l-91 -151h-67z" />
    <glyph glyph-name="macron" unicode="&#xaf;" horiz-adv-x="378" 
d="M50 700h278v-85h-278v85z" />
    <glyph glyph-name="ogonek" unicode="&#x2db;" horiz-adv-x="230" 
d="M101 0h73c-22 -22 -47 -46 -45 -74c1 -22 16 -30 40 -31h12v-69h-14c-77 1 -112 27 -117 71c-4 48 33 83 51 103z" />
    <glyph glyph-name="ring" unicode="&#x2da;" horiz-adv-x="341" 
d="M170 741c59 0 107 -48 107 -106c0 -59 -48 -107 -107 -107s-106 48 -106 107c0 58 47 106 106 106zM170 674c-22 0 -39 -18 -39 -39c0 -22 17 -40 39 -40s40 18 40 40c0 21 -18 39 -40 39z" />
    <glyph glyph-name="tilde" unicode="&#x2dc;" horiz-adv-x="371" 
d="M263 703l69 1c0 -67 -16 -141 -84 -141c-23 0 -39 7 -71 34c-20 18 -32 20 -44 19c-19 -2 -25 -20 -25 -54h-69c0 67 16 141 83 141c28 0 45 -13 73 -35c20 -19 33 -20 44 -18c18 2 24 19 24 53z" />
    <glyph glyph-name="afii10050" unicode="&#x490;" horiz-adv-x="424" 
d="M289 764h102v-172h-233v-593h-111v701h242v64z" />
    <glyph glyph-name="_30" horiz-adv-x="500" 
 />
    <glyph glyph-name="afii10098" unicode="&#x491;" horiz-adv-x="338" 
d="M226 553h85v-138h-180v-415h-94v500h189v53z" />
    <glyph glyph-name="afii10053" unicode="&#x404;" horiz-adv-x="486" 
d="M451 469h-111c-3 96 -40 133 -90 133c-53 0 -91 -38 -91 -142v-53h162v-109h-162v-56c0 -104 38 -142 91 -142c50 0 87 36 90 133h111v-5c-2 -181 -104 -236 -201 -236c-100 0 -205 57 -205 242v233c0 186 105 243 205 243c97 0 199 -55 201 -236v-5z" />
    <glyph glyph-name="afii10101" unicode="&#x454;" horiz-adv-x="381" 
d="M349 333h-92c-2 72 -32 91 -66 91c-36 0 -65 -20 -65 -96v-34h105v-85h-106v-34c1 -77 29 -98 67 -98c35 0 64 20 66 91h91c0 -135 -83 -176 -158 -176s-160 42 -160 176v165c0 134 85 176 160 176s158 -41 158 -176z" />
    <glyph glyph-name="afii10055" unicode="&#x406;" horiz-adv-x="206" 
d="M46 0v700h115v-700h-115z" />
    <glyph glyph-name="afii10103" unicode="&#x456;" horiz-adv-x="180" 
d="M39 573v95h103v-95h-103zM44 0v500h94v-500h-94z" />
    <glyph glyph-name="afii10056" unicode="&#x407;" horiz-adv-x="206" 
d="M46 699h115v-700h-115v700zM132 879h126v-124h-126v124zM-51 879h126v-124h-126v124z" />
    <glyph glyph-name="afii10104" unicode="&#x457;" horiz-adv-x="180" 
d="M44 0v501h94v-501h-94zM114 668h104v-95h-104v95zM-36 668h103v-95h-103v95z" />
    </font>
</defs>
</svg>
