<?xml version="1.0" standalone="no"?>
<!DOCTYPE svg PUBLIC "-//W3C//DTD SVG 1.1//EN" "http://www.w3.org/Graphics/SVG/1.1/DTD/svg11.dtd" >
<svg xmlns="http://www.w3.org/2000/svg" xmlns:xlink="http://www.w3.org/1999/xlink" version="1.1">
<metadata>
Created by FontForge 20141024 at Thu Sep 17 12:37:59 2015
 By Jimmy Warting
Copyright (c) 2012 by Mariya Pigoulevskaya. All rights reserved.
</metadata>
<defs>
<font id="Silpo-Regular" horiz-adv-x="394" >
  <font-face 
    font-family="Silpo"
    font-weight="400"
    font-stretch="normal"
    units-per-em="1000"
    panose-1="2 0 6 0 0 0 0 0 0 0"
    ascent="750"
    descent="-250"
    x-height="500"
    cap-height="700"
    bbox="-46 -216 866 959"
    underline-thickness="50"
    underline-position="-50"
    stemh="65"
    stemv="63"
    unicode-range="U+0020-FB02"
  />
<missing-glyph horiz-adv-x="250" 
 />
    <glyph glyph-name=".notdef" horiz-adv-x="250" 
 />
    <glyph glyph-name="A" unicode="A" horiz-adv-x="535" 
d="M423 0l-58 213h-196l-57 -213h-65l180 700h81l180 -700h-65zM178 279h177l-88 342z" />
    <glyph glyph-name="Aacute" unicode="&#xc1;" horiz-adv-x="535" 
d="M264 906h76l-86 -130h-48zM228 700h80l180 -700h-65l-57 213h-196l-57 -213h-65zM356 279l-88 342l-89 -342h177z" />
    <glyph glyph-name="Abreve" unicode="&#x102;" horiz-adv-x="535" 
d="M341 900h50c-9 -59 -61 -104 -123 -104s-114 45 -123 104h51c9 -31 38 -54 72 -54c35 0 64 23 73 54zM226 700h80l180 -700h-65l-57 213h-196l-57 -213h-65zM354 279l-88 342l-89 -342h177z" />
    <glyph glyph-name="Acaron" unicode="&#x1cd;" horiz-adv-x="535" 
d="M351 902h49l-100 -136h-65l-100 136h50l83 -91zM226 700h80l180 -700h-65l-57 213h-196l-57 -213h-65zM354 279l-88 342l-89 -342h177z" />
    <glyph glyph-name="Acircumflex" unicode="&#xc2;" horiz-adv-x="535" 
d="M236 902l66 -1l100 -136h-50l-83 91l-83 -91h-50zM229 699h80l180 -700h-65l-57 213h-196l-57 -213h-65zM357 278l-88 342l-89 -342h177z" />
    <glyph glyph-name="Adieresis" unicode="&#xc4;" horiz-adv-x="535" 
d="M180 900h61v-61h-61v61zM298 900h61v-61h-61v61zM229 700h80l180 -700h-65l-57 213h-196l-57 -213h-65zM357 279l-88 342l-89 -342h177z" />
    <glyph glyph-name="Agrave" unicode="&#xc0;" horiz-adv-x="535" 
d="M201 907h76l58 -130h-48zM228 700h80l180 -700h-65l-57 213h-196l-57 -213h-65zM356 279l-88 342l-89 -342h177z" />
    <glyph glyph-name="Amacron" unicode="&#x100;" horiz-adv-x="535" 
d="M126 900h285v-52h-285v52zM227 700h80l180 -700h-65l-57 213h-196l-57 -213h-65zM355 279l-88 342l-89 -342h177z" />
    <glyph glyph-name="Aogonek" unicode="&#x104;" horiz-adv-x="535" 
d="M227 700h79l180 -700c-28 -21 -62 -47 -61 -85c1 -30 21 -39 50 -40h16v-44h-23c-60 2 -91 27 -91 75c0 53 44 78 65 94h-20l-57 213h-196l-57 -213h-65zM354 279l-88 342l-89 -342h177z" />
    <glyph glyph-name="Aring" unicode="&#xc5;" horiz-adv-x="535" 
d="M268 920c54 0 98 -45 98 -97c0 -55 -44 -99 -98 -99c-55 0 -97 44 -97 99c0 52 42 97 97 97zM268 877c-31 0 -54 -25 -54 -54c0 -31 23 -55 54 -55c30 0 54 24 54 55c0 29 -24 54 -54 54zM227 700h80l180 -700h-65l-57 213h-196l-57 -213h-65zM355 279l-88 342l-89 -342
h177z" />
    <glyph glyph-name="Atilde" unicode="&#xc3;" horiz-adv-x="535" 
d="M360 902h47c0 -53 -7 -124 -69 -124c-23 0 -41 8 -78 44c-25 25 -36 27 -51 27c-25 -1 -31 -24 -31 -71h-45c0 53 7 124 69 124c29 0 48 -17 77 -43c26 -28 40 -28 52 -27c24 1 29 24 29 70zM229 700h80l180 -700h-65l-57 213h-196l-57 -213h-65zM357 279l-88 342
l-89 -342h177z" />
    <glyph glyph-name="AE" unicode="&#xc6;" horiz-adv-x="606" 
d="M231 700l336 -1v-63h-238v-246h228v-63h-228v-264h238v-63h-303v213h-90l-57 -213h-65zM264 278v313l-80 -313h80z" />
    <glyph glyph-name="B" unicode="B" horiz-adv-x="476" 
d="M63 700l163 -1c97 0 200 -45 200 -165v-26c0 -77 -43 -124 -102 -146c75 -23 120 -78 120 -161v-24c0 -115 -82 -177 -210 -177h-171v700zM362 506v14c0 84 -68 116 -138 116h-98v-246h98c74 0 138 34 138 116zM377 189v15c0 83 -55 126 -145 126h-104v-267h104
c90 0 145 42 145 126z" />
    <glyph glyph-name="C" unicode="C" horiz-adv-x="497" 
d="M62 234v232c0 185 103 242 203 242c95 0 193 -52 199 -225v-16h-65l-1 15c-7 125 -66 164 -133 164c-72 0 -136 -43 -136 -188v-216c0 -145 64 -188 137 -188c66 0 124 39 133 162l1 18h65v-15c-6 -174 -105 -227 -200 -227c-100 0 -203 57 -203 242z" />
    <glyph glyph-name="Cacute" unicode="&#x106;" horiz-adv-x="497" 
d="M240 906h76l-86 -130h-48zM63 234v232c0 185 103 242 203 242c95 0 193 -52 199 -225v-16h-65l-1 15c-7 125 -66 164 -133 164c-72 0 -136 -43 -136 -188v-216c0 -145 64 -188 137 -188c66 0 124 39 133 162l1 18h65v-15c-6 -174 -105 -227 -200 -227
c-100 0 -203 57 -203 242z" />
    <glyph glyph-name="Ccaron" unicode="&#x10c;" horiz-adv-x="497" 
d="M332 902h49l-100 -136h-65l-100 136h50l83 -91zM62 234v232c0 185 103 242 203 242c95 0 193 -52 199 -225v-16h-65l-1 15c-7 125 -66 164 -133 164c-72 0 -136 -43 -136 -188v-216c0 -145 64 -188 137 -188c66 0 124 39 133 162l1 18h65v-15
c-6 -174 -105 -227 -200 -227c-100 0 -203 57 -203 242z" />
    <glyph glyph-name="Ccedilla" unicode="&#xc7;" horiz-adv-x="497" 
d="M62 234v230c0 185 103 242 203 242c95 0 193 -52 199 -225v-16h-65l-1 15c-7 125 -66 164 -133 164c-72 0 -136 -43 -136 -188v-216c0 -145 64 -188 137 -188c66 0 124 39 133 162l1 18h65v-15c-5 -145 -75 -206 -153 -222v-49c0 -80 -24 -116 -100 -117h-27v45h27
c39 2 52 24 52 71v47l-15 1c-94 6 -187 66 -187 241z" />
    <glyph glyph-name="Cdotaccent" unicode="&#x10a;" horiz-adv-x="497" 
d="M218 900h61v-61h-61v61zM62 234v232c0 185 103 242 203 242c95 0 193 -52 199 -225v-16h-65l-1 15c-7 125 -66 164 -133 164c-72 0 -136 -43 -136 -188v-216c0 -145 64 -188 137 -188c66 0 124 39 133 162l1 18h65v-15c-6 -174 -105 -227 -200 -227
c-100 0 -203 57 -203 242z" />
    <glyph glyph-name="D" unicode="D" horiz-adv-x="505" 
d="M63 700h180c98 0 203 -53 203 -242v-216c0 -189 -105 -242 -203 -242h-180v700zM381 251v198c0 145 -67 188 -138 188h-115v-574h115c71 0 138 43 138 188z" />
    <glyph glyph-name="Eth" unicode="&#xd0;" horiz-adv-x="505" 
d="M63 700h180c98 0 203 -53 203 -242v-216c0 -189 -105 -242 -203 -242h-180v306h-46v64h46v330zM381 251v198c0 145 -67 188 -138 188h-115v-267h137v-64h-137v-243h115c71 0 138 43 138 188z" />
    <glyph glyph-name="Dcaron" unicode="&#x10e;" horiz-adv-x="505" 
d="M285 766l-66 -1l-100 137h50l83 -91l83 91h50zM62 699h180c98 0 203 -53 203 -242v-216c0 -189 -105 -242 -203 -242h-180v700zM380 250v198c0 145 -67 188 -138 188h-115v-574h115c71 0 138 43 138 188z" />
    <glyph glyph-name="Dcroat" unicode="&#x110;" horiz-adv-x="505" 
d="M73 700h180c98 0 203 -53 203 -242v-216c0 -189 -105 -242 -203 -242h-180v321h-66v52h66v327zM391 251v198c0 145 -67 188 -138 188h-115v-264h107v-52h-107v-258h115c71 0 138 43 138 188z" />
    <glyph glyph-name="E" unicode="E" horiz-adv-x="398" 
d="M366 637l-238 -1v-246h228v-63h-228v-264h238v-63h-303v700h303v-63z" />
    <glyph glyph-name="Eacute" unicode="&#xc9;" horiz-adv-x="398" 
d="M191 906h76l-86 -130h-48zM64 700l303 -1v-63h-238v-246h228v-63h-228v-264h238v-63h-303v700z" />
    <glyph glyph-name="Ecaron" unicode="&#x11a;" horiz-adv-x="398" 
d="M283 902h49l-100 -136h-65l-100 136h50l83 -91zM63 700l303 -1v-63h-238v-246h228v-63h-228v-264h238v-63h-303v700z" />
    <glyph glyph-name="Ecircumflex" unicode="&#xca;" horiz-adv-x="398" 
d="M167 902l66 -1l100 -136h-50l-83 91l-83 -91h-50zM64 699l303 -1v-63h-238v-246h228v-63h-228v-264h238v-63h-303v700z" />
    <glyph glyph-name="Edieresis" unicode="&#xcb;" horiz-adv-x="398" 
d="M111 900h61v-61h-61v61zM229 900h61v-61h-61v61zM64 700l303 -1v-63h-238v-246h228v-63h-228v-264h238v-63h-303v700z" />
    <glyph glyph-name="Edotaccent" unicode="&#x116;" horiz-adv-x="398" 
d="M169 900h61v-61h-61v61zM63 700l303 -1v-63h-238v-246h228v-63h-228v-264h238v-63h-303v700z" />
    <glyph glyph-name="Egrave" unicode="&#xc8;" horiz-adv-x="398" 
d="M132 907h76l58 -130h-48zM63 700l303 -1v-63h-238v-246h228v-63h-228v-264h238v-63h-303v700z" />
    <glyph glyph-name="Emacron" unicode="&#x112;" horiz-adv-x="398" 
d="M57 900h285v-52h-285v52zM63 700l303 -1v-63h-238v-246h228v-63h-228v-264h238v-63h-303v700z" />
    <glyph glyph-name="Eogonek" unicode="&#x118;" horiz-adv-x="398" 
d="M63 700l302 -1v-63h-238v-246h228v-63h-228v-264h238v-63h-36c-28 -21 -59 -46 -58 -82c1 -31 21 -40 51 -41h15v-44h-16c-62 1 -96 23 -98 70c-2 51 38 80 61 97h-221v700z" />
    <glyph glyph-name="F" unicode="F" horiz-adv-x="390" 
d="M359 637l-231 -1v-255h221v-63h-221v-318h-65v700h296v-63z" />
    <glyph glyph-name="G" unicode="G" horiz-adv-x="527" 
d="M62 234l-1 234c0 185 102 242 202 242c97 0 199 -55 202 -235v-10h-64v7c-4 134 -69 175 -138 175c-72 0 -136 -43 -136 -188v-216c0 -145 64 -188 137 -188c71 0 138 42 138 186v70h-130v63h194v-140c0 -186 -104 -242 -202 -242c-100 0 -202 57 -202 242z" />
    <glyph glyph-name="Gbreve" unicode="&#x11e;" horiz-adv-x="527" 
d="M336 900h50c-9 -59 -61 -104 -123 -104s-114 45 -123 104h51c9 -31 38 -54 72 -54c35 0 64 23 73 54zM61 234l-1 234c0 185 102 242 202 242c97 0 199 -55 202 -235v-10h-64v7c-4 134 -69 175 -138 175c-72 0 -136 -43 -136 -188v-216c0 -145 64 -188 137 -188
c71 0 138 42 138 186v70h-130v63h194v-140c0 -186 -104 -242 -202 -242c-100 0 -202 57 -202 242z" />
    <glyph glyph-name="Gcommaaccent" unicode="&#x122;" horiz-adv-x="527" 
d="M62 234l-1 234c0 185 102 242 202 242c97 0 199 -55 202 -235v-10h-64v7c-4 134 -69 175 -138 175c-72 0 -136 -43 -136 -188v-216c0 -145 64 -188 137 -188c71 0 138 42 138 186v70h-130v63h194v-140c0 -186 -104 -242 -202 -242c-100 0 -202 57 -202 242zM230 -84h65
v-65l-26 -63h-23l11 63h-27v65z" />
    <glyph glyph-name="Gdotaccent" unicode="&#x120;" horiz-adv-x="527" 
d="M233 839v61h61v-61h-61zM62 234l-1 234c0 185 102 242 202 242c97 0 199 -55 202 -235v-10h-64v7c-4 134 -69 175 -138 175c-72 0 -136 -43 -136 -188v-216c0 -145 64 -188 137 -188c71 0 138 42 138 186v70h-130v63h194v-140c0 -186 -104 -242 -202 -242
c-100 0 -202 57 -202 242z" />
    <glyph glyph-name="H" unicode="H" horiz-adv-x="499" 
d="M371 700h65v-700h-65v328h-242v-328h-65v700h65v-309h242v309z" />
    <glyph glyph-name="Hbar" unicode="&#x126;" horiz-adv-x="624" 
d="M591 564v-59h-93v-506h-65v328h-242v-328h-65v506h-93v59h93v136h65v-136h242v136h65v-136h93zM432 390v115h-242v-115h242z" />
    <glyph glyph-name="I" unicode="I" horiz-adv-x="193" 
d="M63 0v700h67v-700h-67z" />
    <glyph glyph-name="IJ" unicode="&#x132;" horiz-adv-x="521" 
d="M63 700h67v-700h-67v700zM392 700l65 -1v-466c0 -177 -96 -237 -186 -241h-31v63h19c67 3 133 48 133 188v457z" />
    <glyph glyph-name="Iacute" unicode="&#xcd;" horiz-adv-x="193" 
d="M88 906h76l-86 -130h-48zM64 0v700h67v-700h-67z" />
    <glyph glyph-name="Icaron" unicode="&#x1cf;" horiz-adv-x="193" 
d="M180 902h49l-100 -136h-65l-100 136h50l83 -91zM63 0v700h67v-700h-67z" />
    <glyph glyph-name="Icircumflex" unicode="&#xce;" horiz-adv-x="193" 
d="M64 902l66 -1l100 -136h-50l-83 91l-83 -91h-50zM64 -1v700h67v-700h-67z" />
    <glyph glyph-name="Idieresis" unicode="&#xcf;" horiz-adv-x="193" 
d="M8 839v61h61v-61h-61zM125 839v61h61v-61h-61zM63 0v700h67v-700h-67z" />
    <glyph glyph-name="Idotaccent" unicode="&#x130;" horiz-adv-x="193" 
d="M66 839v61h61v-61h-61zM63 0v700h67v-700h-67z" />
    <glyph glyph-name="Igrave" unicode="&#xcc;" horiz-adv-x="193" 
d="M30 907h76l58 -130h-48zM64 0v700h67v-700h-67z" />
    <glyph glyph-name="Imacron" unicode="&#x12a;" horiz-adv-x="193" 
d="M-46 900h285v-52h-285v52zM63 0v700h67v-700h-67z" />
    <glyph glyph-name="Iogonek" unicode="&#x12e;" horiz-adv-x="193" 
d="M63 700h64v-700c-28 -21 -62 -47 -61 -85c1 -31 21 -40 51 -41h15v-44h-16c-63 1 -97 25 -98 73c-1 53 44 80 67 97h-22v700z" />
    <glyph glyph-name="J" unicode="J" horiz-adv-x="328" 
d="M200 700h66v-466c0 -177 -96 -238 -186 -242h-32v63h19c67 3 133 49 133 188v457z" />
    <glyph glyph-name="K" unicode="K" horiz-adv-x="507" 
d="M460 0l-79 -1l-251 326v-326h-67v700h67v-306l231 307h77l-249 -342z" />
    <glyph glyph-name="Kcommaaccent" unicode="&#x136;" horiz-adv-x="507" 
d="M188 358l271 -359h-79l-251 326v-326h-67v700h67v-306l231 307h77zM221 -151v65h65v-65l-26 -63h-23l11 63h-27z" />
    <glyph glyph-name="L" unicode="L" horiz-adv-x="406" 
d="M128 63h231v-63h-296v700h65v-637z" />
    <glyph glyph-name="Lacute" unicode="&#x139;" horiz-adv-x="406" 
d="M195 906h76l-86 -130h-48zM64 700h65v-637h231v-63h-296v700z" />
    <glyph glyph-name="Lcaron" unicode="&#x13d;" horiz-adv-x="444" 
d="M296 573l11 63h-27v65h65v-65l-26 -63h-23zM128 64h231v-63h-296v700h65v-637z" />
    <glyph glyph-name="Lcommaaccent" unicode="&#x13b;" horiz-adv-x="406" 
d="M128 63h231v-63h-296v700h65v-637zM171 -150v65h65v-65l-26 -63h-23l11 63h-27z" />
    <glyph glyph-name="Ldot" unicode="&#x13f;" horiz-adv-x="437" 
d="M128 63h231v-63h-296v700h65v-637zM304 317v25h26v-25h-26z" />
    <glyph glyph-name="Lslash" unicode="&#x141;" horiz-adv-x="475" 
d="M178 63h250v-63h-315v350l-99 -61v67l99 61v283h65v-262l100 62v-67l-100 -62v-308z" />
    <glyph glyph-name="M" unicode="M" horiz-adv-x="636" 
d="M495 700h79v-700h-64v541l-170 -541h-45l-170 541v-541h-64v700h78l178 -570z" />
    <glyph glyph-name="N" unicode="N" horiz-adv-x="509" 
d="M385 700h64v-700h-64l-260 553v-553h-64v700h64l260 -553v553z" />
    <glyph glyph-name="Nacute" unicode="&#x143;" horiz-adv-x="509" 
d="M246 906h76l-86 -130h-48zM385 700h64v-700h-64l-260 553v-553h-64v700h64l260 -553v553z" />
    <glyph glyph-name="Ncaron" unicode="&#x147;" horiz-adv-x="509" 
d="M338 902h49l-100 -136h-65l-100 136h50l83 -91zM384 700h64v-700h-64l-260 553v-553h-64v700h64l260 -553v553z" />
    <glyph glyph-name="Ncommaaccent" unicode="&#x145;" horiz-adv-x="509" 
d="M385 700h64v-700h-64l-260 553v-553h-64v700h64l260 -553v553zM223 -150v65h65v-65l-26 -63h-23l11 63h-27z" />
    <glyph glyph-name="Eng" unicode="&#x14a;" horiz-adv-x="600" 
d="M444 700h65v-687c-1 -154 -56 -185 -147 -186h-27v62h17c62 1 89 13 91 116l-257 559v-564h-65v700h64l259 -563v563z" />
    <glyph glyph-name="Ntilde" unicode="&#xd1;" horiz-adv-x="509" 
d="M347 902h47c0 -53 -7 -124 -69 -124c-23 0 -41 8 -78 44c-25 25 -36 27 -51 27c-25 -1 -31 -24 -31 -71h-45c0 53 7 124 69 124c29 0 48 -17 77 -43c26 -28 40 -28 52 -27c24 1 29 24 29 70zM387 700h64v-700h-64l-260 553v-553h-64v700h64l260 -553v553z" />
    <glyph glyph-name="O" unicode="O" horiz-adv-x="518" 
d="M55 234v233c0 185 103 242 203 242c98 0 204 -56 204 -242v-233c0 -186 -106 -242 -204 -242c-100 0 -203 57 -203 242zM396 243l-1 216c0 145 -67 188 -138 188c-72 0 -136 -43 -136 -188v-216c0 -145 64 -188 137 -188c71 0 138 43 138 188z" />
    <glyph glyph-name="Oacute" unicode="&#xd3;" horiz-adv-x="518" 
d="M251 906h76l-86 -130h-48zM56 234v233c0 185 103 242 203 242c98 0 204 -56 204 -242v-233c0 -186 -106 -242 -204 -242c-100 0 -203 57 -203 242zM397 243l-1 216c0 145 -67 188 -138 188c-72 0 -136 -43 -136 -188v-216c0 -145 64 -188 137 -188c71 0 138 43 138 188z
" />
    <glyph glyph-name="Ocaron" unicode="&#x1d1;" horiz-adv-x="518" 
d="M343 902h49l-100 -136h-65l-100 136h50l83 -91zM55 234v233c0 185 103 242 203 242c98 0 204 -56 204 -242v-233c0 -186 -106 -242 -204 -242c-100 0 -203 57 -203 242zM396 243l-1 216c0 145 -67 188 -138 188c-72 0 -136 -43 -136 -188v-216c0 -145 64 -188 137 -188
c71 0 138 43 138 188z" />
    <glyph glyph-name="Ocircumflex" unicode="&#xd4;" horiz-adv-x="518" 
d="M227 902l66 -1l100 -136h-50l-83 91l-83 -91h-50zM56 233v233c0 185 103 242 203 242c98 0 204 -56 204 -242v-233c0 -186 -106 -242 -204 -242c-100 0 -203 57 -203 242zM397 242l-1 216c0 145 -67 188 -138 188c-72 0 -136 -43 -136 -188v-216c0 -145 64 -188 137 -188
c71 0 138 43 138 188z" />
    <glyph glyph-name="Odieresis" unicode="&#xd6;" horiz-adv-x="518" 
d="M171 839v61h61v-61h-61zM288 839v61h61v-61h-61zM55 234v233c0 185 103 242 203 242c98 0 204 -56 204 -242v-233c0 -186 -106 -242 -204 -242c-100 0 -203 57 -203 242zM396 243l-1 216c0 145 -67 188 -138 188c-72 0 -136 -43 -136 -188v-216c0 -145 64 -188 137 -188
c71 0 138 43 138 188z" />
    <glyph glyph-name="Ograve" unicode="&#xd2;" horiz-adv-x="518" 
d="M193 907h76l58 -130h-48zM56 234v233c0 185 103 242 203 242c98 0 204 -56 204 -242v-233c0 -186 -106 -242 -204 -242c-100 0 -203 57 -203 242zM397 243l-1 216c0 145 -67 188 -138 188c-72 0 -136 -43 -136 -188v-216c0 -145 64 -188 137 -188c71 0 138 43 138 188z
" />
    <glyph glyph-name="Ohungarumlaut" unicode="&#x150;" horiz-adv-x="518" 
d="M195 906h72l-86 -130h-44zM312 906h72l-86 -130h-44zM56 234v233c0 185 103 242 203 242c98 0 204 -56 204 -242v-233c0 -186 -106 -242 -204 -242c-100 0 -203 57 -203 242zM397 243l-1 216c0 145 -67 188 -138 188c-72 0 -136 -43 -136 -188v-216
c0 -145 64 -188 137 -188c71 0 138 43 138 188z" />
    <glyph glyph-name="Omacron" unicode="&#x14c;" horiz-adv-x="518" 
d="M118 900h285v-52h-285v52zM56 234v233c0 185 103 242 203 242c98 0 204 -56 204 -242v-233c0 -186 -106 -242 -204 -242c-100 0 -203 57 -203 242zM397 243l-1 216c0 145 -67 188 -138 188c-72 0 -136 -43 -136 -188v-216c0 -145 64 -188 137 -188c71 0 138 43 138 188z
" />
    <glyph glyph-name="Oslash" unicode="&#xd8;" horiz-adv-x="518" 
d="M446 750l-41 -99c35 -38 58 -97 58 -184v-233c0 -186 -106 -242 -204 -242c-39 0 -78 9 -112 30l-30 -72h-45l41 100c-35 38 -58 97 -58 184v233c0 185 103 242 203 242c39 0 79 -9 113 -31l30 72h45zM122 459l-1 -216c0 -51 8 -90 22 -118l202 491c-24 22 -55 31 -87 31
c-72 0 -136 -43 -136 -188zM396 243v216c0 51 -8 89 -22 117l-202 -491c24 -22 54 -30 86 -30c71 0 138 43 138 188z" />
    <glyph glyph-name="Otilde" unicode="&#xd5;" horiz-adv-x="518" 
d="M353 902h46c0 -53 -7 -124 -69 -124c-23 0 -41 8 -77 44c-25 25 -36 27 -51 27c-25 -1 -31 -24 -31 -71h-45c0 53 7 124 69 124c29 0 48 -17 77 -43c26 -28 40 -28 52 -27c24 1 29 24 29 70zM57 234v233c0 185 103 242 203 242c98 0 204 -56 204 -242v-233
c0 -186 -106 -242 -204 -242c-100 0 -203 57 -203 242zM398 243l-1 216c0 145 -67 188 -138 188c-72 0 -136 -43 -136 -188v-216c0 -145 64 -188 137 -188c71 0 138 43 138 188z" />
    <glyph glyph-name="OE" unicode="&#x152;" horiz-adv-x="776" 
d="M41 234v232c0 185 103 242 203 242c59 0 121 -23 154 -90v81h303v-63h-238v-246h228v-63h-228v-264h238v-63h-303v82c-33 -67 -95 -90 -154 -90c-100 0 -203 57 -203 242zM382 242l-1 216c0 145 -67 188 -138 188c-72 0 -136 -43 -136 -188v-216c0 -145 64 -188 137 -188
c71 0 138 43 138 188z" />
    <glyph glyph-name="P" unicode="P" horiz-adv-x="487" 
d="M63 700h155c100 0 210 -44 210 -181v-37c0 -130 -105 -178 -203 -180h-97v-302h-65v700zM364 493v17c0 101 -71 128 -138 128h-98v-273h98c67 0 138 28 138 128z" />
    <glyph glyph-name="Thorn" unicode="&#xde;" horiz-adv-x="465" 
d="M63 706l65 1v-113h75c98 -2 204 -47 204 -181v-30c0 -131 -106 -178 -204 -180h-75v-203h-65v706zM343 394v9c0 102 -71 128 -138 128h-76v-265h76c67 0 138 28 138 128z" />
    <glyph glyph-name="Q" unicode="Q" horiz-adv-x="558" 
d="M496 55l-1 -63h-219h-12c-100 0 -202 57 -202 242v233c0 185 102 242 202 242c98 0 203 -56 203 -242v-233c0 -84 -21 -141 -53 -179h82zM127 458v-216c0 -145 64 -188 137 -188v0v0h6c68 3 131 48 131 188v216c0 145 -67 188 -138 188c-72 0 -136 -43 -136 -188z" />
    <glyph glyph-name="R" unicode="R" horiz-adv-x="490" 
d="M63 700h162c100 0 210 -43 210 -180v-30c0 -95 -60 -144 -127 -162l135 -328h-69l-126 309h-120v-309h-65v700zM371 500v9c0 102 -71 128 -138 128h-105v-265h105c67 0 138 28 138 128z" />
    <glyph glyph-name="Racute" unicode="&#x154;" horiz-adv-x="490" 
d="M237 906h76l-86 -130h-48zM64 700l161 1c100 0 210 -43 210 -180v-30c0 -94 -59 -142 -125 -160l133 -330h-69l-127 301l-118 2v-304h-65v700zM371 501v9c0 102 -71 128 -138 128h-105v-265h105c67 0 138 28 138 128z" />
    <glyph glyph-name="Rcaron" unicode="&#x158;" horiz-adv-x="490" 
d="M329 902h49l-100 -136h-65l-100 136h50l83 -91zM63 700l161 1c100 0 210 -43 210 -180v-30c0 -94 -59 -142 -125 -160l133 -330h-69l-127 301l-118 2v-304h-65v700zM370 501v9c0 102 -71 128 -138 128h-105v-265h105c67 0 138 28 138 128z" />
    <glyph glyph-name="Rcommaaccent" unicode="&#x156;" horiz-adv-x="490" 
d="M63 700l161 1c100 0 210 -43 210 -180v-30c0 -94 -59 -142 -125 -160l133 -330h-69l-127 301l-118 2v-304h-65v700zM370 501v9c0 102 -71 128 -138 128h-105v-265h105c67 0 138 28 138 128zM212 -84h65v-65l-26 -63h-23l11 63h-27v65z" />
    <glyph glyph-name="S" unicode="S" horiz-adv-x="500" 
d="M46 210l63 -2c0 -115 75 -155 140 -155c83 0 140 41 140 134c0 92 -60 123 -144 147c-68 19 -180 49 -180 187c0 140 97 187 190 187c92 0 192 -56 192 -219h-63c0 111 -65 156 -129 156c-65 0 -124 -36 -124 -120c2 -102 98 -117 142 -129c128 -35 182 -98 182 -203
c0 -152 -95 -202 -205 -202c-94 0 -203 55 -204 219z" />
    <glyph glyph-name="Sacute" unicode="&#x15a;" horiz-adv-x="500" 
d="M241 906h76l-86 -130h-48zM46 210l63 -2c0 -115 75 -155 140 -155c83 0 140 41 140 134c0 92 -60 123 -144 147c-68 19 -180 49 -180 187c0 140 97 187 190 187c92 0 192 -56 192 -219h-63c0 111 -65 156 -129 156c-65 0 -124 -36 -124 -120c2 -102 98 -117 142 -129
c128 -35 182 -98 182 -203c0 -152 -95 -202 -205 -202c-94 0 -203 55 -204 219z" />
    <glyph glyph-name="Scaron" unicode="&#x160;" horiz-adv-x="500" 
d="M333 902h49l-100 -136h-65l-100 136h50l83 -91zM45 210l63 -2c0 -115 75 -155 140 -155c83 0 140 41 140 134c0 92 -60 123 -144 147c-68 19 -180 49 -180 187c0 140 97 187 190 187c92 0 192 -56 192 -219h-63c0 111 -65 156 -129 156c-65 0 -124 -36 -124 -120
c2 -102 98 -117 142 -129c128 -35 182 -98 182 -203c0 -152 -95 -202 -205 -202c-94 0 -203 55 -204 219z" />
    <glyph glyph-name="Scedilla" unicode="&#x15e;" horiz-adv-x="500" 
d="M46 210l62 -3c0 -115 75 -155 140 -155c83 0 140 41 140 134c0 92 -60 123 -144 147c-68 19 -180 49 -180 187c0 140 97 187 190 187c92 0 192 -56 192 -219h-63c0 111 -65 156 -129 156c-65 0 -124 -36 -124 -120c2 -102 98 -117 142 -129c128 -35 182 -98 182 -203
c0 -120 -60 -176 -140 -194v-53c-1 -79 -26 -115 -102 -116h-25v45h25c41 1 54 23 54 71v48h-31c-88 5 -188 62 -189 217z" />
    <glyph glyph-name="Scommaaccent" unicode="&#x218;" horiz-adv-x="500" 
d="M446 490l-64 -2c0 111 -65 156 -129 156c-65 0 -124 -36 -124 -120c2 -102 98 -117 142 -129c128 -35 182 -98 182 -203c0 -152 -95 -202 -205 -202c-94 0 -203 55 -204 219h64c0 -115 75 -155 140 -155c83 0 140 41 140 134c0 92 -60 123 -144 147
c-68 19 -180 49 -180 187c0 140 97 187 190 187c92 0 192 -56 192 -219zM217 -152v65h65v-65l-26 -63h-23l11 63h-27z" />
    <glyph glyph-name="T" unicode="T" horiz-adv-x="452" 
d="M405 700l-1 -63h-146v-637h-65v637h-146v63h358z" />
    <glyph glyph-name="Tbar" unicode="&#x166;" horiz-adv-x="452" 
d="M47 700h357v-63h-146v-226h94v-51h-94v-359h-65v359h-89v51h89v226h-146v63z" />
    <glyph glyph-name="Tcaron" unicode="&#x164;" horiz-adv-x="452" 
d="M309 902h49l-100 -136h-65l-100 136h50l83 -91zM404 700l-1 -63h-146v-637h-65v637h-146v63h358z" />
    <glyph glyph-name="Tcedilla" unicode="&#x162;" horiz-adv-x="452" 
d="M47 700l357 1v-63h-146v-686c0 -83 -24 -120 -102 -121h-25v44h24c42 1 54 23 56 73v52h-18v637h-146v63z" />
    <glyph glyph-name="uni021A" unicode="&#x21a;" horiz-adv-x="452" 
d="M47 700h357v-63h-146v-637h-65v637h-146v63zM193 -85h65v-65l-26 -63h-23l11 63h-27v65z" />
    <glyph glyph-name="U" unicode="U" horiz-adv-x="524" 
d="M127 700l1 -460c0 -141 62 -185 134 -185c71 0 136 44 136 185v460h65v-469c0 -184 -103 -239 -201 -239c-100 0 -200 56 -200 239v469h65z" />
    <glyph glyph-name="Uacute" unicode="&#xda;" horiz-adv-x="524" 
d="M254 906h76l-86 -130h-48zM129 240l-1 460h-65v-469c0 -183 100 -239 200 -239c98 0 201 55 201 239v469h-65v-460c0 -141 -65 -185 -136 -185c-72 0 -134 44 -134 185z" />
    <glyph glyph-name="Ucaron" unicode="&#x1d3;" horiz-adv-x="524" 
d="M345 902h49l-100 -136h-65l-100 136h50l83 -91zM127 240l-1 460h-65v-469c0 -183 100 -239 200 -239c98 0 201 55 201 239v469h-65v-460c0 -141 -65 -185 -136 -185c-72 0 -134 44 -134 185z" />
    <glyph glyph-name="Ucircumflex" unicode="&#xdb;" horiz-adv-x="524" 
d="M230 902l66 -1l100 -136h-50l-83 91l-83 -91h-50zM130 239l-1 460h-65v-469c0 -183 100 -239 200 -239c98 0 201 55 201 239v469h-65v-460c0 -141 -65 -185 -136 -185c-72 0 -134 44 -134 185z" />
    <glyph glyph-name="Udieresis" unicode="&#xdc;" horiz-adv-x="524" 
d="M173 839v61h61v-61h-61zM290 839v61h61v-61h-61zM127 240l-1 460h-65v-469c0 -183 100 -239 200 -239c98 0 201 55 201 239v469h-65v-460c0 -141 -65 -185 -136 -185c-72 0 -134 44 -134 185z" />
    <glyph glyph-name="Udieresisacute" unicode="&#x1d7;" horiz-adv-x="524" 
d="M255 959h76l-86 -130h-48zM174 792h61v-61h-61v61zM292 792h61v-61h-61v61zM400 700h65v-469c0 -184 -103 -239 -201 -239c-100 0 -200 56 -200 239v469h65v-460c0 -141 62 -185 135 -185c71 0 136 44 136 185v460z" />
    <glyph glyph-name="Udieresiscaron" unicode="&#x1d9;" horiz-adv-x="524" 
d="M345 954h49l-100 -136h-65l-100 136h50l83 -91zM173 732v61h61v-61h-61zM290 732v61h61v-61h-61zM127 241l-1 460h-65v-469c0 -183 100 -239 200 -239c98 0 201 55 201 239v469h-65v-460c0 -141 -65 -185 -136 -185c-72 0 -134 44 -134 185z" />
    <glyph glyph-name="Udieresisgrave" unicode="&#x1db;" horiz-adv-x="524" 
d="M195 959h76l58 -130h-48zM174 732v61h61v-61h-61zM291 732v61h61v-61h-61zM128 241l-1 460h-65v-469c0 -183 100 -239 200 -239c98 0 201 55 201 239v469h-65v-460c0 -141 -65 -185 -136 -185c-72 0 -134 44 -134 185z" />
    <glyph glyph-name="Udieresismacron" unicode="&#x1d5;" horiz-adv-x="524" 
d="M120 945h285v-52h-285v52zM174 732v61h61v-61h-61zM291 732v61h61v-61h-61zM128 241l-1 460h-65v-469c0 -183 100 -239 200 -239c98 0 201 55 201 239v469h-65v-460c0 -141 -65 -185 -136 -185c-72 0 -134 44 -134 185z" />
    <glyph glyph-name="Ugrave" unicode="&#xd9;" horiz-adv-x="524" 
d="M195 907h76l58 -130h-48zM129 240l-1 460h-65v-469c0 -183 100 -239 200 -239c98 0 201 55 201 239v469h-65v-460c0 -141 -65 -185 -136 -185c-72 0 -134 44 -134 185z" />
    <glyph glyph-name="Uhungarumlaut" unicode="&#x170;" horiz-adv-x="524" 
d="M198 906h72l-86 -130h-44zM315 906h72l-86 -130h-44zM130 240l-1 460h-65v-469c0 -183 100 -239 200 -239c98 0 201 55 201 239v469h-65v-460c0 -141 -65 -185 -136 -185c-72 0 -134 44 -134 185z" />
    <glyph glyph-name="Umacron" unicode="&#x16a;" horiz-adv-x="524" 
d="M120 900h285v-52h-285v52zM128 240l-1 460h-65v-469c0 -183 100 -239 200 -239c98 0 201 55 201 239v469h-65v-460c0 -141 -65 -185 -136 -185c-72 0 -134 44 -134 185z" />
    <glyph glyph-name="Uogonek" unicode="&#x172;" horiz-adv-x="524" 
d="M399 700l64 1v-469c0 -121 -47 -184 -105 -212l-18 -20c-25 -18 -62 -46 -61 -85c1 -30 21 -40 51 -41h15v-44h-15c-65 1 -98 25 -99 73c-1 46 33 73 56 90l-24 -1c-100 0 -200 56 -200 239v469h65v-460c0 -141 62 -185 135 -185c71 0 136 44 136 185v460z" />
    <glyph glyph-name="Uring" unicode="&#x16e;" horiz-adv-x="524" 
d="M262 920c54 0 98 -45 98 -97c0 -55 -44 -99 -98 -99c-55 0 -97 44 -97 99c0 52 42 97 97 97zM262 877c-31 0 -54 -25 -54 -54c0 -31 23 -55 54 -55c30 0 54 24 54 55c0 29 -24 54 -54 54zM128 240l-1 460h-65v-469c0 -183 100 -239 200 -239c98 0 201 55 201 239v469h-65
v-460c0 -141 -65 -185 -136 -185c-72 0 -134 44 -134 185z" />
    <glyph glyph-name="V" unicode="V" horiz-adv-x="536" 
d="M423 700h66l-180 -700h-82l-180 700h66l155 -596z" />
    <glyph glyph-name="W" unicode="W" horiz-adv-x="804" 
d="M691 700h65l-154 -700h-75l-126 546l-126 -546h-75l-153 700h66l129 -587l129 587h62l129 -587z" />
    <glyph glyph-name="Wacute" unicode="&#x1e82;" horiz-adv-x="804" 
d="M394 906h76l-86 -130h-48zM691 700h65l-154 -700h-75l-126 546l-126 -546h-75l-153 700h66l129 -587l129 587h62l129 -587z" />
    <glyph glyph-name="Wcircumflex" unicode="&#x174;" horiz-adv-x="804" 
d="M370 902l66 -1l100 -136h-50l-83 91l-83 -91h-50zM692 699h65l-154 -700h-75l-126 546l-126 -546h-75l-153 700h66l129 -587l129 587h62l129 -587z" />
    <glyph glyph-name="Wdieresis" unicode="&#x1e84;" horiz-adv-x="804" 
d="M314 900h61v-61h-61v61zM432 900h61v-61h-61v61zM692 700h65l-154 -700h-75l-126 546l-126 -546h-75l-153 700h66l129 -587l129 587h62l129 -587z" />
    <glyph glyph-name="Wgrave" unicode="&#x1e80;" horiz-adv-x="804" 
d="M336 907h76l58 -130h-48zM692 700h65l-154 -700h-75l-126 546l-126 -546h-75l-153 700h66l129 -587l129 587h62l129 -587z" />
    <glyph glyph-name="X" unicode="X" horiz-adv-x="508" 
d="M458 700l-165 -346l165 -354h-68l-137 288l-139 -288h-68l165 353l-162 347h69l135 -285l136 285h69z" />
    <glyph glyph-name="Y" unicode="Y" horiz-adv-x="512" 
d="M396 700h69l-177 -412v-288h-67v288l-174 412h69l139 -338z" />
    <glyph glyph-name="Yacute" unicode="&#xdd;" horiz-adv-x="512" 
d="M248 906h76l-86 -130h-48zM397 700h69l-177 -412v-288h-67v288l-174 412h69l139 -338z" />
    <glyph glyph-name="Ycircumflex" unicode="&#x176;" horiz-adv-x="512" 
d="M224 902l66 -1l100 -136h-50l-83 91l-83 -91h-50zM397 699h69l-177 -412v-288h-67v288l-174 412h69l139 -338z" />
    <glyph glyph-name="Ydieresis" unicode="&#x178;" horiz-adv-x="512" 
d="M168 839v61h61v-61h-61zM285 839v61h61v-61h-61zM396 700h69l-177 -412v-288h-67v288l-174 412h69l139 -338z" />
    <glyph glyph-name="Ygrave" unicode="&#x1ef2;" horiz-adv-x="512" 
d="M190 907h76l58 -130h-48zM397 700h69l-177 -412v-288h-67v288l-174 412h69l139 -338z" />
    <glyph glyph-name="Z" unicode="Z" horiz-adv-x="509" 
d="M118 64h346v-64h-417v55l339 582h-332v63h403v-56z" />
    <glyph glyph-name="Zacute" unicode="&#x179;" horiz-adv-x="509" 
d="M246 906h76l-86 -130h-48zM54 700h404v-56l-339 -580h345v-64h-417v55l339 582h-332v63z" />
    <glyph glyph-name="Zcaron" unicode="&#x17d;" horiz-adv-x="509" 
d="M338 902h49l-100 -136h-65l-100 136h50l83 -91zM53 700h404v-56l-339 -580h345v-64h-417v55l339 582h-332v63z" />
    <glyph glyph-name="Zdotaccent" unicode="&#x17b;" horiz-adv-x="509" 
d="M225 900h61v-61h-61v61zM54 700h404v-56l-339 -580h345v-64h-417v55l339 582h-332v63z" />
    <glyph glyph-name="a" unicode="a" horiz-adv-x="393" 
d="M304 500h43v-500h-43l-6 65c-24 -52 -68 -73 -117 -73c-68 0 -140 41 -140 176v165c0 135 72 176 140 176c49 0 93 -21 117 -71zM98 306v-111c0 -120 44 -152 97 -152c54 0 96 32 96 152v111c0 121 -44 152 -96 152c-51 0 -97 -31 -97 -152z" />
    <glyph glyph-name="aacute" unicode="&#xe1;" horiz-adv-x="393" 
d="M189 706h76l-86 -130h-48zM305 500h43v-500h-43l-6 65c-24 -52 -68 -73 -117 -73c-68 0 -140 41 -140 176v165c0 135 72 176 140 176c49 0 93 -21 117 -71zM99 306v-111c0 -120 44 -152 97 -152c54 0 96 32 96 152v111c0 121 -44 152 -96 152c-51 0 -97 -31 -97 -152z
" />
    <glyph glyph-name="abreve" unicode="&#x103;" horiz-adv-x="393" 
d="M270 700h50c-9 -59 -61 -104 -123 -104s-114 45 -123 104h51c9 -31 38 -54 72 -54c35 0 64 23 73 54zM40 168v165c0 135 72 176 140 176c49 0 93 -21 117 -71l6 62h43v-500h-43l-6 65c-24 -52 -68 -73 -117 -73c-68 0 -140 41 -140 176zM289 195v111
c0 121 -44 152 -96 152c-51 0 -97 -31 -97 -152v-111c0 -120 44 -152 97 -152c54 0 96 32 96 152z" />
    <glyph glyph-name="acaron" unicode="&#x1ce;" horiz-adv-x="393" 
d="M280 702h49l-100 -136h-65l-100 136h50l83 -91zM303 500h43v-500h-43l-6 65c-24 -52 -68 -73 -117 -73c-68 0 -140 41 -140 176v165c0 135 72 176 140 176c49 0 93 -21 117 -71zM97 306v-111c0 -120 44 -152 97 -152c54 0 96 32 96 152v111c0 121 -44 152 -96 152
c-51 0 -97 -31 -97 -152z" />
    <glyph glyph-name="acircumflex" unicode="&#xe2;" horiz-adv-x="393" 
d="M165 702l66 -1l100 -136h-50l-83 91l-83 -91h-50zM305 499h43v-500h-43l-6 65c-24 -52 -68 -73 -117 -73c-68 0 -140 41 -140 176v165c0 135 72 176 140 176c49 0 93 -21 117 -71zM99 305v-111c0 -120 44 -152 97 -152c54 0 96 32 96 152v111c0 121 -44 152 -96 152
c-51 0 -97 -31 -97 -152z" />
    <glyph glyph-name="adieresis" unicode="&#xe4;" horiz-adv-x="393" 
d="M108 639v61h61v-61h-61zM225 639v61h61v-61h-61zM303 500h43v-500h-43l-6 65c-24 -52 -68 -73 -117 -73c-68 0 -140 41 -140 176v165c0 135 72 176 140 176c49 0 93 -21 117 -71zM97 306v-111c0 -120 44 -152 97 -152c54 0 96 32 96 152v111c0 121 -44 152 -96 152
c-51 0 -97 -31 -97 -152z" />
    <glyph glyph-name="agrave" unicode="&#xe0;" horiz-adv-x="393" 
d="M130 707h76l58 -130h-48zM41 168v165c0 135 72 176 140 176c49 0 93 -21 117 -71l6 62h43v-500h-43l-6 65c-24 -52 -68 -73 -117 -73c-68 0 -140 41 -140 176zM290 195v111c0 121 -44 152 -96 152c-51 0 -97 -31 -97 -152v-111c0 -120 44 -152 97 -152c54 0 96 32 96 152
z" />
    <glyph glyph-name="amacron" unicode="&#x101;" horiz-adv-x="393" 
d="M55 700h285v-52h-285v52zM304 500h43v-500h-43l-6 65c-24 -52 -68 -73 -117 -73c-68 0 -140 41 -140 176v165c0 135 72 176 140 176c49 0 93 -21 117 -71zM98 306v-111c0 -120 44 -152 97 -152c54 0 96 32 96 152v111c0 121 -44 152 -96 152c-51 0 -97 -31 -97 -152z" />
    <glyph glyph-name="aogonek" unicode="&#x105;" horiz-adv-x="393" 
d="M41 168v164c0 135 72 176 140 176c49 0 93 -21 117 -71l6 62h42v-500c-28 -21 -61 -48 -59 -85c1 -30 21 -39 51 -39h14v-44h-14c-65 0 -99 23 -100 71c-1 53 43 81 66 98l-6 65c-24 -52 -68 -73 -117 -73c-68 0 -140 41 -140 176zM290 194v111c0 121 -44 152 -96 152
c-51 0 -97 -31 -97 -152v-111c0 -120 44 -152 97 -152c54 0 96 32 96 152z" />
    <glyph glyph-name="aring" unicode="&#xe5;" horiz-adv-x="393" 
d="M197 720c54 0 98 -45 98 -97c0 -55 -44 -99 -98 -99c-55 0 -97 44 -97 99c0 52 42 97 97 97zM197 677c-31 0 -54 -25 -54 -54c0 -31 23 -55 54 -55c30 0 54 24 54 55c0 29 -24 54 -54 54zM304 500h43v-500h-43l-6 65c-24 -52 -68 -73 -117 -73c-68 0 -140 41 -140 176
v165c0 135 72 176 140 176c49 0 93 -21 117 -71zM98 306v-111c0 -120 44 -152 97 -152c54 0 96 32 96 152v111c0 121 -44 152 -96 152c-51 0 -97 -31 -97 -152z" />
    <glyph glyph-name="atilde" unicode="&#xe3;" horiz-adv-x="393" 
d="M289 702h46c0 -53 -7 -124 -69 -124c-23 0 -41 8 -77 44c-25 25 -36 27 -51 27c-25 -1 -31 -24 -31 -71h-45c0 53 7 124 69 124c29 0 48 -17 77 -43c26 -28 40 -28 52 -27c24 1 29 24 29 70zM305 500h43v-500h-43l-6 65c-24 -52 -68 -73 -117 -73c-68 0 -140 41 -140 176
v165c0 135 72 176 140 176c49 0 93 -21 117 -71zM99 306v-111c0 -120 44 -152 97 -152c54 0 96 32 96 152v111c0 121 -44 152 -96 152c-51 0 -97 -31 -97 -152z" />
    <glyph glyph-name="ae" unicode="&#xe6;" horiz-adv-x="653" 
d="M41 168l-1 167c0 135 72 176 140 176c49 0 93 -21 117 -71l6 62h43v-51c26 44 70 60 113 60c73 0 153 -41 153 -176v-108h-248v-45c0 -109 43 -138 96 -138c47 0 92 25 96 119h56c-2 -131 -80 -171 -152 -171c-43 0 -87 16 -113 60v-52h-43l-6 65
c-24 -52 -68 -73 -117 -73c-68 0 -140 41 -140 176zM289 197v111c0 121 -44 152 -96 152c-51 0 -97 -31 -97 -152v-111c0 -120 44 -152 97 -152c54 0 96 32 96 152zM555 271v54c0 107 -48 134 -96 134c-51 0 -96 -27 -96 -134v-54h192z" />
    <glyph glyph-name="b" unicode="b" horiz-adv-x="395" 
d="M105 700v-257c23 46 65 66 111 66c68 0 139 -41 139 -176v-165c0 -135 -71 -176 -139 -176c-50 0 -94 22 -118 74l-6 -66h-43v700h56zM298 195v111c0 121 -46 152 -97 152c-52 0 -96 -31 -96 -152v-111c0 -120 42 -152 96 -152c53 0 97 32 97 152z" />
    <glyph glyph-name="c" unicode="c" horiz-adv-x="384" 
d="M41 168l1 166c0 134 79 176 152 176c72 0 148 -39 152 -167v-18h-55c-2 106 -48 134 -97 134c-52 0 -96 -31 -96 -152v-111c0 -120 42 -152 96 -152c50 0 94 28 96 133h55v-16c-3 -129 -80 -169 -152 -169c-73 0 -152 42 -152 176z" />
    <glyph glyph-name="cacute" unicode="&#x107;" horiz-adv-x="384" 
d="M184 706h76l-86 -130h-48zM42 168l1 166c0 134 79 176 152 176c72 0 148 -39 152 -167v-18h-55c-2 106 -48 134 -97 134c-52 0 -96 -31 -96 -152v-111c0 -120 42 -152 96 -152c50 0 94 28 96 133h55v-16c-3 -129 -80 -169 -152 -169c-73 0 -152 42 -152 176z" />
    <glyph glyph-name="ccaron" unicode="&#x10d;" horiz-adv-x="384" 
d="M276 702h49l-100 -136h-65l-100 136h50l83 -91zM41 168l1 166c0 134 79 176 152 176c72 0 148 -39 152 -167v-18h-55c-2 106 -48 134 -97 134c-52 0 -96 -31 -96 -152v-111c0 -120 42 -152 96 -152c50 0 94 28 96 133h55v-16c-3 -129 -80 -169 -152 -169
c-73 0 -152 42 -152 176z" />
    <glyph glyph-name="ccedilla" unicode="&#xe7;" horiz-adv-x="384" 
d="M41 168l2 166c0 134 79 176 152 176c72 0 148 -39 152 -166v-19h-55c-2 106 -48 134 -97 134c-52 0 -96 -31 -96 -152v-111c0 -120 42 -152 96 -152c50 0 94 28 96 133h55v-16c-2 -90 -40 -137 -88 -156v-56c0 -81 -25 -117 -103 -118h-25v44h25c41 1 54 23 54 72v49
c-11 -2 -22 -2 -33 -1c-68 5 -135 49 -135 173z" />
    <glyph glyph-name="cdotaccent" unicode="&#x10b;" horiz-adv-x="384" 
d="M162 700h61v-61h-61v61zM41 168l1 166c0 134 79 176 152 176c72 0 148 -39 152 -167v-18h-55c-2 106 -48 134 -97 134c-52 0 -96 -31 -96 -152v-111c0 -120 42 -152 96 -152c50 0 94 28 96 133h55v-16c-3 -129 -80 -169 -152 -169c-73 0 -152 42 -152 176z" />
    <glyph glyph-name="d" unicode="d" horiz-adv-x="393" 
d="M290 700l56 -1v-700h-43l-6 66c-24 -52 -68 -74 -118 -74c-68 0 -139 41 -139 176v165c0 135 71 176 139 176c46 0 88 -19 111 -65v257zM97 305v-111c0 -120 44 -152 97 -152c54 0 96 32 96 152v111c0 121 -44 152 -96 152c-51 0 -97 -31 -97 -152z" />
    <glyph glyph-name="eth" unicode="&#xf0;" horiz-adv-x="458" 
d="M405 656l-75 -44c9 -19 15 -44 15 -76v-368c-3 -130 -78 -176 -152 -176c-73 0 -153 41 -153 176v165c0 135 80 176 153 176c39 0 76 -20 97 -60v76c0 105 -44 133 -96 133c-39 0 -74 -17 -89 -75h-57l2 9c17 88 83 117 144 117c42 0 85 -14 114 -51l70 42zM289 195v111
c0 114 -44 152 -96 152c-50 0 -96 -31 -96 -152v-111c0 -120 44 -152 96 -152c54 0 96 32 96 152z" />
    <glyph glyph-name="dcaron" unicode="&#x10f;" horiz-adv-x="507" 
d="M290 443v256h56v-700h-43l-6 66c-24 -52 -68 -74 -118 -74c-68 0 -139 41 -139 176v165c0 135 71 176 139 176c46 0 88 -19 111 -65zM396 699h65v-65l-26 -63h-23l11 63h-27v65zM97 305v-111c0 -120 44 -152 97 -152c54 0 96 32 96 152v111c0 121 -44 152 -96 152
c-51 0 -97 -31 -97 -152z" />
    <glyph glyph-name="dcroat" unicode="&#x111;" horiz-adv-x="406" 
d="M424 631v-52h-78v-581h-43l-6 66c-24 -52 -68 -74 -118 -74c-68 0 -139 41 -139 176v165c0 135 71 176 139 176c46 0 88 -19 111 -65v138h-92v51h92v69h56v-69h78zM97 304v-111c0 -120 44 -152 97 -152c54 0 96 32 96 152v111c0 121 -44 152 -96 152
c-51 0 -97 -31 -97 -152z" />
    <glyph glyph-name="e" unicode="e" horiz-adv-x="385" 
d="M41 168l-1 167c0 134 79 176 152 176s153 -41 153 -176v-108h-248v-45c0 -109 43 -138 96 -138c47 0 92 25 96 119h56c-2 -131 -80 -171 -152 -171c-73 0 -152 42 -152 176zM288 271v54c0 107 -48 134 -96 134c-51 0 -96 -27 -96 -134v-54h192z" />
    <glyph glyph-name="eacute" unicode="&#xe9;" horiz-adv-x="385" 
d="M184 706h76l-86 -130h-48zM42 168l-1 167c0 134 79 176 152 176s153 -41 153 -176v-108h-248v-45c0 -109 43 -138 96 -138c47 0 92 25 96 119h56c-2 -131 -80 -171 -152 -171c-73 0 -152 42 -152 176zM289 271v54c0 107 -48 134 -96 134c-51 0 -96 -27 -96 -134v-54h192z
" />
    <glyph glyph-name="ecaron" unicode="&#x11b;" horiz-adv-x="385" 
d="M276 702h49l-100 -136h-65l-100 136h50l83 -91zM41 168l-1 167c0 134 79 176 152 176s153 -41 153 -176v-108h-248v-45c0 -109 43 -138 96 -138c47 0 92 25 96 119h56c-2 -131 -80 -171 -152 -171c-73 0 -152 42 -152 176zM288 271v54c0 107 -48 134 -96 134
c-51 0 -96 -27 -96 -134v-54h192z" />
    <glyph glyph-name="ecircumflex" unicode="&#xea;" horiz-adv-x="385" 
d="M160 702l66 -1l100 -136h-50l-83 91l-83 -91h-50zM42 167l-1 167c0 134 79 176 152 176s153 -41 153 -176v-108h-248v-45c0 -109 43 -138 96 -138c47 0 92 25 96 119h56c-2 -131 -80 -171 -152 -171c-73 0 -152 42 -152 176zM289 270v54c0 107 -48 134 -96 134
c-51 0 -96 -27 -96 -134v-54h192z" />
    <glyph glyph-name="edieresis" unicode="&#xeb;" horiz-adv-x="385" 
d="M104 639v61h61v-61h-61zM221 639v61h61v-61h-61zM41 168l-1 167c0 134 79 176 152 176s153 -41 153 -176v-108h-248v-45c0 -109 43 -138 96 -138c47 0 92 25 96 119h56c-2 -131 -80 -171 -152 -171c-73 0 -152 42 -152 176zM288 271v54c0 107 -48 134 -96 134
c-51 0 -96 -27 -96 -134v-54h192z" />
    <glyph glyph-name="edotaccent" unicode="&#x117;" horiz-adv-x="385" 
d="M162 639v61h61v-61h-61zM41 168l-1 167c0 134 79 176 152 176s153 -41 153 -176v-108h-248v-45c0 -109 43 -138 96 -138c47 0 92 25 96 119h56c-2 -131 -80 -171 -152 -171c-73 0 -152 42 -152 176zM288 271v54c0 107 -48 134 -96 134c-51 0 -96 -27 -96 -134v-54h192z
" />
    <glyph glyph-name="egrave" unicode="&#xe8;" horiz-adv-x="385" 
d="M125 707h76l58 -130h-48zM41 168l-1 167c0 134 79 176 152 176s153 -41 153 -176v-108h-248v-45c0 -109 43 -138 96 -138c47 0 92 25 96 119h56c-2 -131 -80 -171 -152 -171c-73 0 -152 42 -152 176zM288 271v54c0 107 -48 134 -96 134c-51 0 -96 -27 -96 -134v-54h192z
" />
    <glyph glyph-name="emacron" unicode="&#x113;" horiz-adv-x="385" 
d="M50 700h285v-52h-285v52zM41 168l-1 167c0 134 79 176 152 176s153 -41 153 -176v-108h-248v-45c0 -109 43 -138 96 -138c47 0 92 25 96 119h56c-2 -131 -80 -171 -152 -171c-73 0 -152 42 -152 176zM288 271v54c0 107 -48 134 -96 134c-51 0 -96 -27 -96 -134v-54h192z
" />
    <glyph glyph-name="eogonek" unicode="&#x119;" horiz-adv-x="385" 
d="M41 168l-1 167c0 134 79 176 152 176s153 -41 153 -176v-108h-248v-45c0 -109 43 -138 96 -138c47 0 92 25 96 119h56c-1 -86 -35 -132 -78 -153l-7 -3c-27 -19 -60 -43 -59 -80c1 -31 21 -40 51 -41h15v-44h-16c-62 1 -96 23 -98 70c-1 42 28 65 50 81
c-7 -1 -14 -1 -21 0c-70 4 -141 47 -141 175zM288 271l-1 54c0 107 -48 134 -96 134c-50 0 -95 -27 -95 -134v-54h192z" />
    <glyph glyph-name="f" unicode="f" horiz-adv-x="313" 
d="M249 709l26 -1v-51h-14c-66 -1 -92 -18 -92 -137v-20h106v-52h-106v-448h-56v448h-76v51h76v34c0 147 52 175 136 176z" />
    <glyph glyph-name="g" unicode="g" 
d="M41 176v155c0 135 71 176 139 176c50 0 94 -22 118 -72l6 63h43v-499c-1 -132 -79 -173 -152 -173c-60 0 -126 28 -145 113h58c16 -47 51 -61 87 -61c52 0 96 28 96 133v56c-23 -48 -65 -67 -111 -67c-68 0 -139 41 -139 176zM290 199l1 105c0 121 -44 152 -96 152
s-97 -31 -97 -152v-105c0 -121 44 -152 96 -152c53 0 96 31 96 152z" />
    <glyph glyph-name="gbreve" unicode="&#x11f;" 
d="M270 700h50c-9 -59 -61 -104 -123 -104s-114 45 -123 104h51c9 -31 38 -54 72 -54c35 0 64 23 73 54zM40 176v155c0 135 71 176 139 176c50 0 94 -22 118 -72l6 63h43v-499c-1 -132 -79 -173 -152 -173c-60 0 -126 28 -145 113h58c16 -47 51 -61 87 -61
c52 0 96 28 96 132v57c-23 -48 -65 -67 -111 -67c-68 0 -139 41 -139 176zM289 199l1 105c0 121 -44 152 -96 152s-97 -31 -97 -152v-105c0 -121 44 -152 96 -152c53 0 96 31 96 152z" />
    <glyph glyph-name="gcommaaccent" unicode="&#x123;" horiz-adv-x="393" 
d="M188 754h21l-10 -58h25v-61h-61v61zM41 176v155c0 135 71 176 139 176c50 0 94 -22 118 -72l6 63h43v-499c-1 -132 -79 -173 -152 -173c-60 0 -126 28 -145 113h58c16 -47 51 -61 87 -61c52 0 96 28 96 132v57c-23 -48 -65 -67 -111 -67c-68 0 -139 41 -139 176zM290 199
l1 105c0 121 -44 152 -96 152s-97 -31 -97 -152v-105c0 -121 44 -152 96 -152c53 0 96 31 96 152z" />
    <glyph glyph-name="gdotaccent" unicode="&#x121;" 
d="M167 700h61v-61h-61v61zM41 176v156c0 135 71 176 139 176c50 0 94 -22 118 -72l6 63h43v-499c-1 -132 -79 -173 -152 -173c-60 0 -126 28 -145 113h58c16 -47 51 -61 87 -61c52 0 96 27 96 130v58c-23 -48 -65 -67 -111 -67c-68 0 -139 41 -139 176zM290 200l1 105
c0 121 -44 152 -96 152s-97 -31 -97 -152v-105c0 -121 44 -152 96 -152c53 0 96 31 96 152z" />
    <glyph glyph-name="h" unicode="h" horiz-adv-x="401" 
d="M107 700l-1 -260c23 48 65 68 111 68c68 0 139 -41 139 -176v-333h-56v306c0 121 -46 152 -97 152s-96 -28 -96 -139v-318h-56v700h56z" />
    <glyph glyph-name="hbar" unicode="&#x127;" horiz-adv-x="428" 
d="M134 579l-1 -140c23 48 65 69 111 69c68 0 139 -41 139 -176v-333h-56v306c0 121 -46 152 -97 152s-96 -28 -96 -139v-318h-56v578h-101v51h101v71h56v-70h101v-51h-101z" />
    <glyph glyph-name="i" unicode="i" horiz-adv-x="165" 
d="M51 585v61h65v-61h-65zM55 0v500h56v-500h-56z" />
    <glyph glyph-name="dotlessi" unicode="&#x131;" horiz-adv-x="211" 
d="M77 0v500h56v-500h-56z" />
    <glyph glyph-name="iacute" unicode="&#xed;" horiz-adv-x="233" 
d="M106 706h76l-86 -130h-48zM78 0v500h56v-500h-56z" />
    <glyph glyph-name="icaron" unicode="&#x1d0;" horiz-adv-x="250" 
d="M209 702h49l-100 -136h-65l-100 136h50l83 -91zM97 0v500h56v-500h-56z" />
    <glyph glyph-name="icircumflex" unicode="&#xee;" horiz-adv-x="250" 
d="M93 702l66 -1l100 -136h-50l-83 91l-83 -91h-50zM99 -1v500h56v-500h-56z" />
    <glyph glyph-name="idieresis" unicode="&#xef;" horiz-adv-x="261" 
d="M42 639v61h61v-61h-61zM159 639v61h61v-61h-61zM104 0v500h56v-500h-56z" />
    <glyph glyph-name="igrave" unicode="&#xec;" horiz-adv-x="236" 
d="M54 707h76l58 -130h-48zM103 0v500h56v-500h-56z" />
    <glyph glyph-name="ij" unicode="&#x133;" horiz-adv-x="428" 
d="M51 646h65v-61h-65v61zM316 645h63v-60h-63v60zM55 500h56v-500h-56v500zM319 500h56v-497c0 -145 -51 -174 -132 -176h-30v51h12c68 1 94 19 94 142v480z" />
    <glyph glyph-name="imacron" unicode="&#x12b;" horiz-adv-x="244" 
d="M-20 700h285v-52h-285v52zM95 0v500h56v-500h-56z" />
    <glyph glyph-name="iogonek" unicode="&#x12f;" horiz-adv-x="214" 
d="M75 639v61h61v-61h-61zM133 500l-1 -501c-28 -20 -62 -45 -62 -83c0 -31 20 -41 51 -42h15v-44h-16c-64 1 -97 25 -98 73c-1 53 45 80 67 97h-12v500h56z" />
    <glyph glyph-name="j" unicode="j" horiz-adv-x="263" 
d="M151 645h63v-60h-63v60zM154 500l56 1v-497c0 -149 -53 -176 -138 -177h-24v51h12c68 1 94 19 94 142v480z" />
    <glyph glyph-name="k" unicode="k" horiz-adv-x="370" 
d="M334 0h-61l-169 226v-226h-56v700h56v-414l160 214h61l-172 -244z" />
    <glyph glyph-name="kcommaaccent" unicode="&#x137;" horiz-adv-x="370" 
d="M153 256l181 -256h-61l-169 226v-226h-56v700h56v-414l160 214h61zM153 -150v65h65v-65l-26 -63h-23l11 63h-27z" />
    <glyph glyph-name="l" unicode="l" horiz-adv-x="152" 
d="M51 0v700h56v-700h-56z" />
    <glyph glyph-name="lacute" unicode="&#x13a;" horiz-adv-x="174" 
d="M81 881h76l-86 -130h-48zM52 0v700h56v-700h-56z" />
    <glyph glyph-name="lcaron" unicode="&#x13e;" horiz-adv-x="232" 
d="M161 700h65v-65l-26 -63h-23l11 63h-27v65zM51 0v700h56v-700h-56z" />
    <glyph glyph-name="lcommaaccent" unicode="&#x13c;" horiz-adv-x="152" 
d="M107 700v-700h-56v700h56zM44 -85h65v-65l-26 -63h-23l11 63h-27v65z" />
    <glyph glyph-name="ldot" unicode="&#x140;" horiz-adv-x="274" 
d="M51 0v700h56v-700h-56zM185 297v65h65v-65h-65z" />
    <glyph glyph-name="lslash" unicode="&#x142;" horiz-adv-x="298" 
d="M281 500v-66l-104 -63v-371h-57v351l-103 -62v67l103 62v282h57v-263z" />
    <glyph glyph-name="m" unicode="m" horiz-adv-x="646" 
d="M91 500l5 -67c24 52 68 75 117 75c50 0 102 -23 124 -90c22 63 70 90 124 90c68 0 139 -41 139 -176v-333h-56v306c0 121 -46 152 -97 152c-46 0 -88 -23 -94 -109v-348h-56v306c0 121 -46 152 -97 152s-96 -28 -96 -136v-322h-56v500h43z" />
    <glyph glyph-name="n" unicode="n" horiz-adv-x="398" 
d="M91 500l5 -67c24 52 68 75 118 75c68 0 139 -41 139 -176v-333h-56v306c0 121 -46 152 -97 152s-96 -28 -96 -139v-318h-56v500h43z" />
    <glyph glyph-name="nacute" unicode="&#x144;" horiz-adv-x="398" 
d="M191 706h76l-86 -130h-48zM92 500l5 -67c24 52 68 75 118 75c68 0 139 -41 139 -176v-333h-56v306c0 121 -46 152 -97 152s-96 -28 -96 -139v-318h-56v500h43z" />
    <glyph glyph-name="ncaron" unicode="&#x148;" horiz-adv-x="398" 
d="M283 702h49l-100 -136h-65l-100 136h50l83 -91zM91 500l5 -67c24 52 68 75 118 75c68 0 139 -41 139 -176v-333h-56v306c0 121 -46 152 -97 152s-96 -28 -96 -139v-318h-56v500h43z" />
    <glyph glyph-name="ncommaaccent" unicode="&#x146;" horiz-adv-x="398" 
d="M91 500l5 -67c24 52 68 75 118 75c68 0 139 -41 139 -176v-333h-56v306c0 121 -46 152 -97 152s-96 -28 -96 -139v-318h-56v500h43zM165 -152v65h65v-65l-26 -63h-23l11 63h-27z" />
    <glyph glyph-name="eng" unicode="&#x14b;" horiz-adv-x="402" 
d="M93 500l5 -67c24 52 68 75 118 75c68 0 139 -41 139 -176v-330c0 -148 -53 -175 -137 -176h-25v51h9c69 1 97 15 97 136v300c0 115 -47 144 -97 144c-51 0 -96 -28 -96 -139v-318h-56v500h43z" />
    <glyph glyph-name="ntilde" unicode="&#xf1;" horiz-adv-x="398" 
d="M291 702h46c0 -53 -7 -124 -69 -124c-23 0 -41 8 -77 44c-25 25 -36 27 -51 27c-25 -1 -31 -24 -31 -71h-45c0 53 7 124 69 124c29 0 48 -17 77 -43c26 -28 40 -28 52 -27c24 1 29 24 29 70zM92 500l5 -67c24 52 68 75 118 75c68 0 139 -41 139 -176v-333h-56v306
c0 121 -46 152 -97 152s-96 -28 -96 -139v-318h-56v500h43z" />
    <glyph glyph-name="o" unicode="o" horiz-adv-x="387" 
d="M41 168v165c0 134 79 176 152 176s153 -41 153 -176v-165c0 -135 -80 -176 -153 -176s-152 42 -152 176zM290 195v111c0 121 -46 152 -96 152c-52 0 -96 -31 -96 -152v-111c0 -120 42 -152 96 -152c52 0 96 32 96 152z" />
    <glyph glyph-name="oacute" unicode="&#xf3;" horiz-adv-x="387" 
d="M186 706h76l-86 -130h-48zM42 168v165c0 134 79 176 152 176s153 -41 153 -176v-165c0 -135 -80 -176 -153 -176s-152 42 -152 176zM291 195v111c0 121 -46 152 -96 152c-52 0 -96 -31 -96 -152v-111c0 -120 42 -152 96 -152c52 0 96 32 96 152z" />
    <glyph glyph-name="ocaron" unicode="&#x1d2;" horiz-adv-x="387" 
d="M277 702h49l-100 -136h-65l-100 136h50l83 -91zM40 168v165c0 134 79 176 152 176s153 -41 153 -176v-165c0 -135 -80 -176 -153 -176s-152 42 -152 176zM289 195v111c0 121 -46 152 -96 152c-52 0 -96 -31 -96 -152v-111c0 -120 42 -152 96 -152c52 0 96 32 96 152z" />
    <glyph glyph-name="ocircumflex" unicode="&#xf4;" horiz-adv-x="387" 
d="M162 702l66 -1l100 -136h-50l-83 91l-83 -91h-50zM43 167v165c0 134 79 176 152 176s153 -41 153 -176v-165c0 -135 -80 -176 -153 -176s-152 42 -152 176zM292 194v111c0 121 -46 152 -96 152c-52 0 -96 -31 -96 -152v-111c0 -120 42 -152 96 -152c52 0 96 32 96 152z
" />
    <glyph glyph-name="odieresis" unicode="&#xf6;" horiz-adv-x="387" 
d="M105 639v61h61v-61h-61zM222 639v61h61v-61h-61zM40 168v165c0 134 79 176 152 176s153 -41 153 -176v-165c0 -135 -80 -176 -153 -176s-152 42 -152 176zM289 195v111c0 121 -46 152 -96 152c-52 0 -96 -31 -96 -152v-111c0 -120 42 -152 96 -152c52 0 96 32 96 152z
" />
    <glyph glyph-name="ograve" unicode="&#xf2;" horiz-adv-x="387" 
d="M127 707h76l58 -130h-48zM41 168v165c0 134 79 176 152 176s153 -41 153 -176v-165c0 -135 -80 -176 -153 -176s-152 42 -152 176zM290 195v111c0 121 -46 152 -96 152c-52 0 -96 -31 -96 -152v-111c0 -120 42 -152 96 -152c52 0 96 32 96 152z" />
    <glyph glyph-name="ohungarumlaut" unicode="&#x151;" horiz-adv-x="402" 
d="M140 706h72l-86 -130h-44zM257 706h72l-86 -130h-44zM42 168v165c0 134 79 176 152 176s153 -41 153 -176v-165c0 -135 -80 -176 -153 -176s-152 42 -152 176zM291 195v111c0 121 -46 152 -96 152c-52 0 -96 -31 -96 -152v-111c0 -120 42 -152 96 -152c52 0 96 32 96 152
z" />
    <glyph glyph-name="omacron" unicode="&#x14d;" horiz-adv-x="387" 
d="M52 700h285v-52h-285v52zM41 168v165c0 134 79 176 152 176s153 -41 153 -176v-165c0 -135 -80 -176 -153 -176s-152 42 -152 176zM290 195v111c0 121 -46 152 -96 152c-52 0 -96 -31 -96 -152v-111c0 -120 42 -152 96 -152c52 0 96 32 96 152z" />
    <glyph glyph-name="oslash" unicode="&#xf8;" horiz-adv-x="403" 
d="M347 550l-34 -83c26 -27 43 -70 43 -133v-165c0 -135 -80 -176 -153 -176c-26 0 -53 5 -77 18l-25 -60h-37l33 82c-28 27 -47 71 -47 136v165c0 134 79 176 152 176c28 0 57 -6 82 -21l25 61h38zM107 307v-111c0 -45 6 -78 16 -101l140 341c-17 16 -38 22 -60 22
c-52 0 -96 -30 -96 -151zM286 401l-139 -339c16 -13 35 -18 56 -18c52 0 97 31 97 151v111c0 41 -5 72 -14 95z" />
    <glyph glyph-name="otilde" unicode="&#xf5;" horiz-adv-x="387" 
d="M286 702h46c0 -53 -7 -124 -69 -124c-23 0 -41 8 -77 44c-25 25 -36 27 -51 27c-25 -1 -31 -24 -31 -71h-45c0 53 7 124 69 124c29 0 48 -17 77 -43c26 -28 40 -28 52 -27c24 1 29 24 29 70zM42 168v165c0 134 79 176 152 176s153 -41 153 -176v-165
c0 -135 -80 -176 -153 -176s-152 42 -152 176zM291 195v111c0 121 -46 152 -96 152c-52 0 -96 -31 -96 -152v-111c0 -120 42 -152 96 -152c52 0 96 32 96 152z" />
    <glyph glyph-name="oe" unicode="&#x153;" horiz-adv-x="716" 
d="M79 168l-2 165c0 134 72 176 140 176c54 0 105 -23 128 -88c25 65 80 88 133 88c73 0 153 -41 153 -176v-108h-248v-45c0 -108 44 -136 97 -136c47 0 92 25 96 119h56c-2 -131 -80 -171 -152 -171c-53 0 -108 23 -133 88c-23 -65 -74 -88 -128 -88
c-68 0 -140 42 -140 176zM326 195v111c0 121 -46 152 -96 152c-52 0 -96 -31 -96 -152v-111c0 -120 42 -152 96 -152c52 0 96 32 96 152zM574 277v55c-1 101 -49 126 -96 126c-49 0 -95 -25 -96 -126v-55h192z" />
    <glyph glyph-name="p" unicode="p" 
d="M90 500l6 -66c24 52 68 74 118 74c68 0 139 -41 139 -176v-165c0 -135 -71 -176 -139 -176c-46 0 -88 20 -111 66v-220h-56v663h43zM297 194v111c0 120 -44 152 -97 152c-54 0 -96 -32 -96 -152v-111c0 -121 44 -152 96 -152c51 0 97 31 97 152z" />
    <glyph glyph-name="thorn" unicode="&#xfe;" 
d="M104 700v-260c23 48 65 68 111 68c68 0 139 -41 139 -176v-165c0 -135 -71 -176 -139 -176c-46 0 -88 20 -111 66v-220h-56v863h56zM297 194v111c0 120 -44 152 -97 152c-54 0 -96 -32 -96 -152v-111c0 -121 44 -152 96 -152c51 0 97 31 97 152z" />
    <glyph glyph-name="q" unicode="q" horiz-adv-x="393" 
d="M304 500h43v-663h-56v220c-23 -46 -65 -66 -111 -66c-68 0 -139 41 -139 176v165c0 135 71 176 139 176c50 0 94 -22 118 -74zM98 305v-111c0 -121 46 -152 97 -152c52 0 96 31 96 152v111c0 120 -42 152 -96 152c-53 0 -97 -32 -97 -152z" />
    <glyph glyph-name="r" unicode="r" horiz-adv-x="264" 
d="M91 500l7 -80c27 58 75 88 129 88v-50c-69 0 -123 -48 -123 -159v-299h-56v500h43z" />
    <glyph glyph-name="racute" unicode="&#x155;" horiz-adv-x="264" 
d="M124 706h76l-86 -130h-48zM92 500l7 -80c27 58 75 88 129 88v-50c-69 0 -123 -48 -123 -159v-299h-56v500h43z" />
    <glyph glyph-name="rcaron" unicode="&#x159;" horiz-adv-x="264" 
d="M216 702h49l-100 -136h-65l-100 136h50l83 -91zM91 500l7 -80c27 58 75 88 129 88v-50c-69 0 -123 -48 -123 -159v-299h-56v500h43z" />
    <glyph glyph-name="rcommaaccent" unicode="&#x157;" horiz-adv-x="264" 
d="M91 500l7 -80c27 58 75 88 129 88v-50c-69 0 -123 -48 -123 -159v-299h-56v500h43zM100 -152v65h65v-65l-26 -63h-23l11 63h-27z" />
    <glyph glyph-name="s" unicode="s" horiz-adv-x="376" 
d="M91 149l-1 -12c2 -74 51 -96 96 -96c55 0 97 24 97 92c0 63 -39 90 -100 108c-58 15 -136 44 -136 136c0 95 67 132 143 132c70 0 141 -44 145 -145v-10h-56v10c-4 70 -46 93 -88 93c-49 0 -87 -19 -87 -77c2 -63 63 -78 97 -88c106 -28 141 -82 141 -155
c0 -104 -70 -145 -153 -145c-70 0 -151 43 -154 146v11h56z" />
    <glyph glyph-name="sacute" unicode="&#x15b;" horiz-adv-x="376" 
d="M180 706h76l-86 -130h-48zM92 149l-1 -12c2 -74 51 -96 96 -96c55 0 97 24 97 92c0 63 -39 90 -100 108c-58 15 -136 44 -136 136c0 95 67 132 143 132c70 0 141 -44 145 -145v-10h-56v10c-4 70 -46 93 -88 93c-49 0 -87 -19 -87 -77c2 -63 63 -78 97 -88
c106 -28 141 -82 141 -155c0 -104 -70 -145 -153 -145c-70 0 -151 43 -154 146v11h56z" />
    <glyph glyph-name="scaron" unicode="&#x161;" horiz-adv-x="376" 
d="M272 702h49l-100 -136h-65l-100 136h50l83 -91zM91 149l-1 -12c2 -74 51 -96 96 -96c55 0 97 24 97 92c0 63 -39 90 -100 108c-58 15 -136 44 -136 136c0 95 67 132 143 132c70 0 141 -44 145 -145v-10h-56v10c-4 70 -46 93 -88 93c-49 0 -87 -19 -87 -77
c2 -63 63 -78 97 -88c106 -28 141 -82 141 -155c0 -104 -70 -145 -153 -145c-70 0 -151 43 -154 146v11h56z" />
    <glyph glyph-name="scedilla" unicode="&#x15f;" horiz-adv-x="376" 
d="M91 149l2 -12c3 -74 52 -96 97 -96c55 0 97 24 97 92c0 63 -39 90 -100 108c-58 15 -136 44 -136 136c0 95 67 132 143 132c70 0 140 -44 144 -143v-12h-56v12c-4 68 -47 91 -89 91c-49 0 -87 -19 -87 -77c2 -63 63 -78 97 -88c106 -28 141 -82 141 -155
c0 -76 -37 -118 -89 -135v-55c-1 -80 -26 -116 -103 -117h-25v44h24c41 1 54 23 54 71v50c-11 -1 -22 -1 -33 0c-63 5 -134 46 -137 143v11h56z" />
    <glyph glyph-name="scommaaccent" unicode="&#x219;" horiz-adv-x="376" 
d="M91 149l-1 -12c2 -74 51 -96 96 -96c55 0 97 24 97 92c0 63 -39 90 -100 108c-58 15 -136 44 -136 136c0 95 67 132 143 132c70 0 141 -44 145 -145v-10h-56v10c-4 70 -46 93 -88 93c-49 0 -87 -19 -87 -77c2 -63 63 -78 97 -88c106 -28 141 -82 141 -155
c0 -104 -70 -145 -153 -145c-70 0 -151 43 -154 146v11h56zM155 -88h65v-65l-26 -63h-23l11 63h-27v65z" />
    <glyph glyph-name="germandbls" unicode="&#xdf;" horiz-adv-x="525" 
d="M249 703l23 2c97 0 203 -50 205 -180v-16c0 -76 -43 -126 -98 -145c68 -19 112 -75 112 -157v-15c-1 -132 -93 -190 -216 -190h-101v63h101c96 0 150 44 151 124v15c0 79 -53 126 -150 126h-42v64h35c81 0 143 36 144 115v14c0 82 -66 118 -138 118h-26
c-68 -1 -136 -36 -137 -121v-520h-67v516c0 137 106 186 204 187z" />
    <glyph glyph-name="t" unicode="t" horiz-adv-x="313" 
d="M170 450v-258c0 -134 26 -148 94 -149h12v-51h-25c-84 1 -137 24 -137 182v276h-76v50h76v153h56v-153h106v-50h-106z" />
    <glyph glyph-name="tbar" unicode="&#x167;" horiz-adv-x="313" 
d="M276 450h-106v-107h106v-51h-106v-109c1 -127 27 -140 92 -141h14v-51h-26c-84 1 -136 26 -136 183v118h-76v51h76v107h-76v50h76v153h56v-153h106v-50z" />
    <glyph glyph-name="tcaron" unicode="&#x165;" horiz-adv-x="359" 
d="M223 705h61v-61l-25 -58h-21l10 58h-25v61zM114 653l56 -1v-153h106v-50h-106v-259c0 -132 25 -147 92 -148h14v-51h-26c-84 1 -136 26 -136 183v276h-76v50h76v153z" />
    <glyph glyph-name="tcedilla" unicode="&#x163;" horiz-adv-x="313" 
d="M113 653l57 1v-153h106v-50h-106v-259c0 -134 26 -148 94 -149h12v-51h-10c-15 0 -28 1 -43 3v-45c-2 -73 -28 -106 -102 -107h-25v44h25c41 1 54 23 54 72v48c-40 19 -62 63 -62 167v276h-76v50h76v153z" />
    <glyph glyph-name="uni021B" unicode="&#x21b;" horiz-adv-x="313" 
d="M170 450v-259c0 -133 26 -148 94 -149h13v-51h-26c-84 1 -137 25 -137 183v276h-76v50h76v153h56v-153h106v-50h-106zM137 -84h65v-65l-26 -63h-23l11 63h-27v65z" />
    <glyph glyph-name="u" unicode="u" 
d="M294 500l58 1v-500h-43l-7 65c-24 -52 -68 -75 -118 -75c-68 0 -139 41 -139 176v333h56v-306c0 -121 46 -152 97 -152s96 28 96 140v318z" />
    <glyph glyph-name="uacute" unicode="&#xfa;" 
d="M189 706h76l-86 -130h-48zM294 500l58 1v-500h-43l-7 65c-24 -52 -68 -75 -118 -75c-68 0 -139 41 -139 176v333h56v-306c0 -121 46 -152 97 -152s96 28 96 140v318z" />
    <glyph glyph-name="ucaron" unicode="&#x1d4;" 
d="M281 702h49l-100 -136h-65l-100 136h50l83 -91zM293 500l58 1v-500h-43l-7 65c-24 -52 -68 -75 -118 -75c-68 0 -139 41 -139 176v333h56v-306c0 -121 46 -152 97 -152s96 28 96 140v318z" />
    <glyph glyph-name="ucircumflex" unicode="&#xfb;" 
d="M165 702l66 -1l100 -136h-50l-83 91l-83 -91h-50zM295 499l58 1v-500h-43l-7 65c-24 -52 -68 -75 -118 -75c-68 0 -139 41 -139 176v333h56v-306c0 -121 46 -152 97 -152s96 28 96 140v318z" />
    <glyph glyph-name="udieresis" unicode="&#xfc;" 
d="M109 639v61h61v-61h-61zM226 639v61h61v-61h-61zM294 500l58 1v-500h-43l-7 65c-24 -52 -68 -75 -118 -75c-68 0 -139 41 -139 176v333h56v-306c0 -121 46 -152 97 -152s96 28 96 140v318z" />
    <glyph glyph-name="udieresisacute" unicode="&#x1d8;" 
d="M189 758h76l-86 -130h-48zM109 543v61h61v-61h-61zM226 543v61h61v-61h-61zM294 500l58 1v-500h-43l-7 65c-24 -52 -68 -75 -118 -75c-68 0 -139 41 -139 176v333h56v-306c0 -121 46 -152 97 -152s96 28 96 140v318z" />
    <glyph glyph-name="udieresiscaron" unicode="&#x1da;" 
d="M281 753h49l-100 -136h-65l-100 136h50l83 -91zM109 543v61h61v-61h-61zM226 543v61h61v-61h-61zM294 500l58 1v-500h-43l-7 65c-24 -52 -68 -75 -118 -75c-68 0 -139 41 -139 176v333h56v-306c0 -121 46 -152 97 -152s96 28 96 140v318z" />
    <glyph glyph-name="udieresisgrave" unicode="&#x1dc;" 
d="M131 758h76l58 -130h-48zM110 543v61h61v-61h-61zM227 543v61h61v-61h-61zM295 500l58 1v-500h-43l-7 65c-24 -52 -68 -75 -118 -75c-68 0 -139 41 -139 176v333h56v-306c0 -121 46 -152 97 -152s96 28 96 140v318z" />
    <glyph glyph-name="udieresismacron" unicode="&#x1d6;" 
d="M56 745h285v-52h-285v52zM110 544v61h61v-61h-61zM227 544v61h61v-61h-61zM295 501l58 1v-500h-43l-7 65c-24 -52 -68 -75 -118 -75c-68 0 -139 41 -139 176v333h56v-306c0 -121 46 -152 97 -152s96 28 96 140v318z" />
    <glyph glyph-name="ugrave" unicode="&#xf9;" 
d="M131 707h76l58 -130h-48zM295 500l58 1v-500h-43l-7 65c-24 -52 -68 -75 -118 -75c-68 0 -139 41 -139 176v333h56v-306c0 -121 46 -152 97 -152s96 28 96 140v318z" />
    <glyph glyph-name="uhungarumlaut" unicode="&#x171;" 
d="M137 706h72l-86 -130h-44zM254 706h72l-86 -130h-44zM295 500l58 1v-500h-43l-7 65c-24 -52 -68 -75 -118 -75c-68 0 -139 41 -139 176v333h56v-306c0 -121 46 -152 97 -152s96 28 96 140v318z" />
    <glyph glyph-name="umacron" unicode="&#x16b;" 
d="M56 700h285v-52h-285v52zM295 500l58 1v-500h-43l-7 65c-24 -52 -68 -75 -118 -75c-68 0 -139 41 -139 176v333h56v-306c0 -121 46 -152 97 -152s96 28 96 140v318z" />
    <glyph glyph-name="uogonek" unicode="&#x173;" 
d="M294 500l57 1v-500c-28 -20 -62 -45 -62 -83c0 -31 20 -41 50 -42h15v-44h-17c-62 1 -96 24 -98 71c-1 53 45 81 69 98l-7 65c-24 -52 -68 -75 -117 -75c-68 0 -139 41 -139 176v333h56v-306c0 -121 46 -152 97 -152s96 28 96 140v318z" />
    <glyph glyph-name="uring" unicode="&#x16f;" 
d="M198 720c54 0 98 -45 98 -97c0 -55 -44 -99 -98 -99c-55 0 -97 44 -97 99c0 52 42 97 97 97zM198 677c-31 0 -54 -25 -54 -54c0 -31 23 -55 54 -55c30 0 54 24 54 55c0 29 -24 54 -54 54zM294 500l58 1v-500h-43l-7 65c-24 -52 -68 -75 -118 -75c-68 0 -139 41 -139 176
v333h56v-306c0 -121 46 -152 97 -152s96 28 96 140v318z" />
    <glyph glyph-name="v" unicode="v" horiz-adv-x="445" 
d="M351 500h57l-154 -500h-64l-154 500h57l129 -414z" />
    <glyph glyph-name="w" unicode="w" horiz-adv-x="667" 
d="M573 500h55l-123 -500h-67l-106 392l-106 -392h-67l-123 500h57l104 -421l111 421h50l111 -421z" />
    <glyph glyph-name="wacute" unicode="&#x1e83;" horiz-adv-x="667" 
d="M325 706h76l-86 -130h-48zM574 500h55l-123 -500h-67l-106 392l-106 -392h-67l-123 500h57l104 -421l111 421h50l111 -421z" />
    <glyph glyph-name="wcircumflex" unicode="&#x175;" horiz-adv-x="667" 
d="M301 702l66 -1l100 -136h-50l-83 91l-83 -91h-50zM575 499h55l-123 -500h-67l-106 392l-106 -392h-67l-123 500h57l104 -421l111 421h50l111 -421z" />
    <glyph glyph-name="wdieresis" unicode="&#x1e85;" horiz-adv-x="667" 
d="M245 700h61v-61h-61v61zM363 700h61v-61h-61v61zM575 500h55l-123 -500h-67l-106 392l-106 -392h-67l-123 500h57l104 -421l111 421h50l111 -421z" />
    <glyph glyph-name="wgrave" unicode="&#x1e81;" horiz-adv-x="667" 
d="M266 707h76l58 -130h-48zM574 500h55l-123 -500h-67l-106 392l-106 -392h-67l-123 500h57l104 -421l111 421h50l111 -421z" />
    <glyph glyph-name="x" unicode="x" horiz-adv-x="399" 
d="M361 500l-120 -247l122 -253h-59l-104 204l-105 -204h-59l122 252l-120 248h59l102 -212l103 212h59z" />
    <glyph glyph-name="y" unicode="y" horiz-adv-x="378" 
d="M286 500l56 -2v-508c-4 -125 -80 -164 -151 -164c-60 0 -126 28 -145 113h58c16 -47 51 -61 87 -61c52 0 96 28 96 132v57c-23 -48 -65 -68 -111 -68c-68 0 -139 41 -139 176v324h56v-297c0 -121 46 -152 97 -152c52 0 96 31 96 153v297z" />
    <glyph glyph-name="yacute" unicode="&#xfd;" horiz-adv-x="378" 
d="M181 706h76l-86 -130h-48zM286 500l56 -2v-508c-4 -125 -80 -164 -151 -164c-60 0 -126 28 -145 113h58c16 -47 51 -61 87 -61c52 0 96 28 96 132v57c-23 -48 -65 -68 -111 -68c-68 0 -139 41 -139 176v324h56v-297c0 -121 46 -152 97 -152c52 0 96 31 96 153v297z" />
    <glyph glyph-name="ycircumflex" unicode="&#x177;" horiz-adv-x="378" 
d="M157 702l66 -1l100 -136h-50l-83 91l-83 -91h-50zM287 499l56 -2v-508c-4 -125 -80 -164 -151 -164c-60 0 -126 28 -145 113h58c16 -47 51 -61 87 -61c52 0 96 28 96 132v57c-23 -48 -65 -68 -111 -68c-68 0 -139 41 -139 176v324h56v-297c0 -121 46 -152 97 -152
c52 0 96 31 96 153v297z" />
    <glyph glyph-name="ydieresis" unicode="&#xff;" horiz-adv-x="378" 
d="M101 639v61h61v-61h-61zM218 639v61h61v-61h-61zM286 500l56 -2v-508c-4 -125 -80 -164 -151 -164c-60 0 -126 28 -145 113h58c16 -47 51 -61 87 -61c52 0 96 28 96 132v57c-23 -48 -65 -68 -111 -68c-68 0 -139 41 -139 176v324h56v-297c0 -121 46 -152 97 -152
c52 0 96 31 96 153v297z" />
    <glyph glyph-name="ygrave" unicode="&#x1ef3;" horiz-adv-x="378" 
d="M123 707h76l58 -130h-48zM287 500l56 -2v-508c-4 -125 -80 -164 -151 -164c-60 0 -126 28 -145 113h58c16 -47 51 -61 87 -61c52 0 96 28 96 132v57c-23 -48 -65 -68 -111 -68c-68 0 -139 41 -139 176v324h56v-297c0 -121 46 -152 97 -152c52 0 96 31 96 153v297z" />
    <glyph glyph-name="z" unicode="z" horiz-adv-x="372" 
d="M99 51h237v-51h-299v44l235 404h-224v52h285v-44z" />
    <glyph glyph-name="zacute" unicode="&#x17a;" horiz-adv-x="372" 
d="M177 706h76l-86 -130h-48zM48 500h285v-44l-234 -405h237v-51h-299v44l235 404h-224v52z" />
    <glyph glyph-name="zcaron" unicode="&#x17e;" horiz-adv-x="372" 
d="M269 702h49l-100 -136h-65l-100 136h50l83 -91zM47 500h285v-44l-234 -405h237v-51h-299v44l235 404h-224v52z" />
    <glyph glyph-name="zdotaccent" unicode="&#x17c;" horiz-adv-x="372" 
d="M156 700h61v-61h-61v61zM48 500h285v-44l-234 -405h237v-51h-299v44l235 404h-224v52z" />
    <glyph glyph-name="fi" unicode="&#xfb01;" horiz-adv-x="478" 
d="M251 709h25v-51h-12c-67 -1 -94 -17 -94 -136v-22h106v-52h-106v-448h-56v448h-76v51h76v34c0 148 53 175 137 176zM364 646h65v-61h-65v61zM368 500h56v-500h-56v500z" />
    <glyph glyph-name="fl" unicode="&#xfb02;" horiz-adv-x="465" 
d="M251 709h24v-51h-13c-66 -1 -92 -18 -92 -137v-21h106v-52h-106v-448h-56v448h-76v51h76v34c0 148 53 175 137 176zM363 700h56v-700h-56v700z" />
    <glyph glyph-name="K.ss01" horiz-adv-x="453" 
d="M324 700l71 1l-197 -311c105 -6 134 -11 166 -50c26 -34 42 -88 42 -177v-163h-66v163c0 78 -14 122 -37 147c-25 27 -60 32 -98 32h-80v-342h-65v700h65v-303z" />
    <glyph glyph-name="R.ss01" horiz-adv-x="479" 
d="M63 0v708h153c119 0 212 -55 212 -186v-16c0 -83 -43 -133 -99 -158c23 -9 45 -23 62 -46c25 -34 41 -86 41 -164v-139h-65v141c0 67 -13 110 -33 137c-26 35 -64 43 -102 43h-104v-320h-65zM225 642l-96 -1v-254h97c62 0 138 28 138 123v9c0 97 -70 123 -139 123z" />
    <glyph glyph-name="f.ss01" horiz-adv-x="248" 
d="M191 709l20 -1v-51h-8c-70 0 -98 -15 -98 -138v-20h106v-52h-106v-448h-56v533c0 151 54 176 142 177z" />
    <glyph glyph-name="k.ss01" horiz-adv-x="374" 
d="M260 500l61 1l-152 -224c60 -4 89 -10 115 -33c32 -29 53 -81 53 -178v-65h-56v65c0 88 -17 132 -45 154c-24 19 -55 22 -89 22h-43v-242h-56v700h56v-429z" />
    <glyph glyph-name="t.ss01" horiz-adv-x="248" 
d="M105 449v-259c0 -126 27 -141 99 -141h7v-51h-19c-88 0 -143 25 -143 176v479h56v-153h106v-51h-106z" />
    <glyph glyph-name="ordfeminine" unicode="&#xaa;" horiz-adv-x="393" 
d="M304 500h43v-500h-43l-6 65c-24 -52 -68 -73 -117 -73c-68 0 -140 41 -140 176v165c0 135 72 176 140 176c49 0 93 -21 117 -71zM98 306v-111c0 -120 44 -152 97 -152c54 0 96 32 96 152v111c0 121 -44 152 -96 152c-51 0 -97 -31 -97 -152z" />
    <glyph glyph-name="ordmasculine" unicode="&#xba;" horiz-adv-x="387" 
d="M41 168v165c0 134 79 176 152 176s153 -41 153 -176v-165c0 -135 -80 -176 -153 -176s-152 42 -152 176zM290 195v111c0 121 -46 152 -96 152c-52 0 -96 -31 -96 -152v-111c0 -120 42 -152 96 -152c52 0 96 32 96 152z" />
    <glyph glyph-name="florin" unicode="&#x192;" horiz-adv-x="360" 
d="M307 706h19v-51h-13c-69 -1 -88 -17 -109 -135l-4 -21h109v-51h-118l-76 -449h-56l76 449h-100v51h109l7 41c25 147 69 165 156 166z" />
    <glyph glyph-name="afii10017" unicode="&#x410;" horiz-adv-x="535" 
d="M423 0l-58 213h-196l-57 -213h-65l180 700h81l180 -700h-65zM178 279h177l-88 342z" />
    <glyph glyph-name="afii10018" unicode="&#x411;" horiz-adv-x="476" 
d="M63 706h329v-63h-264v-252h104c138 -2 213 -72 213 -192v-15c-1 -120 -75 -189 -216 -190h-166v712zM234 325h-107v-265h107c88 0 145 40 146 127v8c0 89 -60 130 -146 130z" />
    <glyph glyph-name="afii10019" unicode="&#x412;" horiz-adv-x="476" 
d="M63 706h172c97 0 200 -46 200 -168v-27c0 -80 -45 -128 -106 -150c73 -24 116 -80 116 -164v-24c0 -116 -82 -179 -210 -179h-172v712zM371 513v7c0 96 -70 123 -137 123h-105v-253h105c66 0 137 30 137 123zM379 190v8c0 92 -61 132 -145 132h-105v-273h105
c87 0 145 40 145 133z" />
    <glyph glyph-name="afii10020" unicode="&#x413;" horiz-adv-x="440" 
d="M392 700v-63h-264v-637h-65v700h329z" />
    <glyph glyph-name="afii10021" unicode="&#x414;" horiz-adv-x="622" 
d="M534 63l56 1v-183h-65v120h-429v-120h-65v183h40c55 15 101 66 101 181v455h362v-637zM167 64l301 -2v574h-232v-400c0 -90 -30 -143 -69 -172z" />
    <glyph glyph-name="afii10022" unicode="&#x415;" horiz-adv-x="398" 
d="M366 637l-238 -1v-246h228v-63h-228v-264h238v-63h-303v700h303v-63z" />
    <glyph glyph-name="afii10024" unicode="&#x416;" horiz-adv-x="811" 
d="M30 0l250 413l-222 287h82l233 -308v308h66v-305l231 305h81l-221 -287l249 -413h-72l-215 358l-53 -66v-292h-66v287l-51 71l-219 -358h-73z" />
    <glyph glyph-name="afii10025" unicode="&#x417;" horiz-adv-x="482" 
d="M235 709l19 1c76 -1 186 -48 188 -182v-17c0 -81 -45 -131 -102 -150c66 -19 109 -76 109 -159v-16c-1 -132 -96 -192 -194 -193h-20c-87 2 -187 52 -203 196l-1 6h65c14 -103 84 -140 145 -140h11c68 1 131 46 131 133v6c0 90 -58 134 -145 134h-62v62h62
c70 0 138 34 138 125v6c0 92 -76 124 -124 125h-11c-60 0 -126 -36 -142 -132h-66l1 7c19 137 116 186 201 188z" />
    <glyph glyph-name="afii10026" unicode="&#x418;" horiz-adv-x="513" 
d="M386 700h63v-700h-65v564l-258 -564h-64v700h65v-563z" />
    <glyph glyph-name="afii10027" unicode="&#x419;" horiz-adv-x="513" 
d="M333 856h49c-9 -59 -60 -104 -122 -104s-114 45 -123 104h51c9 -31 38 -54 73 -54c34 0 63 23 72 54zM385 700h63v-700h-65v564l-258 -564h-64v700h65v-563z" />
    <glyph glyph-name="afii10028" unicode="&#x41a;" horiz-adv-x="502" 
d="M60 0v700h64v-309l233 309h82l-222 -288l249 -412h-72l-219 358l-51 -70v-288h-64z" />
    <glyph glyph-name="afii10029" unicode="&#x41b;" horiz-adv-x="597" 
d="M172 700h363v-700h-65v637h-232v-403c0 -180 -99 -239 -191 -242h-15v63c69 0 140 44 140 188v457z" />
    <glyph glyph-name="afii10030" unicode="&#x41c;" horiz-adv-x="623" 
d="M483 700h77v-700h-65v539l-161 -539h-45l-161 539v-539h-65v700h78l171 -592z" />
    <glyph glyph-name="afii10031" unicode="&#x41d;" horiz-adv-x="499" 
d="M371 700h65v-700h-65v328h-242v-328h-65v700h65v-309h242v309z" />
    <glyph glyph-name="afii10032" unicode="&#x41e;" horiz-adv-x="526" 
d="M59 234v233c0 185 103 242 203 242c98 0 204 -56 204 -242v-233c0 -186 -106 -242 -204 -242c-100 0 -203 57 -203 242zM400 243l-1 216c0 145 -67 188 -138 188c-72 0 -136 -43 -136 -188v-216c0 -145 64 -188 137 -188c71 0 138 43 138 188z" />
    <glyph glyph-name="afii10033" unicode="&#x41f;" horiz-adv-x="499" 
d="M63 700h372v-700h-65v637h-242v-637h-65v700z" />
    <glyph glyph-name="afii10034" unicode="&#x420;" horiz-adv-x="487" 
d="M63 700l155 1c100 0 210 -44 210 -181v-37c0 -131 -106 -179 -204 -181h-96v-302h-65v700zM364 494v17c0 101 -71 128 -138 128h-98v-273h98c67 0 138 28 138 128z" />
    <glyph glyph-name="afii10035" unicode="&#x421;" horiz-adv-x="497" 
d="M62 234l-1 234c0 185 103 242 203 242c95 0 194 -53 199 -228v-14h-65l-1 14c-7 126 -66 165 -133 165c-72 0 -136 -43 -136 -188v-216c0 -145 64 -188 137 -188c68 0 127 40 134 168v11h65v-13c-5 -176 -104 -229 -199 -229c-100 0 -203 57 -203 242z" />
    <glyph glyph-name="afii10036" unicode="&#x422;" horiz-adv-x="452" 
d="M405 700l-1 -63h-146v-637h-65v637h-146v63h358z" />
    <glyph glyph-name="afii10037" unicode="&#x423;" horiz-adv-x="527" 
d="M389 700h63v-445c0 -212 -129 -248 -196 -255h-12h-142v64h138c97 0 146 67 146 200v48c-27 -37 -73 -52 -134 -52c-123 0 -187 64 -187 188v252h64v-227c0 -130 67 -149 130 -149c64 0 130 19 130 143v233z" />
    <glyph glyph-name="afii10038" unicode="&#x424;" horiz-adv-x="739" 
d="M402 706l1 -79h74c113 -2 204 -57 204 -187v-16c0 -127 -90 -185 -204 -187h-74v-239h-65v239h-74c-115 3 -205 60 -205 187v16c0 130 91 185 204 187h74v79h65zM617 428v8c0 99 -70 125 -139 125h-75v-257h75c69 0 139 28 139 124zM337 303v257h-75
c-69 0 -139 -26 -139 -125v-8c0 -96 70 -124 139 -124h75z" />
    <glyph glyph-name="afii10039" unicode="&#x425;" horiz-adv-x="508" 
d="M458 700l-164 -346l165 -354h-68l-138 289l-139 -289h-68l164 353l-161 347h69l135 -285l136 285h69z" />
    <glyph glyph-name="afii10041" unicode="&#x427;" horiz-adv-x="455" 
d="M341 700h65v-700h-65v328c-24 -50 -72 -70 -134 -70c-94 0 -173 41 -173 176v266h65v-224c0 -121 52 -150 121 -150s121 26 121 141v233z" />
    <glyph glyph-name="afii10040" unicode="&#x426;" horiz-adv-x="532" 
d="M436 65l65 -1v-170h-66v106h-371v700h65v-637h242v637h65v-635z" />
    <glyph glyph-name="afii10042" unicode="&#x428;" horiz-adv-x="806" 
d="M678 700h66v-700h-680v700h65v-637h242v637h65v-637h242v637z" />
    <glyph glyph-name="afii10043" unicode="&#x429;" horiz-adv-x="839" 
d="M743 65l66 -1v-170h-66v106h-679v700h65v-637h242v637h65v-637h242v637h65v-635z" />
    <glyph glyph-name="afii10049" unicode="&#x42f;" horiz-adv-x="490" 
d="M265 706l162 1v-706h-65v316h-115l-128 -316h-71l137 334c-68 17 -130 65 -130 161v30c0 137 110 180 210 180zM362 379v266h-105c-67 0 -138 -26 -138 -128v-10c0 -100 71 -128 138 -128h105z" />
    <glyph glyph-name="afii10046" unicode="&#x42c;" horiz-adv-x="501" 
d="M128 706v-315h103c138 -2 211 -72 211 -192v-13c0 -121 -76 -192 -219 -192h-160v712h65zM128 60l104 -1c89 0 146 41 146 130v6c0 89 -60 130 -146 130h-104v-265z" />
    <glyph glyph-name="afii10044" unicode="&#x42a;" horiz-adv-x="571" 
d="M198 391h102c138 -2 211 -72 211 -192v-13c0 -121 -76 -192 -219 -192h-160v647h-87v65h153v-315zM448 189v5c0 89 -60 130 -146 130h-104v-265h104c89 0 146 41 146 130z" />
    <glyph glyph-name="afii10045" unicode="&#x42b;" horiz-adv-x="663" 
d="M128 706v-315h103c138 -2 211 -72 211 -192v-13c0 -121 -76 -192 -219 -192h-160v712h65zM532 699h67v-700h-67v700zM128 60l104 -1c89 0 146 41 146 130v6c0 89 -60 130 -146 130h-104v-265z" />
    <glyph glyph-name="afii10047" unicode="&#x42d;" horiz-adv-x="497" 
d="M32 473l-1 5c4 177 103 231 199 231c100 0 203 -57 203 -242v-233c0 -185 -103 -242 -203 -242c-96 0 -195 54 -199 231v5h65c5 -133 66 -174 135 -174c73 0 137 43 137 188v77h-203v65h203v74c0 145 -64 188 -136 188c-69 0 -130 -41 -135 -173h-65z" />
    <glyph glyph-name="afii10048" unicode="&#x42e;" horiz-adv-x="702" 
d="M235 384v83c0 185 103 242 203 242c98 0 204 -56 204 -242v-233c0 -186 -106 -242 -204 -242c-100 0 -203 57 -203 242v86h-107v-320h-65v700h65v-316h107zM576 243l-1 216c0 145 -67 188 -138 188c-72 0 -136 -43 -136 -188v-216c0 -145 64 -188 137 -188
c71 0 138 43 138 188z" />
    <glyph glyph-name="afii10065" unicode="&#x430;" horiz-adv-x="393" 
d="M349 0h-60v27c-27 -21 -63 -33 -100 -33c-96 0 -153 54 -153 151c0 84 48 132 159 150l16 3c18 3 54 12 78 19v63c0 47 -30 72 -88 72c-39 0 -83 -18 -90 -96h-57c3 111 82 153 147 153c94 0 148 -51 148 -136v-373zM189 51c37 0 97 13 100 99v109l-100 -21
c-68 -14 -93 -39 -93 -93c0 -66 28 -94 93 -94z" />
    <glyph glyph-name="afii10066" unicode="&#x431;" horiz-adv-x="393" 
d="M201 508c45 0 150 -15 150 -177v-162c0 -162 -105 -177 -150 -177s-153 15 -153 177v162v21v66c0 84 0 138 5 159c22 75 76 123 178 147l90 21v-60l-84 -21c-93 -21 -135 -75 -135 -173v-28c33 42 69 45 99 45zM297 190v120c0 96 -33 147 -96 147c-66 0 -96 -48 -96 -147
v-120c0 -99 30 -147 96 -147c27 0 51 12 66 30c22 24 30 63 30 117z" />
    <glyph glyph-name="afii10067" unicode="&#x432;" horiz-adv-x="383" 
d="M49 506l115 -1c133 0 172 -57 172 -141c0 -51 -16 -87 -65 -106c55 -20 77 -60 77 -120c0 -90 -46 -144 -181 -144h-118v512zM105 280h52c97 0 122 25 122 83c0 61 -23 89 -121 90h-53v-173zM104 44l53 -1c102 1 134 25 134 93c0 67 -33 91 -134 92h-53v-184z" />
    <glyph glyph-name="afii10068" unicode="&#x433;" horiz-adv-x="354" 
d="M318 500v-51h-213v-449h-56v500h269z" />
    <glyph glyph-name="afii10069" unicode="&#x434;" horiz-adv-x="502" 
d="M129 500h288v-449h49v-155h-56v104h-319v-104h-56v155h28c39 12 65 49 66 130v319zM361 51v397h-176v-282c-1 -58 -19 -94 -43 -115h219z" />
    <glyph glyph-name="afii10070" unicode="&#x435;" horiz-adv-x="385" 
d="M41 168l-1 167c0 134 79 176 152 176s153 -41 153 -176v-108h-248v-45c0 -109 43 -138 96 -138c47 0 92 25 96 119h56c-2 -131 -80 -171 -152 -171c-73 0 -152 42 -152 176zM288 271v56c0 106 -48 133 -96 133c-51 0 -96 -27 -96 -134v-55h192z" />
    <glyph glyph-name="afii10072" unicode="&#x436;" horiz-adv-x="595" 
d="M381 278l182 -278h-62l-152 237l-25 -35v-202h-54v202l-24 35l-149 -237h-64l179 278l-170 222h64l164 -213v213h54v-213l163 213h64z" />
    <glyph glyph-name="afii10073" unicode="&#x437;" horiz-adv-x="401" 
d="M189 509h19c94 -1 145 -56 145 -140c0 -51 -21 -96 -85 -113c67 -15 96 -61 96 -127c0 -89 -70 -136 -156 -137h-20c-61 4 -145 37 -145 140h56c0 -71 61 -88 99 -88h4c68 0 109 33 109 94s-40 91 -117 91h-47v51h46c79 0 110 30 110 85c0 56 -34 93 -100 93h-4
c-38 0 -99 -17 -99 -88h-56c0 103 84 136 145 139z" />
    <glyph glyph-name="afii10074" unicode="&#x438;" horiz-adv-x="403" 
d="M299 500h56v-500h-56v385l-194 -385h-56v500h56v-384z" />
    <glyph glyph-name="afii10075" unicode="&#x439;" horiz-adv-x="403" 
d="M273 700h50c-9 -59 -61 -104 -123 -104s-114 45 -123 104h51c9 -31 38 -54 72 -54c35 0 64 23 73 54zM298 500h56v-500h-56v385l-194 -385h-56v500h56v-385z" />
    <glyph glyph-name="afii10076" unicode="&#x43a;" horiz-adv-x="371" 
d="M47 0v500h55v-212l163 212h64l-170 -221l182 -279h-65l-151 235l-23 -32v-203h-55z" />
    <glyph glyph-name="afii10077" unicode="&#x43b;" horiz-adv-x="474" 
d="M136 500h288v-500h-56v449h-176v-284c-1 -131 -73 -171 -138 -174h-19v51c50 0 99 28 101 136v322z" />
    <glyph glyph-name="afii10078" unicode="&#x43c;" horiz-adv-x="456" 
d="M348 500h59v-500h-52v366l-112 -366h-31l-111 366v-366h-52v500h59l120 -407z" />
    <glyph glyph-name="afii10079" unicode="&#x43d;" horiz-adv-x="400" 
d="M296 500h56v-500h-56v232h-191v-232h-56v500h56v-216h191v216z" />
    <glyph glyph-name="afii10080" unicode="&#x43e;" horiz-adv-x="387" 
d="M41 168v165c0 134 79 176 152 176s153 -41 153 -176v-165c0 -135 -80 -176 -153 -176s-152 42 -152 176zM290 195v111c0 121 -46 152 -96 152c-52 0 -96 -31 -96 -152v-111c0 -120 42 -152 96 -152c52 0 96 32 96 152z" />
    <glyph glyph-name="afii10081" unicode="&#x43f;" horiz-adv-x="400" 
d="M49 500h303v-500h-56v449h-191v-449h-56v500z" />
    <glyph glyph-name="afii10082" unicode="&#x440;" 
d="M90 500l6 -66c24 52 68 74 118 74c68 0 139 -41 139 -176v-165c0 -135 -71 -176 -139 -176c-46 0 -88 20 -111 66v-220h-56v663h43zM297 194v111c0 120 -44 152 -97 152c-54 0 -96 -32 -96 -152v-111c0 -121 44 -152 96 -152c51 0 97 31 97 152z" />
    <glyph glyph-name="afii10083" unicode="&#x441;" horiz-adv-x="384" 
d="M41 168l1 166c0 134 79 176 152 176c72 0 149 -40 152 -169v-16h-55c-2 106 -48 134 -97 134c-52 0 -96 -31 -96 -152v-111c0 -120 42 -152 96 -152c50 0 94 28 96 133h55v-16c-3 -129 -80 -169 -152 -169c-73 0 -152 42 -152 176z" />
    <glyph glyph-name="afii10084" unicode="&#x442;" horiz-adv-x="393" 
d="M37 500h320v-51h-132v-449h-56v449h-132v51z" />
    <glyph glyph-name="afii10085" unicode="&#x443;" horiz-adv-x="378" 
d="M286 500l56 -2v-508c-4 -125 -80 -164 -151 -164c-60 0 -126 28 -145 113h58c16 -47 51 -61 87 -61c52 0 96 28 96 132v57c-23 -48 -65 -68 -111 -68c-68 0 -139 41 -139 176v324h56v-297c0 -121 46 -152 97 -152c52 0 96 31 96 153v297z" />
    <glyph glyph-name="afii10086" unicode="&#x444;" horiz-adv-x="636" 
d="M290 700l56 -1v-259c23 48 65 68 111 68c68 0 139 -41 139 -176v-165c0 -135 -71 -176 -139 -176c-46 0 -88 20 -111 66v-220h-56v220c-23 -46 -65 -66 -111 -66c-68 0 -139 41 -139 176v165c0 135 71 176 139 176c46 0 88 -19 111 -67v259zM290 193v112
c0 120 -42 151 -96 151c-53 0 -97 -32 -97 -152v-111c0 -121 46 -152 97 -152c52 0 96 31 96 152zM539 194v111c0 120 -44 152 -97 152c-54 0 -96 -32 -96 -152v-111c0 -121 44 -152 96 -152c51 0 97 31 97 152z" />
    <glyph glyph-name="afii10087" unicode="&#x445;" horiz-adv-x="399" 
d="M361 500l-120 -247l122 -253h-59l-104 204l-105 -204h-59l122 252l-120 248h59l102 -212l103 212h59z" />
    <glyph glyph-name="afii10089" unicode="&#x447;" horiz-adv-x="398" 
d="M294 500h57v-500h-56v220c-23 -48 -65 -68 -111 -68c-68 0 -139 41 -139 176v172h56v-145c0 -121 46 -152 97 -152s96 28 96 140v157z" />
    <glyph glyph-name="afii10088" unicode="&#x446;" horiz-adv-x="439" 
d="M352 51h52v-140h-56v89h-299v500h56v-449h191v449h56v-449z" />
    <glyph glyph-name="afii10090" unicode="&#x448;" horiz-adv-x="647" 
d="M543 500h56v-500h-550v500h56v-449h191v449h56v-449h191v449z" />
    <glyph glyph-name="afii10091" unicode="&#x449;" horiz-adv-x="686" 
d="M599 51h52v-140h-56v89h-546v500h56v-449h191v449h56v-449h191v449h56v-449z" />
    <glyph glyph-name="afii10094" unicode="&#x44c;" horiz-adv-x="375" 
d="M49 500h56v-217h55c133 0 181 -50 181 -139v-14c-1 -88 -50 -136 -181 -136h-111v506zM285 134v4c0 68 -32 93 -133 93h-47v-185h47c100 0 132 23 133 88z" />
    <glyph glyph-name="afii10092" unicode="&#x44a;" horiz-adv-x="422" 
d="M151 283h55c133 0 181 -50 181 -139v-13c-1 -88 -50 -136 -181 -136h-111v454h-60v51h116v-217zM331 134v4c0 68 -32 93 -133 93h-47v-185h47c100 0 132 23 133 88z" />
    <glyph glyph-name="afii10093" unicode="&#x44b;" horiz-adv-x="519" 
d="M49 500h56v-217h55c133 0 181 -50 181 -139v-14c-1 -88 -50 -136 -181 -136h-111v506zM414 0v500h56v-500h-56zM285 134v4c0 68 -32 93 -133 93h-47v-185h47c100 0 132 23 133 88z" />
    <glyph glyph-name="afii10095" unicode="&#x44d;" horiz-adv-x="384" 
d="M94 333h-56c0 135 79 176 152 176s152 -42 152 -176v-165c0 -134 -79 -176 -152 -176s-152 41 -152 176h55c2 -98 47 -125 96 -125c52 0 96 28 96 133v51h-130v51h130v49c0 104 -45 131 -95 131c-47 0 -93 -26 -96 -125z" />
    <glyph glyph-name="afii10096" unicode="&#x44e;" horiz-adv-x="545" 
d="M199 276v57c0 134 79 176 152 176s153 -41 153 -176v-165c0 -135 -80 -176 -153 -176s-152 42 -152 176v59h-95v-227h-56v500h56v-224h95zM448 195v111c0 121 -46 152 -96 152c-52 0 -96 -31 -96 -152v-111c0 -120 42 -152 96 -152c52 0 96 32 96 152z" />
    <glyph glyph-name="afii10097" unicode="&#x44f;" horiz-adv-x="378" 
d="M210 506l120 -2v-506h-56v226l-89 -3l-92 -222h-57l96 239c-69 17 -92 56 -93 116v14c0 86 41 138 171 138zM219 276h55v177h-55c-100 -1 -124 -29 -124 -92c0 -59 24 -85 124 -85z" />
    <glyph glyph-name="afii10049.ss01" horiz-adv-x="479" 
d="M263 706l152 -2v-706h-65v320h-104c-37 0 -73 -8 -99 -39c-22 -27 -36 -71 -36 -141v-140h-66v139c0 77 16 128 41 161c18 24 40 39 64 48c-56 25 -99 75 -99 158v16c0 131 93 186 212 186zM350 383v255h-97c-69 0 -139 -26 -139 -123v-9c0 -95 76 -123 139 -123h97z" />
    <glyph glyph-name="afii10024.ss01" horiz-adv-x="720" 
d="M661 700l-194 -312c98 -6 124 -10 154 -38c32 -32 53 -88 53 -189v-163h-66v163c0 87 -18 132 -46 155c-24 20 -56 24 -90 24h-80v-342h-65v342h-80c-37 0 -71 -4 -96 -29c-24 -25 -39 -70 -39 -150v-163h-65v163c0 93 18 149 46 183c32 35 63 39 162 45l-197 311h70
l199 -303v303h65v-303l199 303h70z" />
    <glyph glyph-name="afii10097.ss01" horiz-adv-x="373" 
d="M326 506l2 -508h-56v226h-43c-44 0 -80 -4 -104 -34c-20 -25 -31 -67 -31 -138v-54h-56v54c0 75 12 123 32 154c12 18 26 31 42 40c-55 18 -74 54 -75 108v14c0 86 41 138 171 138h118zM272 453h-54c-100 -1 -124 -29 -124 -92c0 -56 21 -82 108 -85h70v177z" />
    <glyph glyph-name="afii10076.ss01" horiz-adv-x="374" 
d="M260 500h62l-152 -224c63 -4 95 -11 122 -39c28 -30 46 -82 46 -172v-65h-56v65c0 81 -15 126 -40 150c-24 24 -58 27 -95 27h-43v-242h-56v500h56v-229z" />
    <glyph glyph-name="afii10072.ss01" horiz-adv-x="597" 
d="M544 500l-152 -225c65 -4 98 -10 126 -40c27 -31 44 -83 44 -171v-65h-56v65c0 78 -14 122 -37 147c-25 27 -60 30 -99 30h-43v-242h-56v242h-43c-37 0 -70 -3 -94 -26c-25 -24 -40 -68 -40 -151v-65h-56v65c0 94 19 146 49 175c28 26 60 31 119 35l-152 224h61l156 -229
v230h56v-229l156 230h61z" />
    <glyph glyph-name="Delta" unicode="&#x394;" horiz-adv-x="494" 
d="M454 69l-1 -69h-414v69l167 631h81zM100 65h292l-146 556z" />
    <glyph glyph-name="Omega" unicode="&#x3a9;" horiz-adv-x="511" 
d="M52 255v212c0 185 103 242 203 242c98 0 204 -56 204 -242v-212c0 -100 -33 -159 -78 -191h88v-64h-165v64c51 25 89 81 89 199v196c0 145 -67 188 -138 188c-72 0 -136 -43 -136 -188v-196c0 -118 36 -174 87 -199v-65h-165v64h89c-45 33 -78 92 -78 192z" />
    <glyph glyph-name="mu" unicode="&#x3bc;" horiz-adv-x="490" 
d="M298 501l56 -3v-322c2 -108 52 -136 102 -136v-51h-10c-44 2 -91 23 -113 80c-22 -59 -70 -79 -117 -79c-46 0 -88 21 -111 69v-223h-56v664h56v-318c0 -111 45 -139 96 -139s97 31 97 152v306z" />
    <glyph glyph-name="pi" unicode="&#x3c0;" horiz-adv-x="562" 
d="M35 500h490v-53h-101v-269c2 -108 52 -136 102 -136v-51h-20c-65 3 -137 43 -138 173v283h-176v-447h-56v447h-101v53z" />
    <glyph glyph-name="zero" unicode="0" horiz-adv-x="504" 
d="M48 234v193c0 185 103 242 203 242c98 0 204 -56 204 -242v-193c0 -186 -106 -242 -204 -242c-100 0 -203 57 -203 242zM389 242l-1 176c0 145 -67 188 -138 188c-72 0 -136 -43 -136 -188v-176c0 -145 64 -188 137 -188c71 0 138 43 138 188z" />
    <glyph glyph-name="one" unicode="1" horiz-adv-x="209" 
d="M161 660v-63v-597h-67v597h-59v63h126z" />
    <glyph glyph-name="two" unicode="2" horiz-adv-x="474" 
d="M234 669h14c86 -1 190 -54 190 -200v-2c0 -204 -308 -223 -326 -403h320v-64h-397v38c0 241 336 252 336 430c0 102 -69 138 -124 138h-8c-56 -1 -120 -37 -136 -132h-67l1 8c19 136 116 185 197 187z" />
    <glyph glyph-name="three" unicode="3" horiz-adv-x="482" 
d="M235 669l16 1c74 0 187 -46 188 -173v-14c0 -74 -45 -124 -102 -143c66 -19 109 -76 109 -152v-13c0 -123 -98 -182 -194 -182h-17c-84 0 -185 53 -199 193l-1 4h65c14 -102 84 -135 141 -135h11c64 0 127 42 127 121v6c0 83 -59 126 -142 126h-58v62h58
c66 0 134 33 134 117v6c0 82 -76 112 -121 112h-11c-55 0 -122 -33 -138 -126h-66l1 6c19 132 117 182 199 184z" />
    <glyph glyph-name="four" unicode="4" horiz-adv-x="491" 
d="M456 211v-64h-62v-148h-67v148h-288v74l207 440h67l-207 -451h221v289h67v-288h62z" />
    <glyph glyph-name="five" unicode="5" horiz-adv-x="485" 
d="M68 663l338 -1v-63h-271v-198h79c18 0 68 3 104 -6c89 -20 132 -92 132 -175v-47c-1 -120 -97 -180 -193 -181h-18c-84 0 -185 52 -200 191l-1 6h65c14 -102 84 -135 141 -135h11c64 0 128 41 128 127v40c0 86 -59 123 -146 123h-169v319z" />
    <glyph glyph-name="six" unicode="6" horiz-adv-x="487" 
d="M39 197l1 232c0 185 109 242 209 242c88 0 193 -45 195 -190h-67c0 96 -68 126 -128 126c-74 0 -145 -39 -145 -184v-103c22 43 62 77 130 77h39c137 1 176 -114 176 -203c0 -91 -42 -201 -184 -202h-41c-123 1 -183 87 -185 205zM226 56h38c88 1 119 72 119 139
s-30 140 -119 140h-38c-89 0 -119 -73 -119 -140s31 -138 119 -139z" />
    <glyph glyph-name="seven" unicode="7" horiz-adv-x="462" 
d="M37 663l384 1v-52l-266 -611h-68l262 599h-312v63z" />
    <glyph glyph-name="eight" unicode="8" horiz-adv-x="489" 
d="M229 669h33c87 0 186 -64 186 -172v-14c0 -71 -42 -120 -102 -144c69 -23 109 -77 109 -150v-14c0 -108 -84 -182 -194 -182h-31c-110 0 -194 74 -194 182v14c0 73 40 127 109 150c-60 24 -102 73 -102 144v14c0 108 99 172 186 172zM382 487l-1 6c0 89 -79 113 -121 113
h-28c-42 0 -121 -24 -121 -113v-6c0 -87 70 -113 129 -113h13c59 0 129 26 129 113zM388 179v7c0 88 -60 125 -136 125h-13c-76 0 -136 -37 -136 -125v-7c0 -87 66 -123 128 -123h28c63 0 129 36 129 123z" />
    <glyph glyph-name="nine" unicode="9" horiz-adv-x="479" 
d="M445 465v-231c0 -185 -109 -242 -209 -242c-88 0 -194 45 -196 190h67c0 -97 69 -127 129 -127c74 0 145 39 145 184v103c-22 -43 -63 -77 -131 -77h-39c-137 -1 -176 114 -176 203c0 91 42 201 184 202h41c123 -1 183 -87 185 -205zM259 607h-38
c-88 -1 -119 -72 -119 -139s30 -140 119 -140h38c89 0 119 73 119 140s-31 138 -119 139z" />
    <glyph glyph-name="onequarter" unicode="&#xbc;" horiz-adv-x="603" 
d="M44 700h79v-338h-46v296h-33v42zM396 700h53l-316 -700h-53zM439 338l47 1l-108 -227h104v145h46v-145h31v-42h-31v-69h-46v69h-153v45z" />
    <glyph glyph-name="onehalf" unicode="&#xbd;" horiz-adv-x="623" 
d="M44 700h79v-338h-46v296h-33v42zM396 700h52l-316 -700h-52zM469 340l11 4c45 0 98 -28 99 -101v-3c0 -105 -146 -109 -156 -195h152v-43h-209v26c0 124 167 121 167 211c0 46 -33 60 -54 60h-4c-27 0 -56 -17 -65 -58h-45l1 4c9 69 61 93 103 95z" />
    <glyph glyph-name="threequarters" unicode="&#xbe;" horiz-adv-x="673" 
d="M140 703l16 -2c39 0 95 -23 95 -86v-7c0 -34 -24 -62 -51 -68c32 -12 53 -41 53 -80v-7c0 -61 -49 -90 -99 -90h-12c-41 0 -95 27 -103 95v2h43c7 -40 38 -55 64 -55h7c26 0 55 16 55 50v4c0 38 -27 61 -62 61h-32v42h32c25 0 58 13 58 47v4c0 34 -30 47 -52 47h-7
c-25 0 -54 -14 -62 -51h-44v2c9 64 59 91 101 92zM477 698h53l-316 -700h-53zM513 336h47l-108 -227h104v145h46v-145h31v-42h-31v-69h-46v69h-153v45z" />
    <glyph glyph-name="fraction" unicode="&#x2044;" horiz-adv-x="446" 
d="M39 0l316 700h53l-316 -700h-53z" />
    <glyph glyph-name="two.dnom" horiz-adv-x="234" 
d="M114 340l11 4c45 0 98 -28 99 -101v-3c0 -105 -146 -109 -156 -195h152v-43h-209v26c0 124 167 121 167 211c0 46 -33 60 -54 60h-4c-27 0 -56 -17 -65 -58h-45l1 4c9 69 61 93 103 95z" />
    <glyph glyph-name="four.dnom" horiz-adv-x="250" 
d="M120 338h46l-108 -227h104v145h46v-145h31v-42h-31v-69h-45v69h-153v45z" />
    <glyph glyph-name="one.numr" horiz-adv-x="110" 
d="M16 700h79v-338h-46v296h-33v42z" />
    <glyph glyph-name="three.numr" horiz-adv-x="246" 
d="M119 703l16 -2c39 0 95 -23 95 -86v-7c0 -34 -24 -62 -51 -68c32 -12 53 -41 53 -80v-7c0 -61 -49 -90 -99 -90h-12c-41 0 -95 27 -103 95v2h43c7 -40 38 -55 64 -55h7c26 0 55 16 55 50v4c0 38 -27 61 -62 61h-32v42h32c25 0 58 13 58 47v4c0 34 -30 47 -52 47h-7
c-25 0 -54 -14 -62 -51h-44v2c9 64 59 91 101 92z" />
    <glyph glyph-name="asterisk" unicode="*" horiz-adv-x="430" 
d="M186 716h60l-3 -131l124 43l19 -57l-126 -38l79 -105l-48 -35l-75 108l-75 -108l-48 35l79 105l-126 38l18 57l125 -43z" />
    <glyph glyph-name="backslash" unicode="\" horiz-adv-x="431" 
d="M39 700h68l286 -700h-68z" />
    <glyph glyph-name="bullet" unicode="&#x2022;" horiz-adv-x="346" 
d="M173 436c73 0 131 -58 131 -131s-58 -131 -131 -131s-131 58 -131 131s58 131 131 131z" />
    <glyph glyph-name="colon" unicode=":" horiz-adv-x="165" 
d="M50 336v65h65v-65h-65zM50 1v65h65v-65h-65z" />
    <glyph glyph-name="comma" unicode="," horiz-adv-x="165" 
d="M50 65h65v-65l-26 -63h-23l11 63h-27v65z" />
    <glyph glyph-name="ellipsis" unicode="&#x2026;" horiz-adv-x="442" 
d="M50 0v65h65v-65h-65zM189 0v65h65v-65h-65zM328 0v65h65v-65h-65z" />
    <glyph glyph-name="exclam" unicode="!" horiz-adv-x="165" 
d="M53 701l58 1v-241l-7 -297h-44l-7 296v241zM50 1v65h65v-65h-65z" />
    <glyph glyph-name="exclamdown" unicode="&#xa1;" horiz-adv-x="165" 
d="M50 538h65v-65h-65v65zM60 375l45 1l7 -297v-241h-59v241z" />
    <glyph glyph-name="numbersign" unicode="#" horiz-adv-x="667" 
d="M611 406h-132l-28 -133h132l-17 -63h-133l-49 -210h-68l49 210h-131l-49 -210h-68l49 210h-128l18 63h128l28 133h-127l18 63h128l53 231h68l-53 -231h130l54 231h68l-54 -231h132zM383 273l28 133h-131l-28 -133h131z" />
    <glyph glyph-name="period" unicode="." horiz-adv-x="165" 
d="M50 0v65h65v-65h-65z" />
    <glyph glyph-name="periodcentered" unicode="&#xb7;" horiz-adv-x="165" 
d="M50 297v65h65v-65h-65z" />
    <glyph glyph-name="question" unicode="?" horiz-adv-x="503" 
d="M247 707h13c86 0 191 -53 191 -200v-2c0 -191 -194 -144 -194 -296h-58c0 186 185 139 185 296c0 102 -69 139 -124 139h-8c-56 -1 -120 -37 -136 -132h-67l1 6c19 137 115 186 197 189zM196 65h65v-65h-65v65z" />
    <glyph glyph-name="questiondown" unicode="&#xbf;" horiz-adv-x="503" 
d="M305 479h-65v65h65v-65zM256 -163l-15 -1c-86 0 -191 53 -191 200v2c0 191 194 144 194 296h58c0 -186 -185 -139 -185 -296c0 -102 69 -138 124 -138h8c56 1 120 37 137 132h67l-1 -6c-19 -137 -115 -186 -196 -189z" />
    <glyph glyph-name="quotedbl" unicode="&#x22;" horiz-adv-x="251" 
d="M42 700h59l-9 -191h-41zM150 700h59l-9 -191h-41z" />
    <glyph glyph-name="quotesingle" unicode="'" horiz-adv-x="160" 
d="M50 700h59l-9 -191h-41z" />
    <glyph glyph-name="semicolon" unicode=";" horiz-adv-x="165" 
d="M50 400h65v-65h-65v65zM50 0v65h65v-65l-26 -63h-23l11 63h-27z" />
    <glyph glyph-name="slash" unicode="/" horiz-adv-x="431" 
d="M39 0l286 700h68l-286 -700h-68z" />
    <glyph glyph-name="underscore" unicode="_" horiz-adv-x="514" 
d="M50 -54h414v-64h-414v64z" />
    <glyph glyph-name="braceleft" unicode="{" horiz-adv-x="368" 
d="M261 750l57 -1v-63h-47c-27 0 -51 -23 -51 -57v-196c0 -59 -28 -110 -84 -126c56 -16 84 -63 84 -119v-209c0 -33 24 -56 51 -56h47v-63h-57c-61 0 -107 42 -108 111v200c-1 69 -39 101 -98 104h-5v64h5c60 2 98 34 99 103v197c1 69 46 111 107 111z" />
    <glyph glyph-name="braceright" unicode="}" horiz-adv-x="368" 
d="M50 750l57 2c61 0 106 -42 107 -111v-197c1 -68 39 -100 99 -103h5v-64h-5c-59 -2 -97 -34 -98 -105v-200c-1 -69 -47 -111 -108 -111h-57v64h47c27 0 51 23 51 56v208c0 56 28 104 84 120c-56 16 -84 66 -84 125v196c0 33 -24 56 -51 56h-47v64z" />
    <glyph glyph-name="bracketleft" unicode="[" horiz-adv-x="232" 
d="M182 686h-65v-762h65v-64h-132v890h132v-64z" />
    <glyph glyph-name="bracketright" unicode="]" horiz-adv-x="232" 
d="M50 750h132v-890h-132v64h65v762h-65v64z" />
    <glyph glyph-name="parenleft" unicode="(" horiz-adv-x="265" 
d="M157 750h57v-63h-47c-27 0 -51 -23 -51 -57v-651c0 -33 24 -56 51 -56h47v-63h-57c-61 0 -107 42 -107 111v668c0 69 46 111 107 111z" />
    <glyph glyph-name="parenright" unicode=")" horiz-adv-x="265" 
d="M50 750h57c61 0 107 -42 107 -111v-668c0 -69 -46 -111 -107 -111h-57v63h47c27 0 51 23 51 56v651c0 34 -24 57 -51 57h-47v63z" />
    <glyph glyph-name="emdash" unicode="&#x2014;" horiz-adv-x="640" 
d="M50 301h540v-64h-540v64z" />
    <glyph glyph-name="endash" unicode="&#x2013;" horiz-adv-x="472" 
d="M50 301h372v-64h-372v64z" />
    <glyph glyph-name="hyphen" unicode="-" horiz-adv-x="348" 
d="M50 301h248v-64h-248v64z" />
    <glyph glyph-name="guillemotleft" unicode="&#xab;" horiz-adv-x="373" 
d="M50 306l131 109v-68l-93 -76l93 -75v-68l-131 110v68zM192 305l131 109v-68l-93 -76l93 -75v-68l-131 110v68z" />
    <glyph glyph-name="guillemotright" unicode="&#xbb;" horiz-adv-x="373" 
d="M192 348v69l131 -110v-68l-131 -110v68l93 75zM50 349v69l131 -110v-68l-131 -110v68l93 75z" />
    <glyph glyph-name="guilsinglleft" unicode="&#x2039;" horiz-adv-x="231" 
d="M50 306l131 109v-68l-93 -76l93 -75v-68l-131 110v68z" />
    <glyph glyph-name="guilsinglright" unicode="&#x203a;" horiz-adv-x="231" 
d="M50 348v69l131 -110v-68l-131 -110v68l93 75z" />
    <glyph glyph-name="quotedblbase" unicode="&#x201e;" horiz-adv-x="165" 
d="M50 65h65v-65l-26 -63h-23l11 63h-27v65z" />
    <glyph glyph-name="quotedblleft" unicode="&#x201c;" horiz-adv-x="298" 
d="M99 700l-11 -63h27v-65h-65v65l26 63h23zM221 637h27v-65h-65v65l26 63h23z" />
    <glyph glyph-name="quotedblright" unicode="&#x201d;" horiz-adv-x="298" 
d="M50 635v65h65v-65l-26 -63h-23l11 63h-27zM183 700h65v-65l-26 -63h-23l11 63h-27v65z" />
    <glyph glyph-name="quoteleft" unicode="&#x2018;" horiz-adv-x="165" 
d="M88 637h27v-65h-65v65l26 63h23z" />
    <glyph glyph-name="quoteright" unicode="&#x2019;" horiz-adv-x="165" 
d="M50 700h65v-65l-26 -63h-23l11 63h-27v65z" />
    <glyph glyph-name="quotesinglbase" unicode="&#x201a;" horiz-adv-x="165" 
d="M50 65h65v-65l-26 -63h-23l11 63h-27v65z" />
    <glyph glyph-name="space" unicode=" " horiz-adv-x="300" 
 />
    <glyph glyph-name="cent" unicode="&#xa2;" horiz-adv-x="386" 
d="M165 601l58 -1v-96c62 -9 120 -52 123 -163v-17h-55c-2 106 -48 134 -97 134c-52 0 -96 -31 -96 -152v-111c0 -120 42 -152 96 -152c50 0 94 28 96 133h55v-16c-3 -112 -61 -155 -123 -164v-94h-57v94c-64 9 -124 54 -124 172v165c0 118 60 163 124 172v96z" />
    <glyph glyph-name="currency" unicode="&#xa4;" horiz-adv-x="600" 
 />
    <glyph glyph-name="dollar" unicode="$" horiz-adv-x="500" 
d="M446 490h-63c0 111 -65 156 -129 156c-65 0 -124 -36 -124 -120c2 -100 98 -117 142 -129c128 -35 182 -100 182 -199c0 -132 -74 -189 -167 -201v-47h-67v47c-82 9 -174 67 -175 214h64c0 -115 75 -155 140 -155c83 0 140 44 140 137c0 86 -60 119 -144 143
c-68 19 -180 51 -180 186c0 120 76 171 156 182v47h67v-47c79 -11 158 -72 158 -214z" />
    <glyph glyph-name="Euro" unicode="&#x20ac;" horiz-adv-x="528" 
d="M87 411l-2 57c0 185 103 242 203 242c95 0 194 -53 200 -227v-15h-65l-1 13c-7 127 -66 166 -133 166c-72 0 -136 -43 -136 -188v-48h263l-34 -34h-229v-54h175l-34 -34h-141v-46c0 -145 64 -188 137 -188c68 0 127 39 134 167v12h65v-14c-5 -175 -104 -228 -199 -228
c-100 0 -203 57 -203 242v55h-50v34h50v54h-50v34h50z" />
    <glyph glyph-name="sterling" unicode="&#xa3;" horiz-adv-x="535" 
d="M497 472l-68 1v6c-7 127 -66 167 -134 167c-72 0 -136 -43 -136 -188v-78h152v-64h-152v-253h310v-64h-432v64h55v253h-55v64h55v91c2 182 105 238 204 238c95 0 195 -53 201 -228v-9z" />
    <glyph glyph-name="yen" unicode="&#xa5;" horiz-adv-x="555" 
d="M452 700h71l-148 -266h122v-64h-148l-30 -51l-1 -18h179v-64h-185v-238h-67v238h-183v64h178l-1 18l-30 51h-147v64h121l-148 266h69l174 -324z" />
    <glyph glyph-name="approxequal" unicode="&#x2248;" horiz-adv-x="563" 
d="M462 397l52 1c0 -81 -36 -147 -110 -147c-61 0 -96 33 -141 63c-27 19 -54 34 -86 33c-49 -1 -75 -42 -75 -94h-51c0 86 40 156 119 156c41 0 70 -16 104 -38c38 -28 72 -60 123 -59c44 1 65 38 65 85zM463 215l52 1c0 -81 -36 -147 -110 -147c-61 0 -97 34 -142 64
c-27 19 -54 33 -85 32c-49 -1 -75 -42 -75 -94h-51c0 86 40 156 119 156c41 0 69 -16 104 -38c38 -28 72 -60 123 -59c44 1 65 38 65 85z" />
    <glyph glyph-name="asciitilde" unicode="~" horiz-adv-x="563" 
d="M101 202l-50 2c0 86 40 156 119 156c41 0 70 -17 105 -40c38 -27 72 -58 122 -57c44 1 65 38 65 85h51c0 -81 -36 -147 -110 -147c-61 0 -96 33 -141 63c-27 19 -54 33 -86 32c-49 -1 -75 -42 -75 -94z" />
    <glyph glyph-name="divide" unicode="&#xf7;" horiz-adv-x="535" 
d="M234 401v65h65v-65h-65zM50 292h435v-64h-435v64zM235 52v65h65v-65h-65z" />
    <glyph glyph-name="emptyset" unicode="&#x2205;" horiz-adv-x="610" 
d="M563 462l-56 -58c35 -42 56 -96 56 -155c0 -143 -116 -258 -258 -258c-59 0 -113 21 -155 56l-57 -57l-45 45l56 56c-36 43 -58 98 -58 158c0 142 115 258 258 258c60 0 115 -21 158 -56l56 56zM305 46c113 0 201 90 201 202s-88 203 -201 203c-114 0 -202 -91 -202 -203
s88 -202 202 -202z" />
    <glyph glyph-name="equal" unicode="=" horiz-adv-x="535" 
d="M50 434h435v-64h-435v64zM50 268h435v-64h-435v64z" />
    <glyph glyph-name="greater" unicode="&#x3e;" horiz-adv-x="446" 
d="M50 466v68l346 -197v-31l-346 -197v68l241 144z" />
    <glyph glyph-name="greaterequal" unicode="&#x2265;" horiz-adv-x="446" 
d="M50 470v68l346 -194v-31l-346 -194v68l241 141zM50 48h346v-64h-346v64z" />
    <glyph glyph-name="infinity" unicode="&#x221e;" horiz-adv-x="600" 
 />
    <glyph glyph-name="integral" unicode="&#x222b;" horiz-adv-x="356" 
d="M237 736h69v-63h-47c-30 0 -48 -24 -48 -64v-644c0 -70 -44 -104 -92 -104h-69v63h47c30 0 48 24 48 64v644c0 70 44 104 92 104z" />
    <glyph glyph-name="less" unicode="&#x3c;" horiz-adv-x="446" 
d="M50 336l346 195v-67l-241 -145l241 -144v-67l-346 197v31z" />
    <glyph glyph-name="lessequal" unicode="&#x2264;" horiz-adv-x="446" 
d="M50 343l346 192v-67l-241 -142l241 -141v-67l-346 194v31zM50 45h346v-64h-346v64z" />
    <glyph glyph-name="logicalnot" unicode="&#xac;" horiz-adv-x="535" 
d="M485 172h-67v116h-368v64h435v-180z" />
    <glyph glyph-name="minus" unicode="&#x2212;" horiz-adv-x="535" 
d="M50 352h435v-64h-435v64z" />
    <glyph glyph-name="multiply" unicode="&#xd7;" horiz-adv-x="452" 
d="M227 342l130 130l45 -45l-130 -130l130 -130l-47 -47l-130 130l-130 -130l-45 45l130 130l-130 130l47 47z" />
    <glyph glyph-name="notequal" unicode="&#x2260;" horiz-adv-x="518" 
d="M476 371h-162l-40 -97h202v-64h-228l-99 -242h-68l99 242h-139v64h165l40 97h-205v64h231l96 234h68l-96 -234h136v-64z" />
    <glyph glyph-name="partialdiff" unicode="&#x2202;" horiz-adv-x="600" 
 />
    <glyph glyph-name="percent" unicode="%" horiz-adv-x="667" 
d="M50 472v131c0 82 70 104 106 104c41 0 107 -25 107 -104v-131c0 -79 -66 -103 -107 -104c-36 0 -106 22 -106 104zM501 700h51l-387 -700h-51zM218 471v133c0 44 -36 60 -62 60c-22 0 -61 -14 -61 -60v-133c0 -46 39 -60 61 -60c26 1 62 16 62 60zM403 97v131
c0 82 70 104 106 104c41 0 107 -25 107 -104v-131c0 -79 -66 -104 -107 -104c-36 0 -106 22 -106 104zM571 96v133c0 44 -36 60 -62 60c-22 0 -61 -14 -61 -60v-133c0 -46 39 -59 61 -60c26 0 62 16 62 60z" />
    <glyph glyph-name="perthousand" unicode="&#x2030;" horiz-adv-x="916" 
d="M50 472v131c0 82 70 104 106 104c41 0 107 -25 107 -104v-131c0 -79 -66 -103 -107 -104c-36 0 -106 22 -106 104zM501 700h51l-387 -700h-51zM218 471v133c0 44 -36 60 -62 60c-22 0 -61 -14 -61 -60v-133c0 -46 39 -60 61 -60c26 1 62 16 62 60zM653 97v131
c0 82 70 104 106 104c41 0 107 -25 107 -104v-131c0 -79 -66 -104 -107 -104c-36 0 -106 22 -106 104zM403 97v131c0 82 70 104 106 104c41 0 107 -25 107 -104v-131c0 -79 -66 -104 -107 -104c-36 0 -106 22 -106 104zM821 96v133c0 44 -36 60 -62 60
c-22 0 -61 -14 -61 -60v-133c0 -46 39 -59 61 -60c26 0 62 16 62 60zM571 96v133c0 44 -36 60 -62 60c-22 0 -61 -14 -61 -60v-133c0 -46 39 -59 61 -60c26 0 62 16 62 60z" />
    <glyph glyph-name="plus" unicode="+" horiz-adv-x="535" 
d="M234 512h67v-184h184v-64h-184v-184h-67v184h-184v64h184v184z" />
    <glyph glyph-name="plusminus" unicode="&#xb1;" horiz-adv-x="535" 
d="M234 522h67v-122h184v-64h-184v-122h-67v122h-184v64h184v122zM485 13h-435v64h435v-64z" />
    <glyph glyph-name="product" unicode="&#x220f;" horiz-adv-x="600" 
 />
    <glyph glyph-name="radical" unicode="&#x221a;" horiz-adv-x="600" 
 />
    <glyph glyph-name="summation" unicode="&#x2211;" horiz-adv-x="600" 
 />
    <glyph glyph-name="ampersand" unicode="&#x26;" horiz-adv-x="550" 
d="M513 390l3 -63h-40v-135c0 -164 -96 -199 -204 -201h-18c-112 0 -214 59 -215 194v14c0 83 43 140 109 159c-57 19 -102 69 -102 150v14c1 140 101 186 198 186h89v-63h-89c-67 0 -132 -30 -132 -124v-7c0 -90 68 -124 138 -124h158v158h65v-158h40zM411 194v132h-158
c-86 0 -145 -43 -145 -132v-7c0 -87 69 -133 149 -133h11c80 0 143 24 143 140z" />
    <glyph glyph-name="at" unicode="@" horiz-adv-x="778" 
d="M526 -124l-149 1c-245 0 -329 137 -329 399c-1 252 86 378 342 378c301 -1 335 -152 335 -356v-156c0 -69 -47 -123 -125 -123c-58 0 -89 26 -104 64c-23 -56 -68 -79 -119 -79c-68 0 -140 41 -140 176v165c0 135 72 176 140 176c49 0 93 -21 117 -71l6 62h43v-369
c0 -43 9 -71 59 -71c43 0 69 27 69 73v158c-1 174 -19 298 -277 298c-226 0 -288 -99 -288 -326s58 -347 274 -347h146v-52zM291 318v-111c0 -120 44 -152 97 -152c54 0 96 32 96 152v111c0 121 -44 152 -96 152c-51 0 -97 -31 -97 -152z" />
    <glyph glyph-name="bar" unicode="|" horiz-adv-x="167" 
d="M50 700h67v-760h-67v760z" />
    <glyph glyph-name="brokenbar" unicode="&#xa6;" horiz-adv-x="167" 
d="M50 700h67v-320h-67v320zM50 260h67v-320h-67v320z" />
    <glyph glyph-name="copyright" unicode="&#xa9;" horiz-adv-x="603" 
d="M302 700c149 0 266 -124 266 -270s-117 -270 -266 -270c-150 0 -266 124 -266 270s116 270 266 270zM302 660c-132 0 -225 -105 -225 -230c0 -126 93 -230 225 -230s225 104 225 230c0 125 -93 230 -225 230zM188 410l-1 39c0 116 56 153 114 153c55 0 105 -28 115 -116
v-6h-36c-9 70 -40 89 -78 89c-44 0 -77 -27 -77 -136v-6c0 -108 32 -136 77 -136c39 0 69 20 78 89h36v-6c-10 -88 -60 -116 -115 -116c-57 0 -113 36 -113 152z" />
    <glyph glyph-name="dagger" unicode="&#x2020;" horiz-adv-x="378" 
d="M155 700h67v-201h105v-64h-105v-495h-67v495h-105v64h105v201z" />
    <glyph glyph-name="daggerdbl" unicode="&#x2021;" horiz-adv-x="378" 
d="M155 700h67v-201h105v-64h-105v-252h105v-64h-105v-180h-67v180h-105v64h105v252h-105v64h105v201z" />
    <glyph glyph-name="degree" unicode="&#xb0;" horiz-adv-x="352" 
d="M176 731c70 0 126 -56 126 -125c0 -70 -56 -126 -126 -126c-69 0 -125 56 -125 126c0 69 56 125 125 125zM176 682c-43 0 -77 -34 -77 -77s34 -78 77 -78s77 35 77 78s-34 77 -77 77z" />
    <glyph glyph-name="lozenge" unicode="&#x25ca;" horiz-adv-x="600" 
 />
    <glyph glyph-name="paragraph" unicode="&#xb6;" horiz-adv-x="586" 
d="M185 700h363v-64h-38v-799h-67v799h-97v-799h-67v471h-94c-83 0 -148 64 -148 148v96c0 77 65 148 148 148z" />
    <glyph glyph-name="registered" unicode="&#xae;" horiz-adv-x="603" 
d="M302 697c150 0 267 -124 267 -270s-117 -270 -267 -270s-267 124 -267 270s117 270 267 270zM302 657c-132 0 -225 -105 -225 -230s93 -229 225 -229s225 104 225 229s-93 230 -225 230zM210 596l95 -1c61 0 104 -37 104 -92v-8c-1 -43 -32 -73 -72 -82l86 -154h-41
l-82 146h-53v-146h-37v337zM248 442h57c40 0 68 21 68 59s-28 59 -68 59h-57v-118z" />
    <glyph glyph-name="section" unicode="&#xa7;" horiz-adv-x="418" 
d="M101 87l2 -8c2 -84 61 -112 108 -112c61 0 108 28 108 100c0 76 -51 101 -115 119c-62 15 -147 46 -147 148c0 56 24 92 57 113c-31 22 -56 54 -56 108c0 105 76 145 156 145c79 0 157 -49 159 -162v-8h-62v6c-2 78 -51 107 -97 107c-48 0 -94 -22 -94 -84
c0 -67 58 -84 106 -99c94 -24 155 -75 155 -169c0 -50 -16 -87 -42 -112c26 -27 42 -62 42 -109c0 -112 -78 -160 -171 -160c-75 0 -169 48 -171 168v9h62zM173 419h1c-32 -10 -56 -35 -56 -81c0 -71 64 -84 108 -99c22 -8 45 -17 64 -30c21 16 34 42 34 81
c0 69 -49 94 -104 112c-14 5 -31 10 -47 17z" />
    <glyph glyph-name="trademark" unicode="&#x2122;" horiz-adv-x="592" 
d="M15 654l-1 46h222v-46h-85v-359h-50v359h-86zM514 700h62v-406h-50v311l-95 -191h-32l-95 191v-311h-51v406h62l99 -206z" />
    <glyph glyph-name="asciicircum" unicode="^" horiz-adv-x="483" 
d="M50 410l193 277l191 -277h-53l-139 204l-139 -204h-53z" />
    <glyph glyph-name="commaaccentcomb" unicode="&#x326;" horiz-adv-x="0" 
d="M52 -88l61 -1v-60l-25 -58h-21l10 58h-25v61z" />
    <glyph glyph-name="acute" unicode="&#xb4;" horiz-adv-x="240" 
d="M111 706h76l-86 -130h-48z" />
    <glyph glyph-name="breve" unicode="&#x2d8;" horiz-adv-x="355" 
d="M54 700h51c9 -31 37 -54 72 -54c34 0 63 23 72 54h50c-9 -59 -60 -104 -122 -104s-114 45 -123 104z" />
    <glyph glyph-name="caron" unicode="&#x2c7;" horiz-adv-x="383" 
d="M275 702h49l-100 -136h-65l-100 136h50l83 -91z" />
    <glyph glyph-name="cedilla" unicode="&#xb8;" horiz-adv-x="227" 
d="M129 0h49v-54c-1 -79 -26 -114 -103 -115h-25v44h25c41 1 54 23 54 72v53z" />
    <glyph glyph-name="circumflex" unicode="&#x2c6;" horiz-adv-x="383" 
d="M159 702l66 -1l100 -136h-50l-83 91l-83 -91h-50z" />
    <glyph glyph-name="dieresis" unicode="&#xa8;" horiz-adv-x="281" 
d="M52 639v61h61v-61h-61zM169 639v61h61v-61h-61z" />
    <glyph glyph-name="dotaccent" unicode="&#x2d9;" horiz-adv-x="165" 
d="M52 639v61h61v-61h-61z" />
    <glyph glyph-name="grave" unicode="`" horiz-adv-x="240" 
d="M53 707h76l58 -130h-48z" />
    <glyph glyph-name="hungarumlaut" unicode="&#x2dd;" horiz-adv-x="364" 
d="M114 706h72l-86 -130h-44zM231 706h72l-86 -130h-44z" />
    <glyph glyph-name="macron" unicode="&#xaf;" horiz-adv-x="384" 
d="M50 700h285v-52h-285v52z" />
    <glyph glyph-name="ogonek" unicode="&#x2db;" horiz-adv-x="214" 
d="M115 0l44 1c-28 -21 -62 -47 -61 -85c1 -31 21 -40 51 -41h15v-44h-16c-62 1 -96 23 -98 70c-2 54 43 82 65 99z" />
    <glyph glyph-name="ring" unicode="&#x2da;" horiz-adv-x="309" 
d="M154 720c54 0 98 -45 98 -97c0 -55 -44 -99 -98 -99c-55 0 -97 44 -97 99c0 52 42 97 97 97zM154 677c-31 0 -54 -25 -54 -54c0 -31 23 -55 54 -55c30 0 54 24 54 55c0 29 -24 54 -54 54z" />
    <glyph glyph-name="tilde" unicode="&#x2dc;" horiz-adv-x="361" 
d="M272 702l46 -1c0 -53 -7 -124 -69 -124c-23 0 -41 8 -78 44c-25 26 -36 28 -51 27c-25 -1 -31 -24 -31 -71h-45c0 53 7 124 69 124c29 0 48 -17 77 -43c26 -28 40 -28 52 -27c24 1 30 24 30 71z" />
    <glyph glyph-name="afii10050" unicode="&#x490;" horiz-adv-x="440" 
d="M327 766h66v-66v-37v-24h-264v-639h-66v700h264v66z" />
    <glyph glyph-name="afii10098" unicode="&#x491;" horiz-adv-x="354" 
d="M265 554h54v-103h-213v-451h-57v500h216v54z" />
    <glyph glyph-name="_24" horiz-adv-x="500" 
 />
    <glyph glyph-name="_26" horiz-adv-x="500" 
 />
    <glyph glyph-name="afii10053" unicode="&#x404;" horiz-adv-x="515" 
d="M465 474h-66c-5 134 -65 176 -134 176c-74 0 -139 -45 -139 -190v-75h205v-65h-205v-75c0 -146 65 -190 139 -190c69 0 129 41 134 175h66v-6c-6 -178 -104 -232 -200 -232c-101 0 -205 57 -205 244v235c0 185 104 239 205 239c96 0 194 -51 200 -230v-6z" />
    <glyph glyph-name="afii10101" unicode="&#x454;" horiz-adv-x="385" 
d="M291 334c-4 101 -49 128 -98 128c-53 -2 -98 -27 -98 -135v-49h131v-51h-131v-53c0 -104 45 -131 98 -131c49 0 94 25 98 125h55c0 -137 -80 -176 -153 -176s-153 42 -153 176v166c0 138 80 177 153 177s153 -39 153 -177h-55z" />
    <glyph glyph-name="afii10055" unicode="&#x406;" horiz-adv-x="193" 
d="M63 0v700h67v-700h-67z" />
    <glyph glyph-name="afii10103" unicode="&#x456;" horiz-adv-x="165" 
d="M51 585v61h65v-61h-65zM55 0v500h56v-500h-56z" />
    <glyph glyph-name="afii10056" unicode="&#x407;" horiz-adv-x="193" 
d="M64 700h66v-700h-66v700zM3 830h76v-76h-76v76zM112 830h76v-76h-76v76z" />
    <glyph glyph-name="afii10104" unicode="&#x457;" horiz-adv-x="165" 
d="M52 0v500h58v-500h-58zM4 645h64v-61h-64v61zM95 645h66v-61h-66v61z" />
    </font>
</defs>
</svg>
